<svg xmlns="http://www.w3.org/2000/svg" viewBox="0 0 146.48 148.71"><defs><style>.cls-1{fill:#d4d4c9;}.cls-2{fill:#fff;}</style></defs><title>Asset 2</title><g id="Layer_2" data-name="Layer 2"><g id="Object"><path class="cls-1" d="M73.13,6.56S44.33,27.65,34.4,70.91c0,0,32,38.06,64.91,43,0,0,28.86-22.59,40.73-64.26C140,49.67,114.64,16.17,73.13,6.56Z"/><path class="cls-1" d="M98.31,120.8a63.17,63.17,0,0,1-7-1.49l.79-2.89a59.28,59.28,0,0,0,6.67,1.41Zm4.29-.77-1.85-2.36.69-.54c.18-.15,1.86-1.47,4.51-4l2,2.18c-2.74,2.58-4.52,4-4.71,4.14ZM84.51,117.1c-2.15-.81-4.35-1.75-6.55-2.8l1.29-2.71c2.12,1,4.25,1.92,6.32,2.71ZM71.66,111c-2-1.13-4-2.36-6.06-3.67l1.63-2.52c2,1.28,4,2.48,5.91,3.58Zm41.36-.69-2.19-2.06c1.56-1.65,3.12-3.39,4.62-5.16l2.29,1.94C116.2,106.86,114.61,108.64,113,110.33Zm-53.26-7C57.9,102,56,100.58,54.13,99.09L56,96.74c1.84,1.46,3.7,2.87,5.53,4.18Zm62.42-3.81-2.38-1.83c1.4-1.82,2.78-3.71,4.09-5.6l2.46,1.71C125,95.76,123.61,97.68,122.18,99.55Zm-73.5-5c-1.78-1.51-3.55-3.09-5.28-4.69l2-2.2c1.7,1.57,3.44,3.12,5.19,4.62Zm81.56-6.68-2.55-1.59c1.22-2,2.4-4,3.52-6l2.62,1.46C132.69,83.87,131.48,85.92,130.24,87.92ZM38.3,85C36.61,83.36,35,81.65,33.38,80l2.19-2c1.55,1.66,3.18,3.33,4.85,5Zm98.82-9.48-2.69-1.33c1-2.06,2-4.18,2.91-6.28l2.76,1.19C139.17,71.29,138.17,73.45,137.12,75.56ZM28.68,74.68l-1.37-1.63L28,69.89c.23-1,.48-2.06.74-3.07l2.91.74c-.25,1-.5,2-.73,3l-.39,1.7.41.49Zm114.06-12.1-2.8-1c.8-2.16,1.56-4.36,2.26-6.54l2.86.91C144.35,58.13,143.57,60.38,142.74,62.58ZM33.57,60.9,30.71,60c.71-2.26,1.48-4.52,2.29-6.7l2.81,1C35,56.49,34.26,58.69,33.57,60.9ZM144.09,49.69,142.8,48c-.11-.15-1.16-1.52-3.05-3.69l2.26-2c1.92,2.19,3,3.59,3.18,3.85l1.29,1.69ZM38.41,48l-2.75-1.21c.94-2.15,2-4.31,3-6.4l2.68,1.35C40.32,43.73,39.33,45.84,38.41,48ZM135,39.24c-1.6-1.63-3.27-3.26-5-4.83l2-2.2c1.74,1.6,3.45,3.26,5.08,4.93ZM44.63,35.6,42,34.1c1.18-2,2.43-4.07,3.71-6l2.51,1.64C47,31.62,45.78,33.61,44.63,35.6Zm80.23-5.77c-1.77-1.49-3.59-2.94-5.42-4.32l1.82-2.39c1.86,1.41,3.72,2.89,5.53,4.41ZM52.2,24l-2.42-1.78c1.4-1.9,2.87-3.78,4.37-5.58l2.31,1.91C55,20.33,53.56,22.17,52.2,24Zm61.62-2.56c-1.91-1.3-3.87-2.56-5.82-3.75l1.56-2.56c2,1.22,4,2.51,6,3.84ZM102,14.28c-2-1.09-4.11-2.13-6.18-3.1l1.26-2.72c2.12,1,4.26,2.06,6.34,3.17Zm-41-.89-2.19-2.05c1.66-1.77,3.36-3.46,5-5l2,2.2C64.29,10,62.65,11.67,61,13.39ZM89.46,8.46C87.3,7.61,85.12,6.82,83,6.12l.93-2.86c2.21.72,4.46,1.53,6.67,2.41ZM76.33,4.19c-.81-.21-1.62-.41-2.44-.6l-1.56-.36-1.19.87L69.37,1.68,71.66,0l2.9.67c.85.2,1.69.4,2.52.62Z"/><path class="cls-2" d="M106.77,19.71S66,72.23,58.77,94.5l3,2.37S106.12,23.94,111,22.1Z"/><path class="cls-2" d="M46.22,38.74s54.13,41.16,77.13,48.18l2.11-3.27S50.61,39.32,48.81,34.33Z"/><path class="cls-2" d="M71.43,26.77c-3.47,1-4.07,9.37-1.32,18.63s7.78,15.93,11.26,14.9,4.06-9.37,1.32-18.63S74.9,25.74,71.43,26.77Zm8.72,29.41c-2.21.65-5.67-4.48-7.74-11.46s-2-13.18.24-13.83,5.67,4.48,7.74,11.46S82.35,55.53,80.15,56.18Z"/><path class="cls-2" d="M114.1,51.21c-1-3.48-9.37-4.07-18.63-1.32s-15.93,7.78-14.9,11.26,9.37,4.06,18.63,1.31S115.13,54.68,114.1,51.21ZM84.69,59.92c-.66-2.2,4.48-5.66,11.46-7.73s13.18-2,13.83.24-4.48,5.66-11.46,7.73S85.34,62.13,84.69,59.92Z"/><path class="cls-2" d="M90.55,93.53c3.47-1,4.06-9.37,1.32-18.64S84.08,59,80.61,60s-4.06,9.37-1.32,18.63S87.08,94.56,90.55,93.53ZM81.83,64.11c2.21-.65,5.67,4.48,7.74,11.47s2,13.17-.24,13.83-5.67-4.48-7.74-11.47S79.63,64.76,81.83,64.11Z"/><path class="cls-2" d="M47.88,69.09c1,3.47,9.37,4.06,18.63,1.31s15.93-7.78,14.9-11.25S72,55.08,62.78,57.83,46.85,65.61,47.88,69.09Zm29.41-8.72c.65,2.2-4.48,5.67-11.46,7.74s-13.18,2-13.83-.25,4.48-5.66,11.46-7.73S76.64,58.16,77.29,60.37Z"/><path d="M.21,102l3.1-3.26,3.1-3.26q1.66-1.8,5-5.53t5-5.53l.14-.16a7.86,7.86,0,0,1,1.33-1.17,1.11,1.11,0,0,1,1.53.07,5.21,5.21,0,0,1,1.87,4,6.26,6.26,0,0,1-1.85,4.22,7.81,7.81,0,0,1-3,1.93,7.15,7.15,0,0,1-3.35.55,8.57,8.57,0,0,1-.19,4.82A11.9,11.9,0,0,1,10.21,103a8,8,0,0,1-2.8,1.75,6.77,6.77,0,0,1-4.33.43A5.19,5.19,0,0,1,.93,104l-.11-.1C0,103.09-.21,102.49.21,102Zm5.49,1.49a5.39,5.39,0,0,0,3-1.73,16.54,16.54,0,0,0,1.89-2.46,6.93,6.93,0,0,0,.93-2.06,9,9,0,0,0,.2-1.4,2.37,2.37,0,0,0-.09-.93l-.14-.28-1-.89q-2.72,3.21-8.07,9A4.17,4.17,0,0,0,5.7,103.53Zm8.6-11.38A15.46,15.46,0,0,0,16.74,91a7.91,7.91,0,0,1,1-.51l.87-.94a3.45,3.45,0,0,0,.85-2.11,2.31,2.31,0,0,0-.66-2c-.25-.23-.63-.07-1.14.49-1.09,1.18-2.05,2.26-2.87,3.22l-2.7,3A2.58,2.58,0,0,0,14.3,92.15Z"/><path d="M8.7,109c.37-.45.85-.43,1.43,0l.31.25.26.27a.43.43,0,0,0,.43.11,1.38,1.38,0,0,0,.5-.44c.26-.32.66-.83,1.18-1.54.31-.5.91-1.36,1.8-2.59q3.3-4.53,5.12-6.73c.43-.53.84-1,1.22-1.42l1.21-1.41a16.47,16.47,0,0,0,1.2-1.62,4.07,4.07,0,0,1-.75-.43.77.77,0,0,1-.12-1.23.94.94,0,0,1,.92-.25,4.18,4.18,0,0,1,1.37.52A13.19,13.19,0,0,1,27,94a1,1,0,0,1,.38.71,1,1,0,0,1-.21.75,1.06,1.06,0,0,1-.63.39.73.73,0,0,1-.65-.16,1.59,1.59,0,0,1-.26-.26l-.22-.19a.78.78,0,0,0-.52-.21.92.92,0,0,0-.51.36c-1.5,1.83-3.66,4.67-6.45,8.52-.52.71-1.27,1.77-2.24,3.18a32.94,32.94,0,0,1-2.05,2.77l-.89,1.07a5,5,0,0,1,.59.44c.79.65.92,1.31.38,2l-.14.17-1.11-.11-.19-.13-.59-.47q-.95-.69-1.2-.9C8.82,110.52,8.23,109.57,8.7,109Z"/><path d="M20.73,118.48a19.32,19.32,0,0,1,1.43-3.82l.53-1.15c1.52-3.22,2.34-5.08,2.48-5.59l-.35-.26c-.43.57-.82,1.08-1.19,1.53l-1.2,1.62a32.83,32.83,0,0,0-4,6.54l-.91.55-.82-.61-.06-.72,1.5-1.94q2-2.66,5.7-8.21,4-5.9,5.72-8.18c.7-.94,1.38-1.17,2-.69a4.91,4.91,0,0,1,2,2.75,3.45,3.45,0,0,1-.69,3l-1.53,2.06a5.08,5.08,0,0,1-.9.9,6.08,6.08,0,0,1-1,.69l-1.34.64-1.12.53-.38.81-1.14,2.39q-1.28,2.56-1.94,4.26a16.91,16.91,0,0,0-1,3.25l-.09.48a3,3,0,0,1-.4,1.16,1.07,1.07,0,0,1-.56.38.71.71,0,0,1-.64-.13Q20.21,120.28,20.73,118.48Zm7.7-13.13A11.25,11.25,0,0,0,30.88,103,8.13,8.13,0,0,0,32,101.07,1.72,1.72,0,0,0,32,100a1.77,1.77,0,0,0-.65-.88l-.17.11-.26.22L28.41,103c-.71,1-1.52,2.17-2.41,3.36A3.54,3.54,0,0,0,28.43,105.35Z"/><path d="M27.53,123.9l.76-1.21c.21-.35.46-.75.74-1.17l.72-1q.13-.39,4-7t5-8.41a6.55,6.55,0,0,1-2-1.86.85.85,0,0,1,0-.77.67.67,0,0,1,.62-.23,1.44,1.44,0,0,1,.78.24c.57.38,1.23.88,2,1.5a20.13,20.13,0,0,0,2,1.53l.24.16.24.17c.63.41.79.87.46,1.35a.81.81,0,0,1-.7.39,1.37,1.37,0,0,1-.85-.23,5.76,5.76,0,0,1-.73-.62l-.53-.53-.13.13-.13.13q-1.81,2.72-5.25,9-3.22,5.9-5.27,9a1,1,0,0,1-.75.42,1.24,1.24,0,0,1-.9-.2Z"/><path d="M41.68,126.3l1.09-1.78.88-1.43.06-.09.18-.32a5.32,5.32,0,0,0,.38-.58.25.25,0,0,0,0-.21.27.27,0,0,1,0-.22l0,0a2.11,2.11,0,0,1-.61-.27,5.9,5.9,0,0,1-.93-.72l-.92-.75-2.13,3.63c-.32.55-.79,1.43-1.42,2.64s-1.09,2.08-1.42,2.65a1.7,1.7,0,0,1-.74.67,1,1,0,0,1-.87,0c-.39-.24-.45-.79-.16-1.67a18.15,18.15,0,0,1,1.58-3.27L38.23,122c.44-.7.9-1.45,1.37-2.25l.31-.54.26-.44a6.22,6.22,0,0,0,.36-.68l.09-.16,1.17-1.77c.47-.8,1.13-2,2-3.62s1.53-2.82,2-3.62a1.1,1.1,0,0,1,.64-.52.94.94,0,0,1,.8.09c.67.39.64,1.22-.1,2.48l-2.36,3.88c-.73,1.15-1.53,2.45-2.38,3.9A7.27,7.27,0,0,0,44,119.9l1.17.69a1.54,1.54,0,0,0,.29-.34q.88-1.52,2.44-4.59,1.39-2.91,2.42-4.65a.87.87,0,0,1,.61-.42,1.06,1.06,0,0,1,.79.14,2.16,2.16,0,0,1,.54.53l.21.29q-2.64,4.49-6.7,12.14l-4.4,8.15a1,1,0,0,1-.74.5,1.44,1.44,0,0,1-.92-.2Q38.62,131.51,41.68,126.3Z"/><path d="M46.91,138.92a1,1,0,0,1-.16-1q1.05-.47,2.32-3.69c.51-1.29,1.15-3.22,1.92-5.77s1.32-4.36,1.85-5.72l.81-1.84c.23-.54.49-1.16.77-1.86a12.1,12.1,0,0,0,.61-2.55,10.61,10.61,0,0,1,.43-2.3c.32-.8,1.35-.85,3.09-.16l.52.2a5.2,5.2,0,0,1,2.75,2.38,7.73,7.73,0,0,1,.75,3.48,17.64,17.64,0,0,1-.45,3.75,29.67,29.67,0,0,1-1,3.08L60.72,128l-.63,1.6a.69.69,0,0,0-.18.24,2.61,2.61,0,0,0-.13.42,1.11,1.11,0,0,1-.1.35,13.18,13.18,0,0,1-1.34,2.48,21.27,21.27,0,0,1-2.15,2.71,14.3,14.3,0,0,1-5.53,4,4.08,4.08,0,0,1-2.7,0A2.4,2.4,0,0,1,46.91,138.92Zm5.65-2.32a12.77,12.77,0,0,0,2.75-2.7,27.5,27.5,0,0,0,3.58-6.38,28.91,28.91,0,0,0,1.24-4.15,9.93,9.93,0,0,0-.1-4.44,4.38,4.38,0,0,0-1-1.85,4.56,4.56,0,0,0-1.83-1.25v0Q56,118.92,54,125.28t-3.26,9.48L49.45,138A7.69,7.69,0,0,0,52.56,136.6Z"/><path d="M66.24,146a1,1,0,0,1-.11-1,31.44,31.44,0,0,0,.72-3.68l.08-.78L63.62,139c-.3.49-.82,1.52-1.57,3.07a5.14,5.14,0,0,1-1.35,2.08.86.86,0,0,1-.8.1,1.3,1.3,0,0,1-.69-.49.85.85,0,0,1-.16-.75l.13-.16.08-.13A162.93,162.93,0,0,0,68.1,126c0-.09.09-.25.18-.46s.21-.53.36-.94c.33-.85.61-1.51.85-2a2.71,2.71,0,0,1,.75-1l1.19.36a1.59,1.59,0,0,1,.77.48.77.77,0,0,1,.16.75,63.62,63.62,0,0,0-1.65,8.14,71.77,71.77,0,0,1-1.58,7.78,9.31,9.31,0,0,0-.15,1.14,6.16,6.16,0,0,1-.14,1.1c0,.16-.14.9-.28,2.21a16.34,16.34,0,0,1-.34,2.26v0a1,1,0,0,1-.86.81A2.33,2.33,0,0,1,66.24,146Zm1.11-8.15a79.72,79.72,0,0,0,1.87-8.22l.74-3.75q-4,7.79-5.81,11.81a9.15,9.15,0,0,0,2.92,1.49A7.07,7.07,0,0,1,67.35,137.89Z"/><path d="M74.28,147.68c.37-.44,1-2.44,1.73-6a23,23,0,0,0,.41-2.76l.12-1.06a13,13,0,0,1,.22-1.49l.2-.92c-.11-.65-.3-1.86-.57-3.61s-.49-3.23-.63-4.41a10,10,0,0,1-.11-2.72l0-.18,1-.43c.39.14.71.76.94,1.86A31.44,31.44,0,0,1,78,130c.1,1.75.15,2.67.12,2.76a26.61,26.61,0,0,0,1.16-2.55,39.58,39.58,0,0,1,1.85-3.83c.66-1.07,1.21-1.57,1.64-1.47a1,1,0,0,1,.58.35.73.73,0,0,1,.15.6,20.13,20.13,0,0,1-2.13,4.92,22,22,0,0,0-2.22,5l-2.36,10.75c-.35,1.6-.92,2.31-1.7,2.14C74.7,148.6,74.43,148.26,74.28,147.68Z"/></g></g></svg>