<svg xmlns="http://www.w3.org/2000/svg" viewBox="0 0 81.49 69.61"><defs><style>.cls-1{fill:#272525;}</style></defs><title>Asset 6</title><g id="Layer_2" data-name="Layer 2"><g id="Object"><polygon class="cls-1" points="0 5.33 81.49 0 78.04 37.21 14.44 40.87 0 5.33"/><path class="cls-1" d="M70.87,59.33a5.17,5.17,0,0,0-1.74-4c-1.47-1.26-3.84-1.75-7-1.46l.07-18H60.39l-.08,20.06,1-.14c3.19-.42,5.43-.1,6.65.94a3.48,3.48,0,0,1,1.13,2.72,6.05,6.05,0,0,1-5,5.85c-2.65.51-6.24,1.15-10.14,1.69h0c-5.32.56-10.51.81-14.06.91a6,6,0,0,1-6.18-4.62,3.45,3.45,0,0,1,.51-2.89c1-1.29,3.08-2.09,6.28-2.36l1-.09L37.05,38.31l-1.73.39,4,17.59c-3.18.42-5.38,1.41-6.54,3A5.17,5.17,0,0,0,32,63.56a7.84,7.84,0,0,0,8,6c3.45-.1,8.43-.34,13.61-.87v0c4.19-.57,8.06-1.25,10.88-1.79A7.83,7.83,0,0,0,70.87,59.33Z"/></g></g></svg>