<svg xmlns="http://www.w3.org/2000/svg" viewBox="0 0 238.54 295.33"><defs><style>.cls-1{fill:none;stroke:#4d4d4d;stroke-miterlimit:10;stroke-width:3px;}.cls-2{fill:#ab3629;}.cls-3{fill:#d7624e;}.cls-4{fill:#4d4d4d;}.cls-5{fill:#a7b7ac;}.cls-6{fill:#d79732;}.cls-7{fill:#e6b632;}</style></defs><title>Asset 1</title><g id="Layer_2" data-name="Layer 2"><g id="objects"><path class="cls-1" d="M91.9,180.37l12.52-17.47a4.45,4.45,0,0,1,4.47-1.78h0a4.46,4.46,0,0,1,1.44,8.19Z"/><path class="cls-1" d="M97.48,180.37,91,159.89a4.46,4.46,0,0,0-3.71-3.07h0a4.45,4.45,0,0,0-3.89,7.35Z"/><line class="cls-1" x1="95.73" y1="189.37" x2="95.73"/><path class="cls-2" d="M92.84,249.48,94,253.62a52.53,52.53,0,0,0,25.43,32.29h0a76.51,76.51,0,0,0,38.49,9.4l15.05-.33a2,2,0,0,0,1.34-3.38L140.5,258.5Z"/><path class="cls-2" d="M117.58,185.39l3.61-2.31a52.52,52.52,0,0,1,40.53-6.82h0a76.43,76.43,0,0,1,34.82,18.89l10.93,10.36a2,2,0,0,1-1.28,3.4l-47.25,1.83Z"/><path class="cls-3" d="M140.5,258.5C42,251.29,8.61,197.87.53,181.18A5.29,5.29,0,0,1,3.32,174c17.2-6.93,77.8-24.08,155.62,36.77Z"/><path class="cls-2" d="M.56,181.22a111.41,111.41,0,0,0,21,29l16.83-43.61a112,112,0,0,0-35,7.37A5.32,5.32,0,0,0,.56,181.22Z"/><circle class="cls-4" cx="60.7" cy="199.52" r="19.52" transform="translate(-29.14 11.32) rotate(-8.6)"/><path class="cls-5" d="M65.81,186.28a14.19,14.19,0,1,1-18.35,8.13A14.2,14.2,0,0,1,65.81,186.28Z"/><path class="cls-4" d="M158.94,210.73q-4.49-3.49-8.88-6.65l-20.61,53.39q5.38.61,11.05,1Z"/><path class="cls-6" d="M238.54,268.91s-17.3-32.67-39.92-46.09-41-8.67-41-8.67l-15.8,40.94S152.24,271,178,276.22,238.54,268.91,238.54,268.91Z"/><path class="cls-7" d="M214,259.42S201.44,235.76,185.05,226s-29.69-6.28-29.69-6.28l-11.45,29.65s7.55,11.5,26.21,15.3S214,259.42,214,259.42Z"/><rect class="cls-2" x="142.48" y="187.43" width="10.94" height="93.02" rx="1.59" transform="translate(-123.57 287.71) rotate(-68.89)"/></g></g></svg>