<svg xmlns="http://www.w3.org/2000/svg" viewBox="0 0 383.45 146.63"><defs><style>.cls-1{fill:#bddce0;}.cls-2{fill:#ffafa1;}.cls-3{fill:#a5d1d8;}.cls-4{fill:#534741;}</style></defs><title>Asset 5</title><g id="Layer_2" data-name="Layer 2"><g id="Object"><path class="cls-1" d="M96.39,139.85a10.82,10.82,0,0,1-5.27-1.38l1.17-2.09a8.32,8.32,0,0,0,4.1,1.08Zm1.63-.13-.36-2.36.42-.08a8.43,8.43,0,0,0,3.46-1.6l1.47,1.88a10.68,10.68,0,0,1-4.45,2.06Zm-10.81-5-.17-.29c-.75-1.32-1.52-2.64-2.29-4l2.06-1.21q1.17,2,2.31,4l.12.2Zm19.1-1.46-2.21-.92a8.39,8.39,0,0,0,.6-2.3c.08-.72.16-1.44.26-2.17l2.37.3c-.09.71-.18,1.43-.26,2.14A10.77,10.77,0,0,1,106.31,133.24Zm-24.06-7c-.84-1.38-1.7-2.77-2.56-4.14l2-1.27c.87,1.38,1.72,2.78,2.57,4.17ZM108,123.33l-2.36-.35c.24-1.61.5-3.22.78-4.85l2.35.4C108.49,120.14,108.23,121.74,108,123.33ZM77.07,118q-1.32-2-2.67-4.07l2-1.32q1.36,2,2.69,4.1Zm-49.32-.86-.37-2.36a8,8,0,0,0,1.08-.24c1.15-.34,2.29-.7,3.43-1.06l.73,2.27q-1.72.56-3.48,1.08A11.14,11.14,0,0,1,27.75,117.14Zm-5.42-.54a10.73,10.73,0,0,1-4.45-3.13l1.83-1.54a8.36,8.36,0,0,0,3.46,2.43Zm15-2.43-.81-2.25c1.53-.55,3-1.11,4.55-1.7l.87,2.22C40.37,113,38.84,113.62,37.29,114.17Zm72.34-.43-2.34-.45c.3-1.59.62-3.2.95-4.81l2.34.48C110.25,110.56,109.94,112.15,109.63,113.74Zm-63.17-3.17-.94-2.19c1.49-.64,3-1.3,4.43-2l1,2.17Q48.72,109.61,46.46,110.57Zm25.22-.68q-1.38-2-2.79-4l2-1.38c1,1.33,1.88,2.67,2.81,4Zm-56.15-1.32a10.11,10.11,0,0,1-.2-2,10.77,10.77,0,0,1,.54-3.38l2.27.75a8.37,8.37,0,0,0-.42,2.63,8.66,8.66,0,0,0,.15,1.6Zm39.86-2.15-1.08-2.14q2.17-1.08,4.3-2.25l1.14,2.1C58.31,104.92,56.85,105.68,55.39,106.42Zm56.2-2.23-2.34-.51c.35-1.59.71-3.19,1.07-4.78l2.33.52C112.29,101,111.93,102.6,111.59,104.19ZM89.42,102c-.91-1.34-1.82-2.69-2.75-4l2-1.36q1.39,2,2.76,4Zm-23.36,0-.72-1-1.3.76-1.2-2.06c.73-.43,1.46-.86,2.19-1.31l.94-.56.64.88L68,100.53ZM20.22,99.68l-2.13-1.09c.73-1.43,1.44-2.88,2.15-4.36l2.15,1Q21.33,97.51,20.22,99.68Zm72.87-.36-2.34-.51c.35-1.6.71-3.19,1.07-4.78l2.33.53C93.79,96.15,93.43,97.73,93.09,99.32Zm20.66-4.65-2.33-.55c.37-1.59.75-3.18,1.13-4.76l2.32.55C114.49,91.5,114.12,93.08,113.75,94.67ZM83.88,94Q82.46,92,81,90L83,88.61q1.44,2,2.86,4ZM24.45,90.79l-2.18-1q1-2.19,1.92-4.46l2.21.92Q25.44,88.58,24.45,90.79Zm70.8-1-2.32-.54c.37-1.59.75-3.18,1.13-4.76l2.32.55C96,86.63,95.63,88.22,95.25,89.8Zm-48.12-.63L46.05,87l.24-.12-1.86-.71q.85-2.26,1.7-4.56l2.24.81c-.51,1.41-1,2.81-1.55,4.19,1.18-.61,2.36-1.24,3.51-1.88l1.15,2.09C50.06,87.65,48.6,88.43,47.13,89.17Zm31-3.06c-1-1.3-2-2.59-3-3.88l1.89-1.46c1,1.29,2,2.6,3,3.9Zm37.89-1-2.32-.56,1.15-4.75,2.32.56ZM55.76,84.4l-1.23-2c1.39-.84,2.77-1.7,4.11-2.57l1.3,2C58.58,82.68,57.17,83.56,55.76,84.4ZM28.24,81.72,26,80.85c.59-1.5,1.16-3,1.72-4.55l2.25.82Q29.13,79.46,28.24,81.72ZM97.52,80.3l-2.32-.56L96.35,75l2.32.56ZM72,79.22a8.51,8.51,0,0,0-8-.06l-1.14-2.1a10.93,10.93,0,0,1,10.36.08Zm-22-1.4-2.26-.77q.78-2.28,1.53-4.62l2.27.73C51,74.73,50.52,76.29,50,77.82Zm68.3-2.17L116,75.1c.37-1.58.75-3.17,1.12-4.75l2.33.54C119.06,72.48,118.68,74.07,118.3,75.65ZM31.62,72.5l-2.26-.78c.53-1.52,1-3.06,1.55-4.62l2.27.74Q32.42,70.19,31.62,72.5Zm68.19-1.71-2.32-.56c.38-1.59.75-3.17,1.12-4.75l2.33.54C100.57,67.6,100.19,69.19,99.81,70.79ZM53,68.48l-2.29-.7c.47-1.54.93-3.09,1.38-4.67l2.3.66Q53.71,66.16,53,68.48Zm67.52-2.36-2.33-.53c.36-1.59.71-3.18,1-4.76l2.34.5C121.24,62.93,120.89,64.52,120.53,66.12Zm-85.88-3-2.28-.69q.71-2.31,1.38-4.67l2.29.66C35.59,60,35.12,61.6,34.65,63.15ZM102,61.25l-2.33-.53c.36-1.59.72-3.18,1-4.76l2.34.5C102.75,58.05,102.4,59.64,102,61.25Zm-46.31-2.2-2.31-.63c.42-1.55.83-3.13,1.24-4.71L57,54.3C56.56,55.9,56.14,57.48,55.72,59.05Zm66.88-2.51-2.34-.48c.33-1.6.65-3.19.95-4.78l2.35.45C123.25,53.33,122.93,54.93,122.6,56.54ZM37.36,53.72l-2.31-.62c.42-1.56.83-3.13,1.24-4.72L38.6,49C38.19,50.57,37.78,52.15,37.36,53.72Zm66.74-2.06-2.35-.47c.33-1.6.64-3.2.93-4.78l2.35.43C104.73,48.44,104.42,50.05,104.1,51.66ZM58.15,49.54,55.83,49c.37-1.57.75-3.15,1.11-4.74l2.33.53C58.9,46.37,58.53,48,58.15,49.54Zm66.29-2.64-2.35-.41q.42-2.41.78-4.8l2.36.36C125,43.66,124.72,45.28,124.44,46.9ZM99,46.72l-4.79-1,.51-2.34c1.59.35,3.18.68,4.77,1Zm-9.57-2-4.78-1.08.53-2.33,4.77,1.07Zm-49.62-.46-2.32-.56c.37-1.56.74-3.15,1.09-4.74l2.34.52C40.52,41,40.15,42.63,39.77,44.21Zm40.07-1.73-4.77-1.14L75.64,39c1.57.38,3.15.76,4.75,1.13Zm-9.52-2.32c-1.6-.4-3.19-.8-4.75-1.21l.6-2.31,4.73,1.21Zm-10-.18L58,39.48c.25-1.16.49-2.33.73-3.51L59,34.72l2.47.67-.62,2.31h0ZM123,37.25a8.4,8.4,0,0,0-1.85-3.8L123,31.9a10.77,10.77,0,0,1,2.38,4.89ZM41.92,34.64l-2.34-.5c.33-1.57.66-3.17,1-4.77l2.35.46C42.58,31.45,42.25,33.05,41.92,34.64ZM117.71,31a8.7,8.7,0,0,0-1.35-.38l-3.23-.6.44-2.35,3.22.61a11.57,11.57,0,0,1,1.75.47Zm-9.39-1.92-4.8-1,.48-2.34,4.78,1Zm-9.6-2-4.79-1,.52-2.34,4.77,1ZM89.16,25q-2.4-.54-4.77-1.11l.54-2.32,4.76,1.1ZM43.82,25l-2.35-.44.42-2.3a10.92,10.92,0,0,1,.87-2.72l2.16,1a8.26,8.26,0,0,0-.68,2.11C44.11,23.47,44,24.25,43.82,25Zm35.8-2.25L74.87,21.6l.58-2.32,4.74,1.17Zm-9.5-2.39c-1.61-.41-3.19-.83-4.74-1.25L66,16.82c1.55.42,3.12.84,4.72,1.25Zm-9.46-2.55q-2.43-.67-4.72-1.35l.68-2.29,4.68,1.34Zm-13-.48-1.38-2,.57-.38a10.91,10.91,0,0,1,4.52-1.54l.25,2.38a8.42,8.42,0,0,0-3.51,1.19Z"/><path class="cls-2" d="M219.39,146.63a10.75,10.75,0,0,1-5.26-1.37l1.17-2.09a8.35,8.35,0,0,0,4.09,1.07Zm1.66-.13-.37-2.36a8.52,8.52,0,0,0,2.24-.68,8.42,8.42,0,0,0,1.64-1l1.48,1.88a10.76,10.76,0,0,1-5,2.17Zm-10.84-4.69c-1.12-1.19-2.24-2.36-3.37-3.53l1.71-1.66q1.71,1.77,3.39,3.55Zm-62.76-1.12-.37-2.36a8.36,8.36,0,0,0,2.86-1l1.2-.7,1.21,2.07-1.22.71A10.78,10.78,0,0,1,147.45,140.69Zm-5.42-.54a10.81,10.81,0,0,1-2.8-1.55,11.15,11.15,0,0,1-1.65-1.57l1.82-1.55a8.28,8.28,0,0,0,1.29,1.22,8.16,8.16,0,0,0,2.18,1.21Zm87.29-.16-2.21-.91a8.29,8.29,0,0,0,.58-4.19l2.37-.29a9.26,9.26,0,0,1,.08,1.28A10.73,10.73,0,0,1,229.32,140Zm-72.76-3.86-1.27-2q2.06-1.29,4.07-2.64l1.33,2Q158.65,134.83,156.56,136.13Zm46.86-1.32c-1.14-1.15-2.3-2.29-3.46-3.43l1.67-1.71q1.76,1.71,3.49,3.45Zm-68.2-2.68a11,11,0,0,1-.2-2.06,10.65,10.65,0,0,1,.36-2.75l.15-.55,2.31.59-.15.57a8.61,8.61,0,0,0-.28,2.14,7.89,7.89,0,0,0,.16,1.6Zm29.52-1.49-1.39-1.94c1.31-.94,2.61-1.91,3.89-2.89l1.46,1.9C167.39,128.71,166.07,129.68,164.74,130.64Zm62.43-.64c-.15-1.62-.29-3.26-.4-4.91l2.38-.16c.11,1.63.25,3.24.4,4.84Zm-30.72-2c-1.18-1.11-2.36-2.22-3.56-3.32l1.62-1.76c1.21,1.11,2.4,2.22,3.59,3.35Zm-23.89-3.35-1.51-1.85q1.88-1.53,3.71-3.12l1.57,1.8Q174.47,123.1,172.56,124.65ZM139,122.59l-2.33-.54c.36-1.56.71-3.14,1-4.75l2.34.48C139.72,119.41,139.38,121,139,122.59Zm50.28-1.19q-1.81-1.64-3.65-3.23l1.57-1.8q1.84,1.6,3.68,3.25Zm37.18-1.21c-.08-1.62-.16-3.26-.21-4.9l2.38-.09c.06,1.63.13,3.26.21,4.87Zm-46.48-2-1.62-1.75q1.74-1.62,3.43-3.28l.8-.78.83.74-.74.94.79.8Q181.76,116.56,180,118.19Zm29.48-4.2-2.08-1.94c-1-.92-2-1.83-3-2.74l1.61-1.76,3,2.75,0,0h.38ZM141,113l-2.35-.42c.28-1.58.55-3.18.8-4.8l2.36.37C141.53,109.73,141.26,111.35,141,113Zm85.14-2.56c0-1.63-.06-3.27-.08-4.91l2.39,0c0,1.62.05,3.25.08,4.87ZM161,108.62l-2.36-.34c.22-1.59.44-3.2.64-4.82l2.37.29C161.47,105.39,161.25,107,161,108.62Zm3-1.74-1.57-1.8c1.21-1.06,2.42-2.15,3.59-3.25l1.64,1.75C166.45,104.69,165.22,105.8,164,106.88Zm36.82-.83q-1.81-1.62-3.66-3.22l1.56-1.8q1.86,1.6,3.69,3.23Zm6.11-.58c0-1.63,0-3.27,0-4.9h2.39c0,1.63,0,3.25,0,4.88Zm-64.44-2.24-2.37-.31c.21-1.59.41-3.2.59-4.83l2.38.27C142.88,100,142.68,101.63,142.47,103.23ZM226,100.59c0-1.36,0-2.71,0-4.07v-.83h2.39v.83c0,1.35,0,2.71,0,4Zm-54.82-.45-1.69-1.68c1.13-1.14,2.26-2.31,3.36-3.5l1.75,1.62C173.47,97.79,172.32,99,171.17,100.14Zm22.27-.47q-1.87-1.58-3.75-3.12l1.52-1.84c1.26,1,2.52,2.08,3.77,3.13Zm-31.21-.8-2.37-.25c.16-1.6.32-3.22.46-4.85l2.38.21C162.56,95.63,162.4,97.26,162.23,98.87Zm47-3.19h-2.39c0-1.64,0-3.27,0-4.9h2.39C209.26,92.42,209.26,94.05,209.25,95.68ZM186,93.7a8.53,8.53,0,0,0-8.06-.08l-1.13-2.1a11,11,0,0,1,10.36.09Zm-42.43-.23-2.38-.22c.15-1.6.28-3.22.4-4.85l2.38.18C143.84,90.22,143.71,91.85,143.56,93.47Zm84.82-2.66H226l0-4.9,2.39,0Zm-65.29-1.72-2.39-.17c.12-1.61.22-3.23.31-4.86l2.38.13C163.3,85.83,163.2,87.47,163.09,89.09Zm43.81-3.2,0-4.88h2.39l0,4.78Zm-62.62-2.21-2.38-.14c.09-1.6.17-3.23.23-4.86l2.39.09C144.45,80.42,144.38,82.06,144.28,83.68ZM228.43,81H226c0-1.62,0-3.25,0-4.88h2.39C228.44,77.77,228.43,79.4,228.43,81Zm-64.81-1.75-2.38-.09c.06-1.61.11-3.24.15-4.87l2.39.06C163.74,76,163.69,77.66,163.62,79.28Zm45.7-3.16h-2.39v-.33c0-1.52,0-3,0-4.55h2.39c0,1.51,0,3,0,4.56Zm-64.64-2.25-2.39-.06c0-1.61.06-3.23.08-4.87l2.39,0C144.74,70.61,144.72,72.25,144.68,73.87ZM226,71.25c0-1.62,0-3.25,0-4.88l2.39,0c0,1.63,0,3.27,0,4.9Zm-62.17-1.78-2.39,0c0-1.32,0-2.65,0-4v-.87h2.39v.88C163.89,66.79,163.88,68.14,163.87,69.47Zm43-3.11c0-1.64-.05-3.26-.09-4.88l2.39-.06c0,1.63.07,3.26.09,4.91Zm-64.48-2.29c0-1.61,0-3.24-.06-4.87l2.39,0c0,1.64.05,3.28.06,4.9ZM225.9,61.5c0-1.63-.09-3.25-.15-4.87l2.39-.09c.06,1.63.11,3.26.15,4.9Zm-64.44-1.81c0-1.61-.06-3.23-.11-4.87l2.39-.06c0,1.64.08,3.28.11,4.9Zm45.17-3.08c0-.53,0-1.06-.07-1.6l-.92,0-.08-2.38,3.27-.11.06,1.17c.05.93.09,1.87.12,2.8Zm-25.48-1.23q-2.46,0-4.89,0l0-2.39c1.61,0,3.24,0,4.88,0Zm4.9,0V53l4.88,0,0,2.39Zm-14.69-.09-4.9-.11.06-2.39,4.88.11Zm24.49,0,0-2.39,4.88-.1.06,2.39Zm-53.63-1c-.05-1.62-.11-3.24-.18-4.88l2.39-.1c.07,1.65.13,3.28.18,4.9Zm83.32-2.57c-.09-1.62-.19-3.24-.3-4.85l2.38-.17c.12,1.62.22,3.26.3,4.9Zm-83.73-7.18v-.14c0-.19,0-.38,0-.58a10.78,10.78,0,0,1,1-4.6l2.16,1a8.37,8.37,0,0,0-.81,3.58c0,.15,0,.3,0,.46v.14Zm83-2.39a8.35,8.35,0,0,0-1.85-3.8l1.81-1.56a10.87,10.87,0,0,1,2.38,4.89ZM147.7,37l-1.38-1.95a10.7,10.7,0,0,1,5.08-1.92l.26,2.38A8.29,8.29,0,0,0,147.7,37Zm38-.77V33.88l4.88,0,0,2.39Zm-4.9,0-4.9,0,0-2.39,4.88,0Zm14.69-.1,0-2.39,4.88-.1.06,2.39Zm-24.48,0-4.9-.11.06-2.39c1.61.05,3.23.08,4.88.11ZM219.48,36a8.29,8.29,0,0,0-3.28-.49l-1.08,0L215,33.16l1.07,0a10.8,10.8,0,0,1,4.21.63Zm-14.15-.06-.08-2.39,4.88-.17.09,2.39Zm-44.08,0-4.9-.2.12-2.39c1.58.08,3.21.14,4.87.21Z"/><path class="cls-3" d="M271.64,131.31a10.56,10.56,0,0,1-4.22-.87,9.11,9.11,0,0,1-1-.51l1.17-2.08a7.55,7.55,0,0,0,.81.39,8.27,8.27,0,0,0,3.28.68Zm1.62-.13-.36-2.36a8.32,8.32,0,0,0,3.89-1.67l1.47,1.88A10.72,10.72,0,0,1,273.26,131.18Zm-10.8-5a10.88,10.88,0,0,1-1.56-5.21l2.39-.08a8.42,8.42,0,0,0,1.21,4Zm19.43-.63-1.71-1.67c1.13-1.15,2.25-2.33,3.34-3.52l1.76,1.62Q283.62,123.76,281.89,125.52Zm62.45-6.86a10.77,10.77,0,0,1-5.25-1.4l1.18-2.08a8.36,8.36,0,0,0,4.08,1.09Zm-55.78-.38-1.81-1.57q1.59-1.83,3.12-3.71l1.85,1.5C290.69,115.78,289.63,117,288.56,118.28Zm61.05-1-1.16-2.09a8,8,0,0,0,1.24-.85,7.88,7.88,0,0,0,1.82-2.08l2,1.26a10.87,10.87,0,0,1-3.94,3.76ZM260.87,116c0-1.6-.08-3.22-.16-4.85l2.39-.11c.07,1.66.13,3.3.16,4.92Zm74-1.4c-1.38-.86-2.76-1.71-4.16-2.55l1.24-2c1.4.84,2.79,1.7,4.18,2.56Zm-40.15-4-1.9-1.45c1-1.28,1.94-2.59,2.88-3.9l1.95,1.39C296.73,108,295.76,109.32,294.76,110.63Zm31.8-1q-2.1-1.23-4.22-2.43l1.18-2.08c1.42.8,2.84,1.62,4.25,2.44Zm28.58-1.25-2.39-.11c0-.11,0-.22,0-.34a8.28,8.28,0,0,0-.58-3l-.34-.89,2.23-.85.34.87a10.64,10.64,0,0,1,.74,3.9C355.15,108.05,355.14,108.2,355.14,108.35Zm-94.71-2c-.11-1.6-.24-3.22-.4-4.85l2.38-.22c.16,1.65.29,3.28.4,4.9Zm57.66-1.54q-2.14-1.17-4.29-2.31l1.12-2.11c1.44.77,2.88,1.54,4.31,2.33Zm-17.6-2.18-2-1.33c.9-1.34,1.77-2.7,2.63-4.07l2,1.26Q301.86,100.57,300.49,102.61Zm9-2.38q-2.18-1.11-4.36-2.19l1.06-2.14c1.47.72,2.93,1.46,4.39,2.2Zm40.66-.87q-.81-2.3-1.58-4.65l2.27-.75c.51,1.56,1,3.09,1.57,4.61Zm-90.61-2.71c-.19-1.6-.39-3.21-.62-4.83l2.37-.32c.23,1.64.43,3.26.62,4.87Zm19.08-1.33c-.18-1.59-.38-3.2-.59-4.83l2.37-.31c.21,1.64.41,3.26.6,4.88Zm4.37-1L281,93c.91-1.31,1.82-2.67,2.7-4l2,1.3C284.84,91.64,283.91,93,283,94.35ZM347.07,90q-.72-2.33-1.41-4.7l2.3-.67c.45,1.57.92,3.13,1.39,4.67Zm-20.81-3c-.44-1.57-.88-3.14-1.3-4.72l2.3-.63q.64,2.36,1.3,4.7Zm-68.05,0c-.25-1.59-.52-3.19-.8-4.8l2.35-.42c.29,1.63.56,3.25.81,4.85Zm30.12-.94-2.05-1.22c.83-1.39,1.64-2.8,2.41-4.21l2.09,1.16C290,83.22,289.17,84.66,288.33,86.07Zm-11-.4c-.24-1.59-.5-3.19-.77-4.8l2.36-.4c.27,1.63.53,3.24.77,4.85Zm45.28-.14c-1.43-.76-2.87-1.52-4.32-2.26l1.09-2.12q2.19,1.11,4.35,2.27ZM314,81.08c-1.45-.72-2.91-1.44-4.38-2.14l1-2.15q2.2,1,4.4,2.15Zm30.37-.48c-.44-1.57-.87-3.14-1.29-4.73l2.31-.61c.42,1.57.84,3.14,1.28,4.7Zm-51.15-2.75-1.79-1.59a10.82,10.82,0,0,1,4.54-3l.77,2.26A8.49,8.49,0,0,0,293.17,77.85Zm30.53-.3q-.63-2.37-1.23-4.74l2.31-.59L326,77Zm-67.17-.13c-.31-1.58-.63-3.17-1-4.77l2.34-.49c.34,1.61.66,3.21,1,4.81Zm48.64-.56-2.3-1a8.12,8.12,0,0,0-2-.62l.43-2.35a11.34,11.34,0,0,1,2.52.79l2.31,1.06Zm-29.45-.79c-.29-1.58-.6-3.17-.93-4.78l2.35-.47c.32,1.62.63,3.22.93,4.82Zm66.06-4.93c-.41-1.58-.82-3.16-1.22-4.74l2.31-.59c.41,1.57.81,3.15,1.22,4.72Zm-20.52-3.07-1.19-4.74,2.32-.58,1.19,4.74Zm-66.74-.18q-.54-2.36-1.11-4.74l2.32-.56c.39,1.6.76,3.19,1.12,4.77Zm19.27-1.37c-.34-1.57-.7-3.15-1.07-4.75l2.33-.54c.37,1.61.73,3.2,1.08,4.79Zm65.57-4.87-1.19-4.74,2.32-.58,1.19,4.74Zm-20.48-3.06-1.2-4.74,2.32-.59L321.2,58Zm-66.66-.17c-.4-1.56-.82-3.13-1.25-4.71l2.31-.62q.65,2.38,1.26,4.74ZM271.59,57c-.39-1.56-.79-3.13-1.21-4.72l2.32-.6c.41,1.59.81,3.18,1.2,4.75ZM337,52.17l-1.2-4.73,2.31-.6c.41,1.58.81,3.17,1.21,4.75Zm-20.51-3.05c-.41-1.58-.83-3.15-1.25-4.71l2.31-.63c.42,1.57.84,3.15,1.25,4.74Zm-66.8-.1q-.66-2.33-1.36-4.68l2.29-.68q.71,2.36,1.37,4.7Zm19.46-1.41q-.64-2.34-1.32-4.7l-.35-1.22,1.24-.27,4.6-1,.53,2.33-3.37.76c.33,1.17.65,2.34,1,3.5Zm65.42-4.9c-.42-1.57-.84-3.14-1.27-4.71l2.31-.63c.43,1.58.85,3.15,1.27,4.73Zm-56-1.12L278,39.26l4.74-1.15.57,2.32Zm35.33-1.89c-.45-1.57-.89-3.13-1.35-4.68l2.29-.68q.69,2.34,1.36,4.72Zm-67.05,0-.34-1.08a10.72,10.72,0,0,1-.49-3.23c0-.32,0-.63,0-.94l2.38.21c0,.24,0,.48,0,.73a8.53,8.53,0,0,0,.38,2.51l.34,1.09Zm41.24-.44-.59-2.32c1.57-.4,3.15-.8,4.73-1.22l.6,2.31Zm9.48-2.48L297,34.45l4.71-1.28.63,2.3C300.74,35.91,299.16,36.34,297.59,36.76ZM307,34.15l-.65-2.3,4.69-1.34.66,2.29Q309.39,33.49,307,34.15ZM332,33.31c-.45-1.57-.9-3.13-1.37-4.68l2.29-.69q.71,2.34,1.38,4.71Zm-82.09-2.66-2-1.34a10.74,10.74,0,0,1,4.1-3.58l1.06,2.14A8.47,8.47,0,0,0,249.88,30.65Zm7.6-3.95L257,24.36l4.77-1,.5,2.34C260.65,26.05,259,26.38,257.48,26.7Zm9.59-2.06-.53-2.33c1.57-.35,3.15-.72,4.76-1.1l.54,2.33C270.23,23.92,268.64,24.29,267.07,24.64Zm62.1-.67c-.49-1.55-1-3.1-1.51-4.62l2.27-.77c.52,1.54,1,3.1,1.52,4.67ZM276.61,22.4,276,20.08l4.74-1.17.58,2.32Zm9.5-2.38-.6-2.32c1.57-.4,3.15-.81,4.72-1.23l.62,2.31Zm9.47-2.52L295,15.19c1.57-.42,3.14-.86,4.7-1.3l.65,2.3ZM326,15.06a8.33,8.33,0,0,0-3.06-2.92l1.17-2.09A10.74,10.74,0,0,1,328,13.81Zm-21-.21-.66-2.3L309,11.19l.68,2.29Zm9.4-2.79-.7-2.28,2-.61a11.23,11.23,0,0,1,3.14-.48v2.39a8.45,8.45,0,0,0-2.44.38Z"/><path class="cls-4" d="M.26,16.21C-.49,18.76.29,22,3.77,23,51.72,37.15,101.31,51.8,152.84,55c43.27,2.65,90.84-3.07,149.71-18A463.57,463.57,0,0,0,380.71,9.77a4.22,4.22,0,0,0,2.72-3.49,6,6,0,0,0-2.61-5.21,5.5,5.5,0,0,0-5.65-.52c-39,17.79-83,30.07-138.46,38.65-28.81,4.45-52.58,6.18-74.79,5.44C139.27,43.88,115,40.56,87.61,34.5,60,28.38,32.83,20.37,6.6,12.62,3.25,11.63,1,13.71.26,16.21Z"/><path class="cls-1" d="M115.79,35.43A631.45,631.45,0,0,1,53.43,20.72a3.5,3.5,0,0,0-1.92,0A2.9,2.9,0,0,0,49,23.22C43.9,51.34,36.36,79.31,23,104.71c-1.4,2.66.93,6.22,4,5.27A158.27,158.27,0,0,0,67.09,91.33a374.77,374.77,0,0,1,26.2,39.57c1.93,3.35,6.29,1.5,6.68-1.81,3.55-30.23,13.8-59.18,18.32-89.25C118.56,38.06,117.87,35.82,115.79,35.43Z"/><path class="cls-2" d="M223,135.88c-3.53-30.57-.24-61.41-2.78-92a3.65,3.65,0,0,0-3.58-3.59,631,631,0,0,1-64.07,0A3.38,3.38,0,0,0,149,43.86c1.48,28.55.55,57.46-6.63,85.25a3.62,3.62,0,0,0,5.26,4,157.47,157.47,0,0,0,34.62-27.29,375.19,375.19,0,0,1,34.65,32.54C218.83,140.52,223.34,139,223,135.88Z"/><path class="cls-3" d="M347.85,107c-11-28.73-15.48-59.42-25.54-88.46A3.65,3.65,0,0,0,317.9,16a628.83,628.83,0,0,1-62.07,15.92A3,3,0,0,0,253.39,34a3.32,3.32,0,0,0-.06,2.3c8.53,27.29,14.78,55.52,14.73,84.23a3.62,3.62,0,0,0,6.12,2.54,157.28,157.28,0,0,0,26.73-35A374,374,0,0,1,342.58,111C345.07,112.58,349,109.91,347.85,107Z"/></g></g></svg>