<svg xmlns="http://www.w3.org/2000/svg" viewBox="0 0 87.24 341.07"><defs><style>.cls-1{fill:none;stroke:#4d4d4d;stroke-miterlimit:10;stroke-width:3px;}.cls-2{fill:#d79732;}</style></defs><title>Asset 3</title><g id="Layer_2" data-name="Layer 2"><g id="objects"><path class="cls-1" d="M44.72,264.07l-9.47-12.95a3.33,3.33,0,0,0-3.35-1.29h0a3.32,3.32,0,0,0-1,6.12Z"/><path class="cls-1" d="M40.56,264.11l4.72-15.33A3.33,3.33,0,0,1,48,246.46h0a3.32,3.32,0,0,1,3,5.45Z"/><line class="cls-1" x1="43.62" y1="272.62" x2="43.62"/><path class="cls-2" d="M46.53,259.59l11,22.22a3.21,3.21,0,0,0,2.44,1.77l24.51,3.57a3.24,3.24,0,0,1,1.8,5.54L68.52,310a3.23,3.23,0,0,0-.94,2.87l4.19,24.42a3.25,3.25,0,0,1-4.71,3.42L45.13,329.16a3.29,3.29,0,0,0-3,0L20.18,340.69a3.25,3.25,0,0,1-4.71-3.42l4.19-24.42a3.23,3.23,0,0,0-.94-2.87L1,292.69a3.25,3.25,0,0,1,1.8-5.54l24.52-3.57a3.21,3.21,0,0,0,2.44-1.77l11-22.22A3.25,3.25,0,0,1,46.53,259.59Z"/></g></g></svg>