<svg xmlns="http://www.w3.org/2000/svg" xmlns:xlink="http://www.w3.org/1999/xlink" viewBox="0 0 256.64 487.68"><defs><style>.cls-1{isolation:isolate;}.cls-2{opacity:0.8;fill:url(#radial-gradient);}.cls-2,.cls-3{mix-blend-mode:multiply;}.cls-3{opacity:0.3;fill:url(#radial-gradient-2);}.cls-4{fill:url(#radial-gradient-3);}.cls-5{fill:url(#radial-gradient-4);}.cls-6{fill:#d1d3d4;}</style><radialGradient id="radial-gradient" cx="543.65" cy="481.6" r="88.19" gradientTransform="matrix(-1.06, 0.03, 0.02, 0.62, 661.5, 109.56)" gradientUnits="userSpaceOnUse"><stop offset="0" stop-color="gray"/><stop offset="0.04" stop-color="#848484" stop-opacity="0.95"/><stop offset="0.5" stop-color="#abaaaa" stop-opacity="0.44"/><stop offset="0.83" stop-color="#c3c2c2" stop-opacity="0.12"/><stop offset="1" stop-color="#cccbcb" stop-opacity="0"/></radialGradient><radialGradient id="radial-gradient-2" cx="722.92" cy="327.86" r="18.08" gradientTransform="matrix(-1, 0, 0, 1, 868.64, 0)" gradientUnits="userSpaceOnUse"><stop offset="0" stop-color="#dedede"/><stop offset="1" stop-color="#454545"/></radialGradient><radialGradient id="radial-gradient-3" cx="750.15" cy="573.2" r="275.99" gradientTransform="matrix(-1.01, 0, 0, 1.02, 871.6, -2.75)" gradientUnits="userSpaceOnUse"><stop offset="0" stop-color="#fff"/><stop offset="0.37" stop-color="#fcfcfc"/><stop offset="0.68" stop-color="#f1f2f2"/><stop offset="0.98" stop-color="#e0e2e3"/><stop offset="1" stop-color="#dee0e1"/></radialGradient><radialGradient id="radial-gradient-4" cx="757.19" cy="571.64" r="270.54" gradientTransform="matrix(-1, 0, 0, 1, 868.64, 0)" gradientUnits="userSpaceOnUse"><stop offset="0" stop-color="#fff"/><stop offset="0.63" stop-color="#e6e7e8"/><stop offset="0.83" stop-color="#d7d9da"/><stop offset="1" stop-color="#d1d3d4"/></radialGradient></defs><title>Asset 3</title><g class="cls-1"><g id="Layer_2" data-name="Layer 2"><g id="OBJECTS"><path class="cls-2" d="M1.08,428.08c1.09,34.53,44.65,61.18,97.3,59.52s94.46-31,93.37-65.51-44.64-61.18-97.29-59.52S0,393.55,1.08,428.08Z"/><path class="cls-3" d="M152.64,320.6a12,12,0,0,0-9.51-11.73,12,12,0,1,1,0,23.46A12,12,0,0,0,152.64,320.6Z"/><path class="cls-4" d="M4.71,405.74c5.69,10.56,15.16,17,24.84,17,2,3.08,8.65,11.59,22.3,11.16a39.18,39.18,0,0,0,11.32-2.19c2.93,5.47,14.2,22.89,38.75,22.11a56.09,56.09,0,0,0,8.28-.89c25.21-4.54,32.37-15.2,34.4-21.23,4.38,4.72,14.1,12.92,28.31,12.47a36.66,36.66,0,0,0,6.35-.76c18.92-3.94,22.82-18.29,23.63-23.95a62.33,62.33,0,0,0,13.87,1.13c11.56-.36,27.15-4.32,35.7-21.09,6.26-12.27,5.45-26.79-2.17-38.82-6.44-10.19-16.67-16.32-26.68-16a25.15,25.15,0,0,0-3,.28c-1.69-4.9-7.9-18.2-25.29-17.65a40.51,40.51,0,0,0-7.73,1.05c-1.72-7.82-10.15-34.89-44.29-34.92-.83,0-1.65,0-2.45,0-28.22.89-38.51,17.66-41.2,23.34A53.47,53.47,0,0,0,80,313.46c-9.49.3-17.52,3.56-23.87,9.7-14.09,13.63-13.92,26.82-13,32.37-1.27-.07-2.94-.11-4.88,0-8.45.26-24,2.68-33.23,15.85C-1.56,380.71-1.67,393.89,4.71,405.74ZM133.6,320.41a12.16,12.16,0,1,1,12.16,12.18A12.17,12.17,0,0,1,133.6,320.41Z"/><path class="cls-5" d="M32,420s8.88,17.51,33,8.41c0,0,11.42,27.42,45.13,21.36s33.16-23.26,33.16-23.26,12.8,18.49,34.89,13.9,22-24,22-24,34.75,9.46,48.88-18.21c13-25.53-9-55.84-31-50.7,0,0-5.19-23.73-32.73-16.2,0,0-4.25-34.76-42.21-34.79-34.46,0-42,23.55-42,23.55s-25.36-11.43-42.62,5.23-11.76,32.59-11.76,32.59S21,354.26,8.24,372.44,11.43,421.23,32,420ZM133.63,320.6a12,12,0,1,1,12,12A12,12,0,0,1,133.63,320.6Z"/><path class="cls-6" d="M143.13,308.73a1.33,1.33,0,0,0,1.33,1.32h0a1.32,1.32,0,0,0,1.32-1.32V294.22a1.32,1.32,0,0,0-1.32-1.33h0a1.33,1.33,0,0,0-1.33,1.33Z"/><path class="cls-6" d="M162.26,282.9c1.51-2.42,1.8-4.55.81-6-.63-.92-1.86-1.9-4.86-1.33-6.37,1.2-10.18,5.69-12.18,9.82V0h-3V287.18c-3-4.14-7.45-9.1-14.8-9.35-3-.1-4.3,1.08-4.79,2.08-.75,1.58-.17,3.63,1.69,5.79,2.17,2.52,6.25,5.33,11.64,7.12a38,38,0,0,1-7.21-.36,1.43,1.43,0,1,0-.42,2.83,39.07,39.07,0,0,0,11.64,0c1.11-.17,2.19-.39,3.23-.64a2.23,2.23,0,0,0,.36.05,1.52,1.52,0,0,0,.7-.18c1,.08,2,.13,3.07.13a38.77,38.77,0,0,0,11.46-1.76,1.42,1.42,0,1,0-.83-2.72,38.11,38.11,0,0,1-6.63,1.39A26.69,26.69,0,0,0,162.26,282.9Zm-34.36.93c-1.21-1.4-1.44-2.39-1.3-2.69s.65-.46,1.81-.46h.27c7.58.25,12,6.86,13.82,10.54C135.58,290,130.36,286.69,127.9,283.83ZM146.48,291c1.28-3.93,4.62-11.16,12.1-12.57l.26,0c1.15-.18,1.74,0,1.86.18s.11,1.29-.87,2.86C157.82,284.6,153.14,288.62,146.48,291Z"/></g></g></g></svg>