<svg xmlns="http://www.w3.org/2000/svg" viewBox="0 0 308.28 327.91"><defs><style>.cls-1{isolation:isolate;}.cls-2{fill:#cfd0d2;mix-blend-mode:multiply;}.cls-3{fill:#fdf7d6;}.cls-4{fill:#ece6c9;}.cls-5{opacity:0.8;}.cls-6{fill:#7296b4;}</style></defs><title>Asset 1</title><g class="cls-1"><g id="Layer_2" data-name="Layer 2"><g id="Objects"><polygon class="cls-2" points="15.64 22.92 5 274.98 5 274.98 5 274.98 46.07 317.36 295.93 327.91 308.28 35.27 15.64 22.92"/><polygon class="cls-3" points="303.28 30.27 10.64 17.92 0 269.98 41.07 312.36 290.93 322.91 303.28 30.27"/><polygon class="cls-4" points="41.07 312.36 0 269.98 42.79 271.79 41.07 312.36"/><g class="cls-5"><path class="cls-6" d="M261.78,7.31,116.3,0c-.41,2.22-1.11,4.59-1.25,5.78A162.53,162.53,0,0,0,114,30.14l147.7,7.43c0-6.75,0-13.49.15-20.23C261.9,14.31,261.55,10.63,261.78,7.31Z"/></g></g></g></g></svg>