<svg xmlns="http://www.w3.org/2000/svg" viewBox="0 0 256.61 630.2"><defs><style>.cls-1{fill:#3a3a3a;}</style></defs><title>Asset 1</title><g id="Layer_2" data-name="Layer 2"><g id="Layer_3" data-name="Layer 3"><path class="cls-1" d="M234.15,282.69c-17.43,7.51-29.53,23.49-39.87,38.75h0q4.42-24.63,7.15-49.54a1.24,1.24,0,0,0,.22-.18,7.11,7.11,0,0,0,2.72-.5c4.64-1.77,9.45-2.91,14-4.87a67.13,67.13,0,0,0,12.21-6.65,74,74,0,0,0,10.28-8.49,35.07,35.07,0,0,0,7-10.66c1.76-4.05,3.1-8.69,1-12.89-1.94-3.9-6.18-4.86-10.15-4.14s-7.83,3-11.14,5.25a67,67,0,0,0-10.54,9,75.93,75.93,0,0,0-14.26,20.79c1.41-15.1,2.43-30.25,3-45.42a4.11,4.11,0,0,0,3.19-.81,22.72,22.72,0,0,0,2-1.71,26.54,26.54,0,0,1,2.16-1.63c1.72-1.26,3.46-2.5,5.2-3.74,3.49-2.5,7-5,10.3-7.72a57.09,57.09,0,0,0,8.81-8.42c2.49-3.11,4.37-6.59,4.65-10.63.22-3.15-.9-6.69-4.2-7.73s-7.49.94-10.23,2.77a41,41,0,0,0-8.07,7.38,91.54,91.54,0,0,0-13.43,19.67q.19-10.23.09-20.44c0-3.74-.11-7.48-.19-11.22.06-.11.12-.23.17-.34.47-1,.88-2.12,1.27-3.2.71-2,1.38-3.92,2.07-5.88a126.39,126.39,0,0,0,3.71-12.17c1.52-6.31,2.5-13.21,1.69-19.71-.32-2.6-1.06-5.54-3.58-6.85-3.07-1.59-5.92.46-7.74,2.86-3.87,5.11-5.61,12-6.26,18.24-.95,9.21.87,18.44,2.16,27.53a2.07,2.07,0,0,0,.93,1.42s0,.08,0,.12a2.55,2.55,0,0,0,.72,1.22q-.08,13.48-.44,27a56.87,56.87,0,0,0-10.19-10.49,81.36,81.36,0,0,0-9.17-6.19c-2.94-1.76-6.41-3.6-9.95-3.47a8,8,0,0,0-7.39,5c-1,2.64-.14,5.53,1,8a26.41,26.41,0,0,0,4.46,6.61,32.93,32.93,0,0,0,6.92,5.39A47.05,47.05,0,0,0,187,209.08a35.44,35.44,0,0,0,5.84,1.39c2.26.34,4.55.37,6.81.7l.71.11c-.58,15.31-1.5,30.59-2.88,45.84-.11,1.15-.23,2.3-.34,3.45-1-1.44-2-2.9-3-4.37a97,97,0,0,0-8.25-10.7,84.1,84.1,0,0,0-9.72-9.34c-3.17-2.58-6.61-5.39-10.32-7.16a10.65,10.65,0,0,0-5.87-1.25,7.66,7.66,0,0,0-5.44,3.43c-2.26,3.38-1.38,7.88,0,11.42,3,7.56,8.41,13.18,15.33,17.32A86.88,86.88,0,0,0,180,265c4.06,1.76,8.1,3.61,12.2,5.29,1.22.5,2.47,1,3.73,1.34q-2.76,25-7.24,49.82c-.38-.47-.77-.94-1.14-1.41l-.21-.27-.21-.27-.66-.88a102.92,102.92,0,0,0-8.35-9.48,86.79,86.79,0,0,0-12.43-10.94c-3.18-2.24-6.87-4.53-10.78-5.18a8.36,8.36,0,0,0-6.31,1.06,7.88,7.88,0,0,0-3.21,6.37c-.15,4.25,2,8.82,4.16,12.37a27.92,27.92,0,0,0,9.85,9.16A64.14,64.14,0,0,0,172,327.41c1.9.63,3.85,1.14,5.74,1.81a68.1,68.1,0,0,0,6.64,2.23,21.73,21.73,0,0,0,2.41.44c-.87,4.36-1.76,8.72-2.72,13.07-1,4.7-2.14,9.38-3.3,14-.37-.84-.73-1.68-1.1-2.51a24.54,24.54,0,0,0-2.47-4,92,92,0,0,0-10.42-12.23c-3.3-3.29-6.77-6.7-10.77-9.15s-9.13-3.78-13.34-1.16-4.55,7.7-2.58,11.86a29,29,0,0,0,8.58,10,64,64,0,0,0,11.69,7.13c4.46,2.16,9.05,4.16,13.65,6a28,28,0,0,0,3.44,1.2l.79.18q.23.39.48.78c-3.94,15-8.42,29.75-13.18,44.47l-.93-1.08c-2.95-3.29-5.83-6.65-8.91-9.84a84,84,0,0,0-10.16-9.06,65.54,65.54,0,0,0-12.44-6.93,21.65,21.65,0,0,0-7.51-1.77c-2.56-.15-5.77-.11-7.8,1.58-3.61,3-3,7.61-1,11.34,4,7.26,11,12.43,18.38,15.93a103.87,103.87,0,0,0,11.43,4.5c2,.68,4,1.33,6,2.12s4.14,1.73,6.28,2.38a25.65,25.65,0,0,0,3.36.8c-1,2.91-1.93,5.81-2.91,8.72-4.79,14.25-9.79,28.44-15.23,42.46q-1.65,4.26-3.38,8.49c-2.29-6-4.57-11.93-6.79-17.92-6.69-18.06-14.42-35.64-21.67-53.47q-4.19-10.27-8-20.73a23.6,23.6,0,0,0,4.23-2.75,60.58,60.58,0,0,0,8.82-7.48,86.81,86.81,0,0,0,7.59-9,65.35,65.35,0,0,0,6-9.32c1.52-3,3.06-6.6,3.1-10,0-3.61-2.94-7.11-6.73-6.52a13.46,13.46,0,0,0-4.94,1.78,39.58,39.58,0,0,0-4,3.26,32.07,32.07,0,0,0-7.43,8.44,80.85,80.85,0,0,0-5.53,10.14,117.31,117.31,0,0,0-4.1,11.06c-.11.33-.21.66-.31,1q-7.42-21.78-13-44.13a10.06,10.06,0,0,0,3-2c2.9-2.68,5.68-5.5,8.56-8.21,6.33-5.95,12.61-12,17.57-19.19a63.27,63.27,0,0,0,5.78-9.86c1.51-3.37,2.85-7.92.5-11.27-4.28-6.12-13.3-.17-17.46,3-11.23,8.63-17.14,21.79-21,35.1q-2.33-10.12-4.29-20.33-3.61-18.9-5.9-38.08c.21-.79.42-1.58.65-2.36l0,0c2.07-1.2,4.08-2.51,6.05-3.86,7.82-5.36,15.21-11.4,22.71-17.18a120,120,0,0,0,11.09-9.28,42.38,42.38,0,0,0,4.47-5.18,21.51,21.51,0,0,0,3.43-5.37,7.32,7.32,0,0,0,.58-3.15,5,5,0,0,0-2.16-3c-1.78-1.25-3.42-.67-5.37-.55-4.79.29-8.75,2.52-12.9,4.7-7.81,4.11-15.63,9.44-21.08,16.47a61.46,61.46,0,0,0-8.87,16.75c-2.13-21.18-3.17-42.48-3.36-63.7a36,36,0,0,0,3.55-1.2,77.52,77.52,0,0,0,13.6-7.18c4.42-2.74,8.72-5.69,13-8.71,3.76-2.69,7.59-5.32,11.16-8.26a44,44,0,0,0,4.9-4.65c.77-.85,1.41-1.8,2.16-2.65a14.11,14.11,0,0,0,2-2.48,7.39,7.39,0,0,0,.39-6.29c-.85-1.84-3.55-3.06-5.44-3.38a18,18,0,0,0-7.1.68A37.94,37.94,0,0,0,101.7,147a69.21,69.21,0,0,0-12.64,7.7,76.92,76.92,0,0,0-10.94,9.44,66.41,66.41,0,0,0-8,11.53,411.65,411.65,0,0,1,3.15-46q.69-5.26,1.5-10.52c.4-.12.81-.23,1.21-.33a22,22,0,0,0,6-2.78c2-1.19,4.09-2.3,6.16-3.4,4-2.15,8-4.36,12-6.68A160,160,0,0,0,122.32,90.7c1.7-1.43,3.37-3,5-4.55a17.06,17.06,0,0,0,2.14-3c.3-.47.66-.93.92-1.43a3.39,3.39,0,0,0,.16-2.22c-.19-1.18-.14-2.66-1.18-3.45a16,16,0,0,0-3.09-1.48,7,7,0,0,0-3.51-.4c-1.3.07-2.61.07-3.9.2a19.94,19.94,0,0,0-3.38.86l-3.68,1a40.86,40.86,0,0,0-6.38,2.56A75.78,75.78,0,0,0,94,85.57a69.87,69.87,0,0,0-10,8.53,78.84,78.84,0,0,0-6.39,7.74C79.43,92.18,81.42,82.55,83.5,73q1-4.67,2.06-9.31A2.34,2.34,0,0,0,87,61.94a4.92,4.92,0,0,1,1.08-1.6c.88-1.1,1.65-2.29,2.47-3.44,1.55-2.18,3.16-4.31,4.63-6.54a117.17,117.17,0,0,0,7.29-13.85c3.68-7.69,8.14-15.06,10.59-23.27.82-2.78,1.58-5.93.91-8.81-.84-3.63-4.45-5.16-7.87-4.1a20.8,20.8,0,0,0-5.87,3.36,40.58,40.58,0,0,0-5.9,5.13,39.65,39.65,0,0,0-7.65,13A91,91,0,0,0,82.24,37.7a100.12,100.12,0,0,0-1.18,19.11,2.78,2.78,0,0,0,.34,1.3c-3.79,16.83-7.35,33.7-10.2,50.66-1.31-2.73-2.79-5.36-4.36-8q-2.7-4.47-5.68-8.77A74.89,74.89,0,0,0,55,83.86a30.91,30.91,0,0,0-7.3-5.73A12.5,12.5,0,0,0,43,76.88,8.68,8.68,0,0,0,38.3,77a19.92,19.92,0,0,0-7.51,4.61A23.74,23.74,0,0,0,28,85a12.18,12.18,0,0,0-1.46,4.63c-.3,1.77.29,3.12.93,4.71a17.48,17.48,0,0,0,2.18,3.89,33.13,33.13,0,0,0,6,6,109.11,109.11,0,0,0,17.22,11.68c1.61.84,3.26,1.57,4.93,2.3A20,20,0,0,0,63.54,120c.87.1,1.74.09,2.6.18,1.07.11,2.12.37,3.19.41a410.81,410.81,0,0,0-4.5,51.1c-.07,3-.1,6.09-.12,9.14-.45-.53-.91-1.05-1.39-1.54-1.3-1.33-2.67-2.6-4.08-3.81a72,72,0,0,0-9.16-6.68A49.57,49.57,0,0,0,39.87,164a39,39,0,0,0-5.41-1.38c-1.89-.33-3.76-.76-5.65-1.07a63.23,63.23,0,0,0-12.06-.69,22.49,22.49,0,0,0-10.82,2.9,13,13,0,0,0-4.67,16.52c2.6,5.57,8.49,8.33,14.29,9.18,6.9,1,14,.68,20.93.44q6.12-.21,12.23-.27A90.51,90.51,0,0,0,61,188.51c1.05-.16,2.11-.38,3.16-.58a6.18,6.18,0,0,0,.53.36,659.54,659.54,0,0,0,3.84,69l-.85-.32c-3.16-1.22-6.17-2.8-9.38-3.93a84.63,84.63,0,0,0-20.55-4.14,95.94,95.94,0,0,0-10.59-.39,83.05,83.05,0,0,0-10.92.79,23.36,23.36,0,0,0-4.8,1.24,7.91,7.91,0,0,0-3.62,3.34c-1.47,2.63-.69,5.6,1,7.92,3.74,5.16,10.57,6.48,16.54,7,7.55.62,15.08-.57,22.57-1.33,3.89-.39,7.79-.67,11.68-1.06a43.63,43.63,0,0,0,9.78-1.7q1.41,11.64,3.25,23.17,3.18,20,7.86,39.71a25.19,25.19,0,0,0-3.07-1.8c-8.34-4-17.43-3.92-26.46-3.55A76,76,0,0,0,37,323.73c-3.5.79-9.52,2.58-8.24,7.43.59,2.21,2.64,3.82,4.46,5a21.07,21.07,0,0,0,5.62,2.58c4.31,1.3,9,1.4,13.51,1.35a95.18,95.18,0,0,0,14.39-1.33c4.68-.77,9.24-2,13.93-2.71q.91-.12,1.83-.3Q88.4,359.17,96.2,382l-.86-.22a85.91,85.91,0,0,0-9-1.74,65.43,65.43,0,0,0-18.8,0A65.51,65.51,0,0,0,53,384.46c-4.06,1.65-9.26,4.65-7.76,9.91,1.62,5.68,9.65,6,14.36,6a84.86,84.86,0,0,0,21.6-3.27c3.48-1,6.89-2.16,10.29-3.4,1.72-.63,3.44-1.26,5.2-1.78.88-.27,1.79-.45,2.66-.72q.95,2.63,1.9,5.25c6.62,18,14.69,35.44,21.7,53.3,5,12.83,9.89,25.75,14.75,38.66-3.66,8.67-7.49,17.27-11.38,25.86-6.15,13.58-12,27.48-19.2,40.52a218.15,218.15,0,0,1-22.25,32.1c-2.13,2.61-4.3,5.18-6.49,7.75s1.59,6.57,3.88,3.88c8.63-10.12,17-20.51,24.13-31.75,7.75-12.21,13.58-25.44,19.59-38.57,4.92-10.75,9.86-21.5,14.53-32.36l3.12,8.23c14,36.58,26.07,73.87,38.48,111,1.53,4.58,3.1,9.15,4.66,13.72.87,2.53,4.85,1.48,4-1.11-11.48-37-23.07-74.06-36.44-110.47-3.5-9.56-7.16-19.06-10.82-28.56l1.12-2.68c5.7-13.92,10.9-28,15.82-42.23q3.67-10.6,7.24-21.25a5.92,5.92,0,0,0,2.77-.08c.94-.24,1.81-.61,2.77-.76,1.21-.18,2.44-.27,3.66-.37,5.19-.45,10.27-1.48,15.42-2.3,4.8-.75,9.66-1,14.45-1.86,7.69-1.33,17-4.73,20.11-12.57a8.6,8.6,0,0,0-2.05-10,16.36,16.36,0,0,0-9.07-3.52c-8.26-.91-16.91,1.74-24.14,5.55-7.55,4-14.2,9.55-20.28,15.49-.11.11-.22.23-.34.34,4.59-14.17,8.91-28.43,12.69-42.84.92-.2,1.83-.57,2.74-.85l.12,0,.26-.08c2.92-.76,5.88-1.32,8.79-2.12,2.56-.7,5.09-1.5,7.64-2.21,10.09-2.8,20.45-5.06,29.77-10,6-3.2,11.8-7.89,15.51-13.66,1.8-2.8,3-6.2,2.25-9.54a9,9,0,0,0-2.55-4.28,13.45,13.45,0,0,0-2.34-1.77,9.92,9.92,0,0,0-4.6-1c-5.58-.28-10.83,1.69-15.86,3.9-4.75,2.08-8.81,5.1-12.95,8.18a165.71,165.71,0,0,0-23.73,22.13c-1,1.15-2,2.32-3.06,3.48.35-1.43.71-2.87,1-4.31q3.12-13.08,5.66-26.27a2.93,2.93,0,0,0,.66-.55h.1a10,10,0,0,0,2.95-1.4,26,26,0,0,1,3.3-1.64c2.85-1.27,5.62-2.72,8.44-4.06,5.33-2.53,10.9-4.48,16.37-6.69a72.39,72.39,0,0,0,15-7.91,91.25,91.25,0,0,0,12.19-10.18c3.61-3.69,5.82-8.22,5-13.46C254.7,274.51,240.38,280,234.15,282.69Zm-16.93-36.9a74.47,74.47,0,0,1,9.46-9.5,49,49,0,0,1,5.09-3.7c.94-.59,1.9-1.15,2.89-1.67.48-.25,1-.5,1.47-.74l.56-.25.53-.23a11,11,0,0,1,4.19-.95,2.51,2.51,0,0,1,2.56,1.36c1.62,3-.51,7.09-1.83,9.84a30.43,30.43,0,0,1-7.44,9.57,68.88,68.88,0,0,1-10.16,7.59A63,63,0,0,1,212.11,263c-2,.67-4.05,1.19-6.06,1.83A70.26,70.26,0,0,1,217.22,245.79Zm3.52-57.91a65.18,65.18,0,0,1,7-7.66c2.17-1.95,5.26-4.25,8.13-4.36a1.61,1.61,0,0,1,.31,0h.05c0,.12,0,.07.06,0l0,0a.78.78,0,0,1,.07.17l0,.07.12.44a1.54,1.54,0,0,0,.09.28s0,0,0,.18a7.87,7.87,0,0,1,0,1q0,.44-.06.87l0,.13q-.09.48-.21,1c-.91,3.42-3.41,6.2-5.89,8.61-6,5.79-12.92,10.39-19.62,15.26l-.51.36A80.75,80.75,0,0,1,220.74,187.88ZM204.1,135.39c.25-.88.54-1.76.86-2.62.07-.17.64-1.56.52-1.32.37-.82.74-1.63,1.17-2.43a19.15,19.15,0,0,1,1.59-2.5l.54-.56.06-.06,0,0a.16.16,0,0,1,0,.07c.25.7-.16-.56.09.18a14.67,14.67,0,0,1,.37,1.45s.05.38.07.49c0,.29.06.59.08.88a57,57,0,0,1-1.79,17.6c-1.05,4.2-2.41,8.3-3.85,12.37-.11.29-.21.59-.31.88a88,88,0,0,1-1-13.76A40.64,40.64,0,0,1,204.1,135.39Zm-5.67,70.16a55.17,55.17,0,0,1-6.28-.75,36.77,36.77,0,0,1-10.42-4,57.14,57.14,0,0,1-5-3.16,16.41,16.41,0,0,1-2.68-2.13c-.37-.37-.73-.76-1.08-1.16-.5-.58-.69-.83-.93-1.16a24.76,24.76,0,0,1-2.07-3.37c-.07-.15-.27-.58-.31-.65s-.18-.51-.23-.65-.17-.56-.24-.85c0-.12-.05-.24-.08-.36a.22.22,0,0,1,0-.1,6.85,6.85,0,0,1,0-.79,2.16,2.16,0,0,1,0-.28,2.81,2.81,0,0,0,.08-.31c.08-.08.27-.43.21-.42a2.92,2.92,0,0,1,2-.94,9,9,0,0,1,4,1,62.48,62.48,0,0,1,8.76,5.22,55.12,55.12,0,0,1,8.91,7.8c.66.72,1.32,1.45,2,2.19l.81.95c.18.22.35.44.53.65s.18.23.23.28c.33.5.63,1,.94,1.51l.93,1.49ZM187.17,262.1c-3.61-1.56-7.25-3.05-10.76-4.84-6.7-3.41-12.75-7.87-16-14.83a19.64,19.64,0,0,1-1.68-5,4.08,4.08,0,0,1,.67-3.57,2,2,0,0,1,1.3-.69,5.73,5.73,0,0,1,.63,0,6.52,6.52,0,0,1,1.43.42,24.7,24.7,0,0,1,4.51,2.72,84.42,84.42,0,0,1,19.15,18.39c2.48,3.29,4.6,6.82,7,10.13C191.35,264,189.27,263,187.17,262.1Zm-9.51,61.34a85.37,85.37,0,0,1-11.76-4.26,29.77,29.77,0,0,1-10.29-7.35,22.82,22.82,0,0,1-2.9-4.86,18.12,18.12,0,0,1-1.78-5.58c0-.36,0-1.06,0-1.2,0,.12.26-1,.14-.7.3-.72.63-1,1-1.08l.42-.09.46,0,.56,0h.16l.13,0a15.33,15.33,0,0,1,2.72.82,42.3,42.3,0,0,1,10.55,7A124.93,124.93,0,0,1,178.9,318a23.86,23.86,0,0,0,2.2,2.49h0l.44.58c1,1.35,2,2.69,3.09,4l1,1.17C182.88,325.57,180.1,324.17,177.66,323.44Zm-7.48,33.88a122.07,122.07,0,0,1-12.36-5.95,39.13,39.13,0,0,1-10.21-8.1,15.24,15.24,0,0,1-3-4.85c-.45-1.45-.45-2.61.4-3.43,1.13-1.1,3.07-1.2,4.62-.8a16.31,16.31,0,0,1,5.45,2.87,78.53,78.53,0,0,1,10.41,9.73c1.81,1.92,3.55,3.91,5.17,6a39.72,39.72,0,0,1,3.9,5.68c.17.32.31.64.46,1C173.37,358.76,171.78,358,170.18,357.32Zm-17.1,55.31c-3.86-1.5-7.85-2.61-11.7-4.16-7.1-2.87-14.18-7-18.59-13.42a11.45,11.45,0,0,1-2.29-4.73,2,2,0,0,1,.26-1.13,2.47,2.47,0,0,1,.61-.69c0,.06.37,0,.43,0,.28,0,.56-.07.84-.1a17.47,17.47,0,0,1,6.78.72,49.75,49.75,0,0,1,7,3.21c7.9,3.9,14.23,10.74,20,17.23,1.52,1.7,3,3.4,4.55,5.12q.5.57,1,1.17A66.36,66.36,0,0,1,153.08,412.63Zm-39.27-49.48a38.4,38.4,0,0,1,6.89-9c.67-.61,1.39-1.14,2.08-1.72s1.13-1.15,1.78-1.62a9.08,9.08,0,0,1,3.59-1.5,1.37,1.37,0,0,1,.24.18c-.09-.07.08.14.18.29l.06.19a1.3,1.3,0,0,0,0,.13,1.1,1.1,0,0,0,0,.21,5.74,5.74,0,0,1,0,.71c0,.07-.15.79-.27,1.24a29.5,29.5,0,0,1-3.16,7.51,77.62,77.62,0,0,1-10.48,13.92,64.92,64.92,0,0,1-6.59,6.15c-.61.48-1.23.94-1.86,1.39C108.22,375,110.42,368.8,113.81,363.15Zm-7.7-68.21a35.51,35.51,0,0,1,8.1-5.87l.89-.43c.17-.08.16-.08.15-.08l.28-.1a17.5,17.5,0,0,1,2-.59h.06l.33,0c.12,0,.54,0,.63,0l0,0h.05l.11.05c0,.1.1.24.06.05a4.39,4.39,0,0,1,.28,1.07,6.32,6.32,0,0,1-.27,2.3,20.82,20.82,0,0,1-2.08,4.74,78.26,78.26,0,0,1-6.18,9.62c-5.17,6.71-11.52,12.43-17.67,18.21q-1.73,1.62-3.44,3.27C92.62,315.35,97.11,303.47,106.11,294.94ZM84.67,240.82c5.39-7.9,13.9-13.6,22.31-17.88,2.37-1.2,4.6-2.59,7.23-3.18,1.36-.3,2.74-.22,4.08-.53.12,0,.32,0,.43-.07-.75,2.26-2.38,4-3.92,5.91a56.48,56.48,0,0,1-7.21,7c-5.18,4.38-10.74,8.29-16.12,12.41-4.43,3.4-8.85,6.82-13.51,9.91A60.52,60.52,0,0,1,84.67,240.82Zm-8.23-67.45a41.38,41.38,0,0,1,8-9.4,92.49,92.49,0,0,1,10.06-7.79,53.81,53.81,0,0,1,11.19-6.12,34.45,34.45,0,0,1,6.57-1.69,5.4,5.4,0,0,1,4.44,1.09,3.1,3.1,0,0,1-.62,2.56c-.53.66-1.18,1.23-1.73,1.89s-1.14,1.33-1.75,2a56.57,56.57,0,0,1-7.86,6.62c-6.12,4.42-12.36,8.74-18.78,12.7-3.37,2.07-6.8,4-10.33,5.81a32,32,0,0,1-5,2h0C72.61,179.81,74.5,176.58,76.44,173.37ZM87.16,41.5A84.94,84.94,0,0,1,90.38,28a47.35,47.35,0,0,1,5.27-12,32.35,32.35,0,0,1,9.24-8.89,14.08,14.08,0,0,1,2.35-1.36,5.06,5.06,0,0,1,.66-.21l.26,0a1.84,1.84,0,0,0,.34,0c0,.13.16.35.2.5l0,0v.2c0,.28,0,.56,0,.84s0,.59-.06.88V8c0,.11-.06.34-.06.39a32.43,32.43,0,0,1-.93,3.74c-2.29,7.48-6.35,14.22-9.74,21.23-2.38,4.93-4.58,9.85-7.61,14.44-1.2,1.83-2.5,3.59-3.79,5.37A87,87,0,0,1,87.16,41.5ZM75.9,111.93c4.64-6.36,9-12.77,15-18a67.81,67.81,0,0,1,19.75-12.41,68,68,0,0,1,6.74-2,29.93,29.93,0,0,1,6.88-.77l1.62.74c0,.2.06.4.1.6a16.74,16.74,0,0,1-2.69,3.46c-1.38,1.24-2.74,2.53-4.16,3.71-2.6,2.17-5.37,4.16-8.15,6.07-5.58,3.84-11.41,7.29-17.33,10.58-3.1,1.72-6.24,3.36-9.38,5-1.53.8-3,1.61-4.55,2.46a21.79,21.79,0,0,1-4,2.09Zm-11.07,2.94A17,17,0,0,1,59,113.15,64.53,64.53,0,0,1,47.77,107c-3.06-2-6.14-4.18-9-6.48C36.09,98.44,33.3,96,32,92.75a5.35,5.35,0,0,1-.71-2.16c0-.53.31-1,.39-1.57a3.14,3.14,0,0,1,.19-.91,9.22,9.22,0,0,1,1.57-2,11.19,11.19,0,0,1,1.73-1.71A18.73,18.73,0,0,1,39.88,82a3.24,3.24,0,0,1,2.06.12,11.91,11.91,0,0,1,2.65.49,21.81,21.81,0,0,1,2.33,1.48,18.5,18.5,0,0,1,2.24,1.72,30.59,30.59,0,0,1,3.76,4.12c2.77,3.62,5.32,7.41,7.75,11.27a100,100,0,0,1,6.61,12c.28.62.52,1.29.76,2C67,115,65.92,114.91,64.83,114.87Zm-5.94,68.59a59.71,59.71,0,0,1-7.31.85c-5.35.24-10.71.32-16.06.57-4.79.23-9.57.39-14.36.25-3.39-.1-7-.34-10.1-1.71a10.4,10.4,0,0,1-6.34-7.75A7.69,7.69,0,0,1,9,167.76c4.3-2,9.11-1.88,13.72-1.62a44.79,44.79,0,0,1,7.47,1.05c2.35.53,4.72.86,7,1.55a46.78,46.78,0,0,1,12.5,6.3,65,65,0,0,1,9.92,8.29Zm3.53,77.19c-2.49.34-5,.59-7.5.84-4.66.47-9.3,1-14,1.56a89.89,89.89,0,0,1-14.29.84c-3.89-.16-8.26-.65-11.64-2.75a7,7,0,0,1-3-3.56,1.2,1.2,0,0,1,.09-1.26,3.09,3.09,0,0,1,1.57-1.19,24.64,24.64,0,0,1,6.87-1c2.45-.07,4.89-.31,7.34-.33A86.35,86.35,0,0,1,56.21,258c2.17.73,4.24,1.7,6.34,2.64Zm9.77,71.51a100.23,100.23,0,0,1-14,2.22,67.68,67.68,0,0,1-14.37-.13,20.18,20.18,0,0,1-5.39-1.44A15.91,15.91,0,0,1,36,331.46c-.16-.11-.92-.79-1.44-1.26a9.76,9.76,0,0,1,2-.69,43.72,43.72,0,0,1,6.52-1.29A134.61,134.61,0,0,1,57,327.45a46.41,46.41,0,0,1,12.76,1.23,27.93,27.93,0,0,1,5.9,2.25c.22.11.42.24.63.36C74.9,331.55,73.55,331.85,72.19,332.16Zm21.54,54.91c-1.88.62-3.74,1.32-5.61,2a110.47,110.47,0,0,1-12,3.64,82.23,82.23,0,0,1-11.88,1.86c-3.73.33-7.8.67-11.45-.37a4.3,4.3,0,0,1-1.26-.48c-.21-.11-.69-.42-.7-.43s-.46-.6-.24-.27c-.16-.24-.13-.17-.14-.32,0,.12,0,.05,0-.05v-.06s0,0,0-.06v-.08h0v.06s0-.06,0-.09l0,0c.07-.12.14-.24.22-.36l0,0c.18-.18.36-.36.55-.53l0,0,.37-.26a15,15,0,0,1,1.75-1,32.58,32.58,0,0,1,3-1.23,74.75,74.75,0,0,1,9.45-3,50.75,50.75,0,0,1,11.13-1.09A66.69,66.69,0,0,1,93.85,387Zm118.5,9.24c.91,0,1.83,0,2.74,0l.8.07h.09l.78.14a10.75,10.75,0,0,1,3.68,1.31c.12.07.56.37.61.38.21.17.4.36.6.54l.2.22a1.83,1.83,0,0,1,.15.21c.09.14.17.29.25.43a.11.11,0,0,0,0,0,.7.7,0,0,0,0,.12,3,3,0,0,1,.11,1.38,7.67,7.67,0,0,1-.75,2.11c-1.59,2.95-4.7,4.85-7.77,6.18a44.59,44.59,0,0,1-12.3,2.86c-5,.59-10,1.18-15,2.06-2.4.42-4.79.87-7.21,1.13-1.44.15-2.88.25-4.33.39C185.2,406,197.5,396.64,212.23,396.31Zm-2.68-50.82a118.36,118.36,0,0,1,12.13-9.25,44.78,44.78,0,0,1,6.57-3.55,48.25,48.25,0,0,1,7.08-2.56,16.54,16.54,0,0,1,7.49-.47,3,3,0,0,1,.85.43l.36.25.18.16a8,8,0,0,1,.76.78,5.15,5.15,0,0,0,.39.69v0h0c.07.12.11.34,0,.14a1.72,1.72,0,0,1,.07.21,3.48,3.48,0,0,0,.1.41h0c0,.32,0,.64,0,.95v.06c0,.18-.06.35-.1.52s-.16.59-.25.88l-.16.45,0,.06,0,.06a17.52,17.52,0,0,1-1.17,2.12,21.44,21.44,0,0,1-2.82,3.52,46.5,46.5,0,0,1-3.61,3.41c-.27.22-.53.45-.81.67l-.49.39-.22.17-.65.49-.9.63a44.67,44.67,0,0,1-5,2.89c-9,4.57-19.08,6.56-28.75,9.31-2.42.68-4.82,1.43-7.26,2.08A176.17,176.17,0,0,1,209.55,345.49Zm36.64-49.2a93,93,0,0,1-12,9.54A80.48,80.48,0,0,1,219.31,313c-5.79,2.25-11.53,4.52-17.11,7.27l-1.78.83c8.56-12.27,18.2-24.23,31.38-31.46a48.89,48.89,0,0,1,12.45-4.78,17.53,17.53,0,0,1,4.92-.69h.18a3.9,3.9,0,0,1,.59.14l.24.08.21.12.13.09.08.09c.05.06.28.38.05,0a1.92,1.92,0,0,1,.43,1C252.28,290,249.19,293.54,246.19,296.29Z"/></g></g></svg>