<svg xmlns="http://www.w3.org/2000/svg" viewBox="0 0 278.47 634.28"><defs><style>.cls-1{fill:#3a3a3a;}</style></defs><title>Asset 2</title><g id="Layer_2" data-name="Layer 2"><g id="Layer_3" data-name="Layer 3"><path class="cls-1" d="M35.37,215.41c3.67-.44,7.31-1.11,11-1.7a43.59,43.59,0,0,1,5.32-.63c2-.08,4,0,6,.06a2.85,2.85,0,0,0,.41,0,2.53,2.53,0,0,0,2.44,1.57c.68,2.24,1.36,4.47,2,6.71,3.37,11.41,6.09,23,8.71,34.63.66,2.9,1.31,5.82,1.94,8.73a1.93,1.93,0,0,0,1.25,1.49,379.39,379.39,0,0,0,3.89,43A63.37,63.37,0,0,0,70,299.15a73.26,73.26,0,0,0-10.5-8.32,62.94,62.94,0,0,0-12.21-6.62,23.69,23.69,0,0,0-7.33-1.72c-2.35-.13-5.66,0-7.59,1.43a28.85,28.85,0,0,0-3,2.28c-.94.94-1.24,2.68-1.37,3.94a8.69,8.69,0,0,0,1.87,6.14c4.85,6.32,12.33,9.7,19.31,13.19,5.1,2.55,10.29,4.93,15.53,7.21,2.62,1.14,5.26,2.26,7.93,3.29,1.09.42,2.42.85,3.38,1.26a15.19,15.19,0,0,0,2.46.95,8.8,8.8,0,0,0,1.63,2.25,2.67,2.67,0,0,0,.47.36q3.42,22.79,7.6,45.45c3.14,17.11,6.78,34.13,10.69,51.09-1.39-1.12-2.8-2.22-4.27-3.23-4.4-3.07-8.67-6.32-13.1-9.33-2.17-1.47-4.38-2.87-6.69-4.12a78.17,78.17,0,0,0-7.42-3.33,31.75,31.75,0,0,0-8.35-2.19c-2.74-.35-5.49-.48-8.23-.89-1.49-.22-3.14-.79-4.57-.19a5,5,0,0,0-2.41,2,7.7,7.7,0,0,0-.43,5.7,27.17,27.17,0,0,0,4.74,9.44c6.43,8.63,16.18,14.18,25.92,18.32C79.75,436,85.58,438,91.4,440A40.51,40.51,0,0,0,98.94,442a13.11,13.11,0,0,0,4.33-.06l.49-.11c3.56,14.68,7.27,29.33,11,43.95,4.81,19,9.93,37.95,16.55,56.42.95,2.65,1.93,5.28,2.93,7.92-.19,23,.3,46.09,2.34,69.05.39,4.39.85,8.76,1.35,13.13.3,2.57,4.35,2.6,4,0a637.63,637.63,0,0,1-3.66-71.8c4.67,11.51,9.75,22.85,15.1,34q3.11,6.48,6.32,12.9c1.57,3.16,6.31.38,4.74-2.77-8.5-17-16.5-34.3-23.42-52q-1.36-3.48-2.65-7,.1-8.51.31-17c.82-34.5,2-69,2.6-103.48.26-16.21.58-32.41,2.49-48.52a79.24,79.24,0,0,0,31.66-9.21c9.15-5,16.83-12.16,23.4-20.21,2.78-3.42,6-7.49,6.36-12a6.23,6.23,0,0,0-2.5-5.71,8.7,8.7,0,0,0-5.8-1,45.64,45.64,0,0,0-11,3,87.42,87.42,0,0,0-17.54,8.84,104.27,104.27,0,0,0-17.28,14.29c-1.71,1.75-3.32,3.57-4.9,5.43,2.09-12.29,4.73-24.49,7.65-36.6,4-16.73,8.73-33.3,14.26-49.59a26.51,26.51,0,0,1,4.64-2.47c3-.9,6.13-1.57,9.18-2.33,6.12-1.51,12.24-3,18.19-5.11A114.75,114.75,0,0,0,217.74,256c4.37-2.42,10-5.36,11.37-10.6.94-3.59-1-6.6-4.45-7.65-3.17-1-6.72-.53-9.95-.09a78.21,78.21,0,0,0-25.39,7.77,77.22,77.22,0,0,0-14.75,10.47q4.74-12.36,10.19-24.45c6-13.12,12.53-26,19.55-38.58a2.27,2.27,0,0,0,2.77-.9l.23-.33c1.38-.53,2.72-1.28,4-1.89a44.42,44.42,0,0,1,6.18-2.36c4.3-1.28,8.69-2.19,13-3.23,8.27-2,16.47-4.6,23.13-10.09,2.87-2.37,5.75-5.78,5.62-9.74-.14-4.17-3.56-7.12-7.48-7.84-4.57-.84-9.21,1.27-13.19,3.26a126,126,0,0,0-12.72,7.39,89.65,89.65,0,0,0-11.81,9.19c6.6-10.42,13.71-20.48,20.61-30.74,2.08-3.09,4-6.24,5.87-9.46.37-.33.73-.65,1.08-.93,1.7-1.38,3.27-2.9,4.92-4.33,3.23-2.81,7-4.92,10.46-7.38,7.38-5.21,13.27-12.27,18.52-19.55,1.69-2.34,3.37-5.37,2.77-8.35-.75-3.75-5-4.87-8.29-4.55-4.32.41-7.77,2.86-11,5.52a73.11,73.11,0,0,0-9.15,9,88.89,88.89,0,0,0-8.8,11.71c-2.69,4.44-4.36,9.35-6.39,14.11a3.08,3.08,0,0,0,.14,3l0,.05c0,.11-.16.3-.21.4a2.7,2.7,0,0,0,0,2.6c-7.15,10.64-14.53,21.16-21.38,32a101.16,101.16,0,0,0,2-17.42c.12-4,.08-8,.16-12a45,45,0,0,0-.88-11.29c-.79-3.27-2.65-8.37-6.38-9.16-4.26-.91-6.58,4.28-7.75,7.45-3,8.17-1.64,17.49-.85,26,.48,5.18,1.09,10.36,1.95,15.5.43,2.58,1,5.14,1.49,7.71.26,1.26.51,2.53.77,3.79a16.77,16.77,0,0,1,.77,3.28,2.62,2.62,0,0,0,.06.57C197.93,195.28,191.75,207,186,219c-6.25,13-11.84,26.29-16.86,39.8a153.24,153.24,0,0,0-1.35-22.34c-1.11-8.21-2.74-16.88-8.27-23.38-2.3-2.7-5.65-5.49-9.36-5.59a6.57,6.57,0,0,0-5.14,2.31,5.72,5.72,0,0,0-1.28,3.13,6.38,6.38,0,0,0,0,1.31,10.83,10.83,0,0,1-.11,2c-.84,10.35,2,20.62,5,30.43a91.56,91.56,0,0,0,6,15.75l3.74,7.26c1.15,2.23,2.42,4.74,4.43,6.29a1.19,1.19,0,0,0,.22.12q-5.61,17-10.16,34.24c-4.31,16.28-8.1,32.75-10.94,49.36q-.51,3-1,6c-3.57-13.78-8.33-27.65-17.82-38.5a29.29,29.29,0,0,0-4.06-3.89,11.23,11.23,0,0,0-2.51-1.73,3.42,3.42,0,0,0-3.65,1c-1.29,1.23-1.62,3.09-1.89,4.77a22.8,22.8,0,0,0,0,6.9A44.22,44.22,0,0,0,114.85,346c1.7,3.81,3.35,7.69,5.21,11.43a67.82,67.82,0,0,0,7.16,11.33,28.12,28.12,0,0,0,4.26,4.59,13.21,13.21,0,0,1,2.18,1.9,10.7,10.7,0,0,0,2.28,2.52,2.77,2.77,0,0,0,3.33-.43l.28-.35c-.65,5.86-1.14,11.73-1.51,17.61a7,7,0,0,0-.73-.92,7.57,7.57,0,0,0-6.87-2.12c-3,.57-5.31,2.88-7.27,5a91.71,91.71,0,0,0-6.53,7.8c-4.25,5.84-7.45,12.35-10.7,18.78a2.85,2.85,0,0,0,.68,3.54c-.21.12-.43.23-.65.33-3.47-14.5-6.75-29.06-9.68-43.69-3.87-19.29-7-38.74-10.08-58.18q-.57-3.58-1.11-7.17l.11-.1c-.23.21.13-.09.16-.11a5.07,5.07,0,0,1,.55-.34c1-.59,2-1.18,2.91-1.84a62.69,62.69,0,0,0,10-9.14c3-3.27,5.87-6.68,9-9.79,3.43-3.37,7.16-6.4,10.65-9.69a61.07,61.07,0,0,0,8.67-9.85c1.26-1.86,2.28-4.39,1.15-6.54-1-1.9-3.21-2.55-5.22-2.49-4.34.13-8.58,2.82-12.09,5.16a56.8,56.8,0,0,0-11,9.77c-6.69,7.6-11.62,16.46-16.36,25.35a375.33,375.33,0,0,1-3.78-41.76c-1-38.62,9.58-76.93,20.29-113.69q1.51-5.21,3.14-10.35c.83-.14,1.66-.28,2.47-.44,2.38-.48,4.76-.92,7.14-1.43a65.94,65.94,0,0,0,13.09-4.35c3.7-1.66,7.36-3.43,11.07-5.08,3.47-1.55,7.34-3.39,9.82-6.37a5.7,5.7,0,0,0,1.31-5.29,7.45,7.45,0,0,0-3.17-3.81,20.63,20.63,0,0,0-9.64-3.1c-8.5-.82-16.34,3.62-22.51,9-1.28,1.12-2.55,2.29-3.8,3.47Q113.85,112,119.31,99c2-4.88,4.15-9.73,6.35-14.54,2.87-.12,5.69-.46,8.57-.81,3.9-.48,7.82-.66,11.71-1.17a106.48,106.48,0,0,0,11.32-2.28,42.89,42.89,0,0,0,10.27-3.65c2.86-1.56,7.07-5.06,5.12-8.73a8.54,8.54,0,0,0-3.09-3.33c-1.59-.91-3.57-.92-5.34-1.16a42.56,42.56,0,0,0-22.74,3.23,65.69,65.69,0,0,0-9.48,5,221.59,221.59,0,0,1,12-19.39,42.67,42.67,0,0,0,2.4-3.94,2.17,2.17,0,0,0,.54-.24,41.63,41.63,0,0,0,5.29-4.65c1.51-1.38,3.09-2.68,4.63-4a43.43,43.43,0,0,0,7.73-8.46,58.86,58.86,0,0,0,5.61-11.33,36,36,0,0,0,2.8-13,2.79,2.79,0,0,0-2-2.62A6.31,6.31,0,0,0,165,5.21c-1.68,1.28-3.35,2.58-5,3.94a44.43,44.43,0,0,0-8.35,9c-4.34,6.35-6.51,13.88-8.59,21.2a2.52,2.52,0,0,0,.31,2.17c-.93,3.42-3.1,6.47-5.11,9.33-2.37,3.37-4.67,6.74-6.77,10.3-1.78,3-3.45,6.07-5.06,9.17a85.64,85.64,0,0,0-.64-17.45c-1-6.69-3.15-13.63-7.65-18.85-2-2.35-4.81-5.32-8.17-5.25-3.57.07-5.38,3.21-5.65,6.39a18.26,18.26,0,0,0,.21,3.91c.24,1.86.35,3,.73,4.91A79.48,79.48,0,0,0,109,56c1.64,4.48,3.35,8.93,5.18,13.34s3.69,9.21,5.81,13.67a2.36,2.36,0,0,0,.2.31c-.39.88-.79,1.76-1.18,2.65-5.58,12.6-10.74,25.35-15.33,38.33a92.19,92.19,0,0,0-.35-12.87,72.42,72.42,0,0,0-2.46-12.89A46.74,46.74,0,0,0,96.3,87.25a14.39,14.39,0,0,0-3.42-4.43,7.39,7.39,0,0,0-4.64-1.41A3.6,3.6,0,0,0,85.1,83a12.61,12.61,0,0,0-1.51,2.86,13.41,13.41,0,0,0-.71,5.73c.12,2.09.08,4.2.2,6.3a63.17,63.17,0,0,0,.79,6.58,76.51,76.51,0,0,0,3.22,12.37c1.55,4.47,3.54,8.78,5.34,13.15,1.32,3.22,2.38,6.51,3.38,9.82a3,3,0,0,0-.16.45,2.83,2.83,0,0,0,1.16,3,5.2,5.2,0,0,0,.3.92c-5.17,16.88-9.74,34-13.79,51.17-4.27,18.1-7.61,36.51-8.62,55.1Q72.35,240,69.77,229.67c-1.72-6.82-3.73-13.54-5.72-20.28l.13-.25c1.08-2,2.59-3.79,3.74-5.77a69.37,69.37,0,0,0,3-6.35,60.26,60.26,0,0,1,3.5-6.41,68.12,68.12,0,0,0,6.33-12.45,66.89,66.89,0,0,0,3.34-14,15.88,15.88,0,0,0,0-3.58,6.52,6.52,0,0,0-.8-3.25,4.58,4.58,0,0,0-4-2.15c-2.79.11-5.16,2.39-7,4.31A51.9,51.9,0,0,0,61.57,178a87.81,87.81,0,0,0-3,10.91c-1.87-8.36-3.22-16.82-4.35-25.32-1.52-11.38-2.77-22.78-3.31-34.26-.32-7-.4-13.93-.35-20.9a6.8,6.8,0,0,0,2.88-2.11c3.06-3.6,6.74-6.57,10.14-9.84q5.32-5.15,10.32-10.64c6.36-7,12.67-14.38,16.15-23.31a38.17,38.17,0,0,0,2.1-6.85c.47-2.51,1.18-4.89.76-7.47a7.23,7.23,0,0,0-1.46-3.68c-.89-.89-2.58-1.07-3.79-1.05a8.63,8.63,0,0,0-5.94,2.77C80,47.91,78.19,49.34,76.54,51s-3.26,3.34-4.77,5.1a139,139,0,0,0-9.12,12.08A131,131,0,0,0,50.89,89.21c.12-4,.24-8.07.33-12.1.06-2.91.14-5.82.38-8.72.21-2.7,1-5.4.77-8.12a16.47,16.47,0,0,0-.43-2.59,2.59,2.59,0,0,0,.1-2c.4-4.82.81-9.63,1.34-14.45.64-5.8,1.27-11.6,1.73-17.42a61,61,0,0,0,.18-11.7C54.83,8,53.62,3.24,49.89.89s-7.36.5-9.2,3.82a45.25,45.25,0,0,0-4.42,12.18A33.91,33.91,0,0,0,37,33.33,114.82,114.82,0,0,0,42.58,48c1,2.36,2,4.73,2.83,7.15.36,1,.71,2,1,3,0,.19,0,.38,0,.57a2.69,2.69,0,0,0,.41,1.38,10.43,10.43,0,0,1,.08,2.24c-.23,2.95-.77,5.84-.91,8.81s-.17,6-.24,9c-.12,5.69-.27,11.37-.38,17.06q-1.66-2.55-3.42-5a52.67,52.67,0,0,0-9.27-10.34,55.33,55.33,0,0,0-11.31-7.39c-1.05-.51-2.13-1-3.21-1.43l-.48-.19-.2-.09-1.23-.53a31.88,31.88,0,0,0-5.5-2,9.69,9.69,0,0,0-5.86.22A7.47,7.47,0,0,0,1,74.76c-1.41,3.44-1,7.47-.47,11a16.32,16.32,0,0,0,5.15,9.77,70.67,70.67,0,0,0,11.8,8c4.82,2.81,9.65,5.55,14.61,8.08,2.48,1.26,4.83,2.87,7.41,3.92a11.28,11.28,0,0,0,3.21.94,4.81,4.81,0,0,0,1.92-.22c.19-.06.38-.15.58-.23v.53a332.28,332.28,0,0,0,2.28,35.53c1.38,11.7,2.94,23.43,5.4,35,1.05,4.94,2.36,9.82,3.76,14.66a33.51,33.51,0,0,0,0,4s0,.07,0,.11c-.32-.25-.63-.5-1-.81A36.89,36.89,0,0,0,52.41,203a95.56,95.56,0,0,0-8.79-4.76,80,80,0,0,0-18.73-6.4c-4.5-.9-9.54-1.82-14.12-1a8.73,8.73,0,0,0-5.92,3.75A8.62,8.62,0,0,0,4.23,202c1.69,4.65,6.09,8.22,10.33,10.51C21,215.94,28.29,216.27,35.37,215.41ZM75.18,315.1c-1.94-.72-3.87-1.5-5.79-2.31q-6.21-2.64-12.32-5.53c-3.46-1.63-6.89-3.34-10.3-5.09A53.89,53.89,0,0,1,38,297a24.59,24.59,0,0,1-3.74-3.76,3.38,3.38,0,0,1-.68-3.47,10.92,10.92,0,0,1,1.77-1.27,8.23,8.23,0,0,1,3.2-.49A17,17,0,0,1,45,289.2a57.59,57.59,0,0,1,11.2,6,60,60,0,0,1,17.25,16.5c.79,1.19,1.59,2.36,2.31,3.58C75.57,315.24,75.37,315.18,75.18,315.1Zm149.5-141.31a114.86,114.86,0,0,1,10.94-6.89c3.62-2,7.42-4.3,11.51-5.2a7.93,7.93,0,0,1,4.75,0,3.51,3.51,0,0,1,2.16,2,4,4,0,0,1-.88,3.27,14.74,14.74,0,0,1-3.09,3.22c-5.7,4.7-13.07,6.83-20.13,8.52-4.36,1-8.75,1.93-13.07,3.16-.8.23-1.59.48-2.38.74A70.23,70.23,0,0,1,224.68,173.79Zm19.68-51.11a60.28,60.28,0,0,1,6.26-9.35,94.35,94.35,0,0,1,7.78-8.82,40.89,40.89,0,0,1,8.39-6.78A9.21,9.21,0,0,1,271,96.44a5.4,5.4,0,0,1,1.93.25l.09,0,0,0V97s-.07.38-.11.53a6.34,6.34,0,0,1-.26.73c0,.06-.23.48-.27.55-.13.25-.26.49-.4.73a18.45,18.45,0,0,1-1.06,1.6c-4.5,6.25-9.69,12.62-16,17.16-3.6,2.61-7.46,4.84-10.94,7.61-.66.52-1.28,1.07-1.91,1.62C242.83,125.88,243.54,124.25,244.36,122.68Zm-40.13,23.45a67.65,67.65,0,0,1-.34-11.47c.27-3.18,1-7,3-9.63a2.34,2.34,0,0,1,.27-.28c.17.28.55.65.7.89a14.74,14.74,0,0,1,1.71,4.24,37.46,37.46,0,0,1,.78,9.57c-.05,3.65-.05,7.29-.1,10.93a95.75,95.75,0,0,1-1,14.06c-.43,2.63-1,5.24-1.6,7.82-.09-.43-.19-.86-.27-1.29-.82-4-1.44-8.06-1.93-12.13C205,154.62,204.59,150.37,204.23,146.13Zm-29,116.58a86.45,86.45,0,0,1,12.66-10.08c7.61-4.86,16.24-7.5,25.06-9.14l2-.34.82-.12.85-.1a30.38,30.38,0,0,1,4.37-.19c.35,0,.71,0,1.06.07h0l.35.06c.27.06.54.12.81.2l.31.1.3.26a.19.19,0,0,1,0-.08l-.1-.11.1.1,0,0,0,.07h0v.05h0v0h0a.49.49,0,0,0,0,.14l-.06-.06a1.68,1.68,0,0,0,0,.23c0,.05,0,.09-.05.16a4.29,4.29,0,0,1-.39,1,8.55,8.55,0,0,1-2,2.24,32.78,32.78,0,0,1-5.7,3.67,105.33,105.33,0,0,1-15.6,7.28,184.62,184.62,0,0,1-19,5.49c-3,.75-6.07,1.48-9.08,2.29C173.08,264.78,174.15,263.71,175.22,262.71Zm-15.12-1.58A70.39,70.39,0,0,1,154.94,249c-2.71-8.7-5.67-17.62-6.19-26.78a47.3,47.3,0,0,1,.12-6.94,20.63,20.63,0,0,1,0-2.14A1.13,1.13,0,0,1,149,213a2.7,2.7,0,0,0,.4-.3c.61-.27.69-.18,1.4.05a6.61,6.61,0,0,1,1.82,1,16,16,0,0,1,3,2.83c4.6,5.41,5.77,13.34,6.73,20.13a149.26,149.26,0,0,1,1,30.69l-.23-.4C162.11,265,161.12,263.06,160.1,261.13Zm-15.56,109.6c2.55-3.26,5.12-6.5,7.92-9.56a102,102,0,0,1,13.64-12.54A82.71,82.71,0,0,1,192.66,335c1-.28,1.92-.53,2.89-.73.48-.1,1-.19,1.45-.26l.27,0c.28,0,.56-.05.85-.06s1,.06,1,0l.39.09.08.05.08.13,0,.08v0c.05.16,0,.4,0,.26a.75.75,0,0,1,0,.15v.18a3.23,3.23,0,0,1-.05.42c-.1.36-.19.72-.32,1.08-.06.17-.12.33-.19.5s-.27.57-.3.64a26.3,26.3,0,0,1-1.47,2.52c-.25.38-.51.76-.77,1.13s-.31.44-.48.66l-.44.59A77.1,77.1,0,0,1,175.58,361a72.38,72.38,0,0,1-31.09,10.08C144.51,371,144.53,370.86,144.54,370.73Zm-8.86-1a25.26,25.26,0,0,1-3.64-3.67,60.25,60.25,0,0,1-5.88-8.86c-1.91-3.37-3.34-7-5-10.47a63.8,63.8,0,0,1-4.11-10.46,22.2,22.2,0,0,1-.8-6,14.78,14.78,0,0,1,.2-2.1,35.77,35.77,0,0,1,5.84,6.8,77.48,77.48,0,0,1,6.43,11.27c3.57,7.73,5.79,16,7.82,24.26ZM122,406.32a65,65,0,0,1,6.44-7.33,7.52,7.52,0,0,1,3-2.07c.61-.16.47-.09,1.2.05h.09l.06,0c.15.08.44.29.46.28a2,2,0,0,0,.26.24l0,0,0,0c.09.18.2.37.31.55a2.25,2.25,0,0,1,.08.24c.07.23.12.47.18.71a1.55,1.55,0,0,1,0,.21,13.65,13.65,0,0,1,.05,1.57q0,.75-.12,1.5c0,.11-.05.33-.07.42-.06.34-.13.69-.21,1a33.15,33.15,0,0,1-1,3.54c-.18.52-.36,1-.56,1.53-.11.29-.22.58-.34.87l-.06.16-.12.27c-.43,1-.89,1.94-1.39,2.87a23.59,23.59,0,0,1-1.27,2.11l-.06.09,0,0c-.26.3-.53.59-.82.87a9.93,9.93,0,0,1-1.56,1.17,39.66,39.66,0,0,1-4.84,2.52c-1.8.84-3.57,1.77-5.39,2.58-1.64.74-3.31,1.41-5,2.09C114.55,418.27,117.75,412,122,406.32Zm-11.56,24.56c1.45-.77,3-1.31,4.57-1.94,3.08-1.28,6-2.72,9.06-4.14a34.39,34.39,0,0,0,7.17-4.1c3-2.41,4.64-6.23,6-9.72,0-.1.07-.2.11-.29-.43,17.46-.5,34.93-.91,52.4-.4,17.29-1,34.57-1.53,51.86q-.28,9.74-.48,19.49c-4.08-12.09-7.66-24.34-10.94-36.7-5-18.88-9.5-37.9-14.18-56.87l-.12-.51a2.88,2.88,0,0,0,.58-1.65,2.57,2.57,0,0,0-1.57-2.41l-.93-3.84A22,22,0,0,0,110.41,430.88Zm-9.28,0c.44,1.88.89,3.75,1.33,5.62a8.39,8.39,0,0,1-2.79.14,38.08,38.08,0,0,1-6.81-2c-5.46-1.89-11-3.73-16.27-6-9.63-4.08-20-9.69-25.5-18.93-.41-.67-.78-1.36-1.13-2.06-.19-.4-.38-.8-.55-1.2,0,0-.28-.74-.34-.91a13.34,13.34,0,0,1-.43-1.53,2.33,2.33,0,0,1,0-.28s0-.26,0-.39c3.05.46,6.1.79,9.18,1.06a32.57,32.57,0,0,1,9,2.47c5.87,2.28,11.1,5.85,16.17,9.52,2.66,1.92,5.27,3.91,8,5.74A49.33,49.33,0,0,1,98.32,428c.59.6,1,1.37,1.63,1.95A10.15,10.15,0,0,0,101.13,430.89Zm0-140.45a62.26,62.26,0,0,1,9-9.56,39.56,39.56,0,0,1,10.31-6.53,11,11,0,0,1,2.18-.67l.4,0a13.73,13.73,0,0,1-1,1.47,74.82,74.82,0,0,1-8.53,9.18c-3.23,2.95-6.61,5.75-9.71,8.83s-5.66,6.13-8.47,9.2c-1.48,1.62-3,3.23-4.6,4.74A126.41,126.41,0,0,1,101.1,290.44ZM155.52,22.21a35.47,35.47,0,0,1,6.68-7.73c1.37-1.23,2.79-2.4,4.25-3.53l.77-.61a38.62,38.62,0,0,1-2.34,7.89,50.8,50.8,0,0,1-5.21,10.13,40,40,0,0,1-7,7.29c-1.29,1.1-2.58,2.2-3.85,3.33C150.52,33.17,152.31,27.36,155.52,22.21Zm-23.75,56a59.62,59.62,0,0,1,8.14-4.94,40.3,40.3,0,0,1,17.89-4.92,38.11,38.11,0,0,1,5.23.28c.7.09,1.4.23,2.11.34a13.22,13.22,0,0,1,1.67.23s.34.31.62.6a9.59,9.59,0,0,1-3.16,2.31A44.74,44.74,0,0,1,155.38,75c-3.2.77-6.44,1.56-9.7,2-3.8.52-7.64.67-11.45,1.12l-2.86.33C131.5,78.38,131.63,78.28,131.77,78.19Zm-16.41-19c-2.65-6.69-5.19-13.3-6.27-20.46a17.2,17.2,0,0,1-.21-2.85,4.3,4.3,0,0,1,.16-1.33,1.29,1.29,0,0,1,.57-.92c.37-.24,1.2.2,1.76.62a22.54,22.54,0,0,1,2.89,2.89c3.84,4.32,5.42,10.52,6.36,16.08a88.83,88.83,0,0,1,.62,20C119.17,68.54,117.22,63.85,115.36,59.16ZM107,135.29c2.61-2.85,5.45-5.51,8.25-8.17,4.81-4.55,10.85-8.77,17.7-9a17.93,17.93,0,0,1,5,.54c.52.14,1,.29,1.54.47l.74.28.15.06.44.21a12.9,12.9,0,0,1,1.53.88l.07,0,.28.24.25.26s0,0,0,0v0l-.06.11c-.06.07-.37.4-.63.65-2.41,2.27-5.61,3.66-8.61,5-3.29,1.44-6.51,3-9.78,4.5a60,60,0,0,1-12.37,4.07c-1.9.41-3.81.77-5.72,1.15C106.19,136.18,106.58,135.73,107,135.29ZM94.05,119.83c-2.93-7.21-5.3-15-5.54-22.87-.07-2.2-.22-4.41-.24-6.61A7.17,7.17,0,0,1,89.11,87c.23,0,0-.07.29.11a1.62,1.62,0,0,1,.48.35,17.35,17.35,0,0,1,2.33,3.72,43.82,43.82,0,0,1,3.63,10,75.9,75.9,0,0,1,2.33,22.42c0,1.81-.16,3.61-.28,5.42C96.64,125.93,95.29,122.91,94.05,119.83Zm-31.5,77.05a87.4,87.4,0,0,1,3.14-14.13c2.17-7,5.23-13.72,10.21-19.19.49-.54,1-1.07,1.53-1.56.27-.26.55-.5.83-.73h0l.42-.28a14,14,0,0,1,0,2.89c-.24,1.83-.59,3.65-1,5.44a60.14,60.14,0,0,1-3,9.44,63.58,63.58,0,0,1-4.77,8.72,74.92,74.92,0,0,0-4.67,8.87A46.29,46.29,0,0,1,62,202.27C62.12,200.49,62.31,198.7,62.55,196.88ZM63,77.8A119.71,119.71,0,0,1,79.17,56.07a76.42,76.42,0,0,1,5.6-5.2c1.13-1,1.76-1.74,2.74-1.9.31,1.7-.26,3.36-.58,5.09a37,37,0,0,1-2,6.66,48.11,48.11,0,0,1-6.73,11.61A174.7,174.7,0,0,1,58.67,93.58c-1.86,1.77-3.76,3.5-5.68,5.2A113.81,113.81,0,0,1,63,77.8ZM45.19,110.49a4.77,4.77,0,0,0-1.19.19l-1,.41c-.09,0-.44-.1-.56-.14-.41-.13-.82-.28-1.22-.45-2.16-.9-4.16-2.29-6.26-3.34-4.39-2.19-8.66-4.53-12.93-6.94a87,87,0,0,1-12-7.54,13.24,13.24,0,0,1-3.31-3.61,13.38,13.38,0,0,1-1.37-4.6,24.58,24.58,0,0,1-.25-4.92,9.16,9.16,0,0,1,.38-2.16c0-.15.25-.75.21-.65.07-.17.17-.34.26-.51s.46-.59.26-.37c.29-.33.3-.32.54-.43-.35.16.41-.11.52-.13a7.06,7.06,0,0,1,.73,0,4.59,4.59,0,0,1,1,.12,25.84,25.84,0,0,1,4.78,1.66,72.2,72.2,0,0,1,10.75,5.52,47.93,47.93,0,0,1,9.58,8.34c3.14,3.56,5.49,7.71,8.17,11.6.69,1,1.43,2,2.19,2.91.24.29.49.62.75.95C45.19,107.75,45.19,109.12,45.19,110.49ZM50,19.42c-.47,8.75-1.62,17.46-2.58,26.17a107.56,107.56,0,0,1-5.2-13.71A28.62,28.62,0,0,1,41.85,17a55.53,55.53,0,0,1,2.2-6.68c.11-.29.22-.57.34-.86,0,0,.26-.59.31-.7a16.87,16.87,0,0,1,1.23-2.25,3.93,3.93,0,0,1,.29-.42l.1-.11.36-.41a2.28,2.28,0,0,1,.26-.18l.07,0a3.57,3.57,0,0,0,.38.3c.16.15.65.71.58.62a7.78,7.78,0,0,1,1.1,2.08C50.31,11.89,50.23,15.7,50,19.42ZM10.77,202.81a7.41,7.41,0,0,1-1.69-3.29,2.78,2.78,0,0,1,.75-2.44c.07,0,.43-.3.55-.37l.19-.09a3.59,3.59,0,0,1,.35-.12c.3-.1.6-.17.9-.24l.54-.1h.24a24.36,24.36,0,0,1,4.27.05,70.45,70.45,0,0,1,23.19,6.44,96.15,96.15,0,0,1,9.6,5.15c-2.1.23-4.19.59-6.26.94a100.58,100.58,0,0,1-12.93,1.71C23.07,210.73,15.62,208.54,10.77,202.81Z"/></g></g></svg>