<svg xmlns="http://www.w3.org/2000/svg" viewBox="0 0 326.31 673.8"><defs><style>.cls-1{fill:#3a3a3a;}</style></defs><title>Asset 5</title><g id="Layer_2" data-name="Layer 2"><g id="Layer_3" data-name="Layer 3"><path class="cls-1" d="M73,322.26c2,2.46,3.66,5.24,5.46,7.85s3.88,5.37,5.86,8a80.66,80.66,0,0,0,7.28,8.79,79.7,79.7,0,0,0,6.89,5.69,20.13,20.13,0,0,0-2.18,3.46,10.31,10.31,0,0,0-.22,7.59c1.63,5,5,9.18,8.62,12.82a81,81,0,0,0,12,9.8c4.46,3,9.29,5.49,13.32,9.07a13.56,13.56,0,0,1,4,5.54,23.21,23.21,0,0,1,1.17,7.17c.17,5.72-2.08,11.32-1.12,17,1.71,10.14,13.2,15.75,21.87,18.87,6,2.15,12.16,2.83,18.33,4.15a30.77,30.77,0,0,1,8.5,2.91,17.56,17.56,0,0,1,2.44,1.68c1,1.71,1.91,3.43,2.85,5.15a2.18,2.18,0,0,0,.33.45c-2.49,30.83-8.29,61.41-15.2,91.51-4.51,19.6-10.78,38.81-19.91,56.77-9.26,18.23-21.46,34.7-33.66,51-3,4.07-6.1,8.15-9.11,12.25-2.1,2.85,2.67,5.59,4.74,2.77,12.1-16.45,24.83-32.5,35.4-50a229.82,229.82,0,0,0,23.65-55c5.7-19.79,9.68-40.23,13.2-60.51a504.09,504.09,0,0,0,7.27-62.7,426.22,426.22,0,0,0-2.76-68.61,2.08,2.08,0,0,0,1-1.4,10.93,10.93,0,0,1,3.51-5.85,18.79,18.79,0,0,1,6.22-4c2.67-.85,5.48-1.13,8-2.42s4.71-3.7,6.68-5.86a133.49,133.49,0,0,1,13-12.32,69.42,69.42,0,0,1,13.48-9.27,36.14,36.14,0,0,1,14.92-3.73c5.3-.25,10.64-.06,15.87-1.11a24,24,0,0,0,13.5-7.66,9.2,9.2,0,0,0,2.42-8.12,11,11,0,0,0-1.65-3.65,13.91,13.91,0,0,1-1.85-3.09,2.37,2.37,0,0,1-.1-1s0-.28.05-.29a5.47,5.47,0,0,1,.26-.9,10.37,10.37,0,0,1,1.52-2.53,28.59,28.59,0,0,1,4.58-4.42,79.59,79.59,0,0,1,14-8.61c5.54-2.81,11.58-5.61,15.85-10.26,2.12-2.32,3.82-5.45,2.72-8.65-1.58-4.56-6.38-6.15-10.82-5.93-12.17.58-22.75,7.39-31.95,14.78-2.49,2-4.9,4.11-7.4,6.08-1.15.91-2.36,1.76-3.57,2.6-.62.43-1.25.83-1.9,1.23s-.58.4-.89.37h0c-.08-.1-.25-.27-.27-.25q-.21-.33-.39-.66c-.06-.12-.11-.24-.17-.35s-.11-.24-.16-.36c.07.18.06.16,0-.07a14.65,14.65,0,0,0-2.16-4.15c-3.12-3.58-7.92-.44-10.89,1.67a74.5,74.5,0,0,0-12.78,11.34c-1,1.11-2,2.23-2.89,3.37a8,8,0,0,1-1.83,2,7.39,7.39,0,0,1-1.07-2.39,27.29,27.29,0,0,1-.56-3.68,6.58,6.58,0,0,0-1.7-3.75,5.53,5.53,0,0,0-4.77-1.2c-4.16.52-8.06,2.94-11.24,5.57a52.8,52.8,0,0,0-8.35,9.31,18.74,18.74,0,0,0-.07-5.23,1.78,1.78,0,0,0-1.72-1.3c-4.34,0-7.61,3-10.4,6a38.77,38.77,0,0,0-6.91,10.74,84.19,84.19,0,0,0-5.32,16.25q-.65-3.72-1.32-7.44a116.89,116.89,0,0,1-1-25,158.91,158.91,0,0,1,6.35-32.47c3.11-10.55,6.83-21,10.79-31.21a150.66,150.66,0,0,1,14.16-28.59c1.62-2.48,3.3-4.91,4.94-7.39.58-.87,1.15-1.76,1.72-2.64-.25.91-.47,1.84-.66,2.78s-.33,1.73-.47,2.6c0,.32-.07.8-.1,1.26a6,6,0,0,0-3.44,3.71,8.34,8.34,0,0,0-.05,6.61c2,4.08,7,3.28,9.58.22a7.93,7.93,0,0,0,2-5.41,5.71,5.71,0,0,0-2.78-4.61c.08-.62.16-1.24.27-1.85A43.85,43.85,0,0,1,227,198a35.27,35.27,0,0,1,4.31-9.62c1.8-2.6,3.37-5.53,5.93-7.47a28.11,28.11,0,0,1,2.58-1.71A33.16,33.16,0,0,0,237.2,187c-.07.34-.11.68-.16,1a90.05,90.05,0,0,0-3.5,10.64c-2.15,8.53-2.9,18.22-.39,26.76l.09.27a4.15,4.15,0,0,0-1.54,1.49,5.58,5.58,0,0,0-.45,3.86c-1,1.46.06,3.17,1.49,3.8.16.23.33.46.5.72a8.3,8.3,0,0,0,.68,1.09,5.31,5.31,0,0,0,3.42,1.72,4.32,4.32,0,0,0,3.48-1.61,5.87,5.87,0,0,0,1.27-3,2.66,2.66,0,0,0,.9-2.06c-.33-2.63-1.23-4.9-3.81-6l-.35-.14a33.37,33.37,0,0,1-1.16-4.47,45.06,45.06,0,0,1-.49-11.19,52,52,0,0,1,.79-6.35,6.49,6.49,0,0,0,1.08,0,6.6,6.6,0,0,0,5.61-1.3,5.28,5.28,0,0,0,1.93-3.93,6.26,6.26,0,0,0,.87-2.33l.36,1.59A111.15,111.15,0,0,0,251,208.51a40.4,40.4,0,0,0,2.32,5.41q.34.66.72,1.29c-.28.4-.54.81-.77,1.19a7.32,7.32,0,0,0-.41.78,13.59,13.59,0,0,0-1.6,1.52,10,10,0,0,0-2.3,3.87,6.09,6.09,0,0,0,1.19,5.22c2.89,3,7.25.47,9.54-2,.24-.26.48-.54.71-.82a8.46,8.46,0,0,0,1.94-2.49,4.48,4.48,0,0,0,.4-1.27,13.21,13.21,0,0,0,1.05-3.38,5.64,5.64,0,0,0-1.39-5,4.2,4.2,0,0,0-4.05-1.13l-.09-.15a31.52,31.52,0,0,1-2-4.69,110.33,110.33,0,0,1-3.06-10.73c-.31-1.31-.59-2.62-.85-3.94,1,1.48,2.15,2.93,3.33,4.34a94.19,94.19,0,0,0,9.62,9.85c3.26,2.91,6.69,5.86,10.72,7.64a21.39,21.39,0,0,0,5.38,1.57,4.32,4.32,0,0,0,1,3.66c2.1,2.24,5.5,1.48,7.35-.65a7.11,7.11,0,0,0,1.18-2,6.67,6.67,0,0,0,1.12-1.43,5,5,0,0,0,.36-4.12,3.44,3.44,0,0,0-1.58-1.79,4.06,4.06,0,0,0-1.6-.95,3.25,3.25,0,0,0-3.66,1.28l-.17.22-.45.39-.46.28a15.62,15.62,0,0,1-2.27-.11,15.21,15.21,0,0,1-5-1.63,45.22,45.22,0,0,1-9.07-6.75c-6-5.38-11.66-11.46-15.53-18.61-.7-1.28-1.34-2.6-2-3.92,0-.58-.1-1.15-.13-1.73.63.61,1.27,1.21,1.91,1.77,2.86,2.48,5.81,4.87,8.85,7.12a62.77,62.77,0,0,0,8.74,5.71,30.9,30.9,0,0,0,5.56,2.09,8.06,8.06,0,0,0-.86,1.61,6.15,6.15,0,0,0-.24,3.45c.37,1.77,1.47,2.38,3.05,3,1.34.49,2.56.09,3.89-.21a8.18,8.18,0,0,0,3.55-1.84,7.21,7.21,0,0,0,2.58-6.61c-.58-3.23-3.7-4.24-6.45-3.54a36,36,0,0,1-8.94-2.85,69.21,69.21,0,0,1-8.57-5.64c-2.18-1.61-4.29-3.32-6.37-5.06a99.8,99.8,0,0,0,11.68,1.53c9.1.64,18.2-.13,26.26-4.74a30.61,30.61,0,0,0,2.95-1.94c4.13,2,11.68-1,10.74-6.33a7.63,7.63,0,0,0-12.74-4c-1.68,1.7-2.69,4.26-1.71,6.51a28.7,28.7,0,0,1-3.61,2.16,31.31,31.31,0,0,1-11.19,3.22,77.25,77.25,0,0,1-19.38-.76c1.2-.19,2.41-.39,3.6-.64A66.35,66.35,0,0,0,283,164.19c5.26-3,10.42-7.3,13.57-12.56.3-.5.59-1,.87-1.58a7.59,7.59,0,0,0,3.7-10.49,7.35,7.35,0,0,0-7.28-3.3,4,4,0,0,0-1.62.39,6.18,6.18,0,0,0-2.87,2.22,8.15,8.15,0,0,0-1.49,4.45,10.79,10.79,0,0,0,.26,1.92A5.57,5.57,0,0,0,290,149a14.82,14.82,0,0,0,1.16,1.08,26.78,26.78,0,0,1-4.37,4.88,39.55,39.55,0,0,1-6,4.37,2.35,2.35,0,0,0,.17-.51,4.26,4.26,0,0,0,.06-.5,5.15,5.15,0,0,0-1.1-5.13,7.54,7.54,0,0,0-1.65-1.23,6.14,6.14,0,0,0-6-1.82,7.06,7.06,0,0,0-4.73,5,7,7,0,0,0-.23,2.7,2,2,0,0,0,.11,1.05,4.11,4.11,0,0,0,1.71,2.47l.23.14c-1.4.82-2.87,1.54-4.26,2.29a56,56,0,0,1-9.47,4.1l-.6.2c-1,.11-2,.2-3,.27a67.64,67.64,0,0,0,19.82-21.11,46.55,46.55,0,0,0,5.78-15.81,7.19,7.19,0,0,0,4.27-5.48,5.63,5.63,0,0,0-.46-4.23c-.78-1.22-1.73-2.48-3.53-2.69a5.65,5.65,0,0,0-2.54.33,6.12,6.12,0,0,0-2.56-.47,5.53,5.53,0,0,0-3.67,1.8,5.93,5.93,0,0,0-1.16,1.48,6.16,6.16,0,0,0,1.35,7.61,8.94,8.94,0,0,0,2.89,1.77v0a46.51,46.51,0,0,1-9.65,20,65.25,65.25,0,0,1-8.73,8.93,63.3,63.3,0,0,0,7.92-24.19c.72-5.74.48-11.9-1.74-17.3a20.88,20.88,0,0,0-2.09-4,25.85,25.85,0,0,0-3-3.72,4,4,0,0,0-.35-.87,4,4,0,0,0-1.65-1.64,7.62,7.62,0,0,0-.71-.77c-1.3-1.18-3-1-4.45-.69a5.27,5.27,0,0,0-3.93,5.33,7.14,7.14,0,0,0-.29,5,4.43,4.43,0,0,0,4.22,3.17,6.59,6.59,0,0,0,5.3-3.17c.28.4.54.81.77,1.21a17.64,17.64,0,0,1,1.82,4.37,30.39,30.39,0,0,1,.86,10.57,6.16,6.16,0,0,0-3.88-3.47l-.64-.13a5,5,0,0,0-3.2-.1c-1.65.6-2.79,2.31-3.47,3.84a6.39,6.39,0,0,0,0,5.58,5.4,5.4,0,0,0,4.9,3.2l.38,0a51.6,51.6,0,0,1-1.06,8.4,59.7,59.7,0,0,1-3.33,10.64c-1.15-11-3.08-21.86-8.13-31.91a40,40,0,0,0-2.93-5.06,4,4,0,0,0,.18-1.09,5.31,5.31,0,0,0-2.41-4.65,6.27,6.27,0,0,0-3.91-.73,5.78,5.78,0,0,0-3.26.71,6.51,6.51,0,0,0-1.39,1.05,4.94,4.94,0,0,0-2.19,4.3,4.86,4.86,0,0,0,.05.56,5.89,5.89,0,0,0,3.06,5.53,4,4,0,0,0,1.09.36c.15.07.29.15.44.21a5.09,5.09,0,0,0,5.41-.74,61.7,61.7,0,0,1,6,15.21c.48,1.82.88,3.66,1.22,5.51a36,36,0,0,0-3-5,28.35,28.35,0,0,0-8.77-8.16c-1.64-4-7.21-6.78-9.74-2.07,0,.06-.05.12-.08.17a5.67,5.67,0,0,0,.18,7.85,4.23,4.23,0,0,0,2.62,1.15,4.8,4.8,0,0,0,3.17-.2,5.5,5.5,0,0,0,2.64-1.13l.71.54a25,25,0,0,1,5.27,5.69,31.27,31.27,0,0,1,3.64,7.06c.12.36.22.73.33,1.09-1.15-.86-2.33-1.7-3.54-2.5-6.2-4.14-12.53-8-19.53-10.61-3.32-1.25-6.74-2.46-10.16-3.43a18.46,18.46,0,0,0-2-2.58c-3.06-2.62-7.22-1.47-9.3,1.6a7.93,7.93,0,0,0-2.55,3.65c-1,3.09.51,6.81,3.84,7.57a5.37,5.37,0,0,0,2.36,0,4.84,4.84,0,0,0,5.05-1.25,6.4,6.4,0,0,0,.67-.81,7.6,7.6,0,0,0,1.81-2.5l.77.25c3.71,1.24,7.48,2.38,11.08,3.94a83,83,0,0,1,10.67,5.85c2,1.24,4,2.5,6,3.83A44.34,44.34,0,0,0,218,157.76a35.41,35.41,0,0,0-13.39,1.87,50.66,50.66,0,0,0-5.28,2,5.05,5.05,0,0,0-5.47.43,7.79,7.79,0,0,0-1.78,1.88,5.24,5.24,0,0,0-1.29,2.26,9.49,9.49,0,0,0-.22,2.35,4.58,4.58,0,0,0,.1.89c0,.27,0,.55,0,.84a3.83,3.83,0,0,0,.32,2.44,5.83,5.83,0,0,0,1.4,1.52c1.85,1.43,3.68,1.07,5.5,0a4.62,4.62,0,0,0,1.07-.84,4.36,4.36,0,0,0,2.37-2.4,4.6,4.6,0,0,0,.9-4.7,42.71,42.71,0,0,1,4.68-1.69,30.74,30.74,0,0,1,11.51-1.37,40.5,40.5,0,0,1,13.88,3.93c-1.62.07-3.25.2-4.88.41a27.93,27.93,0,0,0-8.26,2.31c-.38.18-.77.37-1.15.58l-.66-.58a4,4,0,0,0-4.74-.52,4,4,0,0,0-2.88,3.75,8.6,8.6,0,0,0-.33,1.28,7.22,7.22,0,0,0-.93,3.3,4.61,4.61,0,0,0,1.83,3.83c-5.49,2.73-10.94,5.53-16.86,7.23l-4.23,1.25a7.35,7.35,0,0,0-4.94-3.7c-3.92-.84-7.77,1.59-7.91,5.77a7,7,0,0,0,6.53,7.35H183a4.45,4.45,0,0,0,2.84-.45l.07,0a6.68,6.68,0,0,0,3.81-3.35c1.66-.49,3.32-1,5-1.47a77.48,77.48,0,0,0,12.38-4.88c3.92-1.89,7.77-3.92,11.73-5.72a120.74,120.74,0,0,1,12-4.35l.73-.25a17,17,0,0,0-1.34,1.57c-.49.67-1,1.36-1.42,2.05l-.43.26c-.71.43-1.39.84-2.06,1.34a29.67,29.67,0,0,0-5.7,5.77c-3.19,4.17-5.77,8.82-8.61,13.23a159.72,159.72,0,0,0-14.59,29.18c-4,10.21-7.54,20.65-10.66,31.15a173.3,173.3,0,0,0-6.66,33.12q-.24,2.52-.36,5c-1.72-7.75-3.6-15.45-5.51-23.15a2.45,2.45,0,0,1-.38-.87c-.27-1.23-.53-2.45-.8-3.68-.23-.73-.47-1.46-.69-2.14a3,3,0,0,1-.13-1.23.77.77,0,0,1,0-.15c-6.39-25.33-12.91-50.62-16-76.67-2.49-21.21-3.71-42.65-4.24-64-.22-9-.26-18.31.42-27.54a5.8,5.8,0,0,0,5.25,3.59,6.23,6.23,0,0,0,5.13-3.22A10.52,10.52,0,0,0,164,94.32a2.74,2.74,0,0,0,.47-1.5,9,9,0,0,0-1.06-3.61,11.16,11.16,0,0,1-.62-2.7,54,54,0,0,1-.38-7.73c0-2.75.26-5.49.46-8.24.41.71.83,1.4,1.26,2.09a59.08,59.08,0,0,1,1.18,11.1c.08,4-.11,8-.4,12-.34,4.63-.87,9.27-.76,13.92a55.76,55.76,0,0,0,.85,8.14c.22,1.27.47,2.54.81,3.79h0a7.27,7.27,0,0,0-7.15,4.12c-1.21,2.19-1.7,5,.1,7a4.77,4.77,0,0,0,1.38,1.06,4.58,4.58,0,0,0,.59.45,5.3,5.3,0,0,0,6.35-.82c3.17-1.31,6-3.79,5.89-7.42A6,6,0,0,0,172,123c0-.2-.06-.4-.11-.61-.28-1.13-.82-2.15-1.08-3.3a46.88,46.88,0,0,1-1.09-7.06,98.42,98.42,0,0,1,.53-14.86A122.31,122.31,0,0,0,170.63,81c.25.26.5.5.76.75,2.19,6.75,4.2,13.71,7.63,19.94a27.42,27.42,0,0,0,3.11,4.71c.35.4.77.75,1.14,1.12l.14.14a1.14,1.14,0,0,1-.11.11,7.45,7.45,0,0,0-1.17,1.51,8.78,8.78,0,0,0-.91,3.7c-.29,4.21,1.52,10.62,6,12.06,2.67.86,5.32-.78,6.81-2.94a9.88,9.88,0,0,0,1.22-6.9c.54-2.18.26-4.55-1.61-6a4.76,4.76,0,0,0-2.48-1,5.87,5.87,0,0,0-1.82-.66,7.08,7.08,0,0,0-2.44-4A20.52,20.52,0,0,1,183.28,98a57.25,57.25,0,0,1-3-7c-.26-.7-.49-1.42-.74-2.13,5.82,4.44,12.29,8,19.65,9a32.31,32.31,0,0,0,5.55.32,6.35,6.35,0,0,0,1.13,5.23,10.25,10.25,0,0,0,7.15,3.89c3.44.24,5.44-2.48,5.72-5.62a8.68,8.68,0,0,0,0-1.14,5.15,5.15,0,0,0,.93-2.66,5.69,5.69,0,0,0-3.32-5.74,2.2,2.2,0,0,0-.94-.92c-2.31-1.12-4.7-.42-6.65,1a28.28,28.28,0,0,1-16.65-2.06,6.58,6.58,0,0,0,2-1.16,7.2,7.2,0,0,0,2.38-3.89,8.36,8.36,0,0,0,1.24-5.23,46.82,46.82,0,0,0,5.18.5c6.57.24,13-1.48,19.05-3.93a7.81,7.81,0,0,0,3.37,4.91,5.33,5.33,0,0,0,5.62-.33,6.59,6.59,0,0,0,2.67-5.57,13.15,13.15,0,0,0-1.12-5.13c-1-3.43-3.33-6.79-7.4-5.27a6,6,0,0,0-1.49.82,3.19,3.19,0,0,0-1.41,1.62c0,.08-.1.15-.14.24a6.93,6.93,0,0,0-.46,2.95l-.11.05L221,71a87.31,87.31,0,0,1-8.93,3c-5.73,1.61-11.73,1.19-17.5-.22A3.12,3.12,0,0,0,192,73c-1.9-.57-3.77-1.23-5.59-1.94-3.3-1.31-6.5-2.85-9.66-4.48,1.06.08,2.13.13,3.2.13a35.15,35.15,0,0,0,13.89-2.87,40.18,40.18,0,0,0,11.53-7,39.32,39.32,0,0,0,8.24-10.56c.33-.62.67-1.27,1-1.93a6.55,6.55,0,0,0,10.5-4.2,12.25,12.25,0,0,0-3.7-11.64c-1.51-1.44-3.61-2.62-5.75-1.94A5.87,5.87,0,0,0,212.05,31a3.8,3.8,0,0,0-1.22,1.21c-.78,1.26-.67,2.7-.75,4.11a8.3,8.3,0,0,0,.62,3.6c-.5,1.09-1.06,2.13-1.53,3a35.5,35.5,0,0,1-6.92,9.31,30.24,30.24,0,0,1-4.49,3.55,11.67,11.67,0,0,0-2-8.44,8.64,8.64,0,0,0-.24-.83,2.72,2.72,0,0,0-1.91-1.92,5.15,5.15,0,0,0-2.49.06A5.57,5.57,0,0,0,187,46.16a5.49,5.49,0,0,0-1.64,4,5.6,5.6,0,0,0-.36,1.7c-.26.2-.56.39-1,.65a39.37,39.37,0,0,1-5,2.72A34.37,34.37,0,0,1,169,57.71c4.8-5,10-9.65,13.62-15.61a45.84,45.84,0,0,0,4.58-10.41,43.11,43.11,0,0,0,2.28-11.23,3.8,3.8,0,0,0,1.93-.76,2.87,2.87,0,0,0,1.26-3.1,12.23,12.23,0,0,0-.73-2.06,9.62,9.62,0,0,0-.35-2.54,5.89,5.89,0,0,0-5.22-4.4,1.87,1.87,0,0,0-1.14.22,2.37,2.37,0,0,0-2.67,1.94,11.56,11.56,0,0,0,1.35,7.92,23.2,23.2,0,0,1,0,4.41A51.57,51.57,0,0,1,182.25,29a41.78,41.78,0,0,1-2,5.76,39.6,39.6,0,0,1-5.41,8.77c.35-1.16.66-2.33.93-3.53.6-2.73,1.31-5.42,1.69-8.19a4.57,4.57,0,0,0,2.49-3.2,2.9,2.9,0,0,0,.16-.41c.84-2.85.7-6.53-1.55-8.71a5.32,5.32,0,0,0-5.06-1.35A3.86,3.86,0,0,0,171,20.74a6.2,6.2,0,0,0-1.1,3.31,5.42,5.42,0,0,0,.21,1.52,6.78,6.78,0,0,0,2,5.35c0,.23-.05.45-.08.63-.4,2.49-1.11,4.92-1.63,7.39a30.45,30.45,0,0,1-3.73,9.61c-.19.3-.39.59-.59.89.16-3.24.18-6.5,0-9.75a97.09,97.09,0,0,0-1.47-15.22,43.43,43.43,0,0,0-2.51-7.87c-.71-1.71-1.45-3.44-2.31-5.09.1-.22.2-.44.28-.66a4.42,4.42,0,0,0,.55-1.11,5.69,5.69,0,0,0-1.23-5.19C157.94,1.78,155.2-.68,152,.17c-2.8.74-3.39,5-2.65,7.43a6.46,6.46,0,0,0,.26.69c0,2.45,2.48,5.47,4.85,6a5.58,5.58,0,0,0,.68.1c.29.57.57,1.15.85,1.74l.69,1.55a1.44,1.44,0,0,0,.08.17.79.79,0,0,0,0,.12l.36.87c2.66,6.63,3.15,13.56,3.46,20.63a108.16,108.16,0,0,1-.08,11.1c-1.65-3.53-3.27-7.08-4.75-10.68-2.08-5-3.76-10.23-5.69-15.32-.78-2.06-1.59-4.17-2.51-6.22.49-3.35-.58-7.17-3.49-9a5.78,5.78,0,0,0-1.71-1.06,2.53,2.53,0,0,0-1.73.08,5.37,5.37,0,0,0-.9.07,4.77,4.77,0,0,0-5,2.89c-1.48,3,.05,6.21,2.5,8.18a7.88,7.88,0,0,0,5.53,1.71c3.32,7.31,5.52,15.13,8.66,22.52,1.31,3.08,2.7,6.13,4.11,9.16a10.06,10.06,0,0,1-3.06-1,40.77,40.77,0,0,1-7.72-5.32c-.84-.7-1.65-1.44-2.43-2.21a11.89,11.89,0,0,0,1.48-.62,2.7,2.7,0,0,0,1.36-2.37c-.14-6.47-6.07-12.84-12.86-11.48a6.56,6.56,0,0,0-5.24,6.81c.12,3,1.77,6.41,4.84,7.31a5.29,5.29,0,0,0,.54.13,7,7,0,0,0,3,.75,37.65,37.65,0,0,0,5.44,5.56,47.61,47.61,0,0,0,8.64,6.09,17.66,17.66,0,0,0,4.58,1.69c-.37.24-.74.48-1.11.7a2.68,2.68,0,0,0-.6.1c-1.83.53-3.66,1-5.51,1.54-1,0-2-.09-3-.18a46.67,46.67,0,0,1-13-3.12c-6.87-2.85-11.46-8.58-14.89-15a5.48,5.48,0,0,0,.84-2.7,10.2,10.2,0,0,0,.31-5.7,7.21,7.21,0,0,0-3.94-4.8,4.89,4.89,0,0,0-5.61,1.66c-3,3.57-3.87,12.53,1.47,14.08a4.41,4.41,0,0,0,2,.49,1.83,1.83,0,0,0,.33,0l.2.39a43.9,43.9,0,0,0,6.75,9.42,31.79,31.79,0,0,0,14.21,8.52c-1.82.28-3.65.52-5.48.69a77.2,77.2,0,0,1-12.81.19,73.57,73.57,0,0,1-12.54-1.7,18.67,18.67,0,0,1-2.43-.8c.69-3.53-1-7.8-4.05-9.54-3.58-2-7.18.36-8.52,3.82a7.25,7.25,0,0,0-.32,1.1,5,5,0,0,0-.54.49,4,4,0,0,0-.89,3.53,3.11,3.11,0,0,0,1.07,1.85,4,4,0,0,0,2.76,3.35,4.47,4.47,0,0,0,1.5.22A7.4,7.4,0,0,0,96,66.6a24.87,24.87,0,0,0,3.68,1.34,77.78,77.78,0,0,0,13.07,1.94,74.87,74.87,0,0,0,7.92.28,11.28,11.28,0,0,0-.54,6.9,7,7,0,0,0,1.78,3.24l.09.18a2.94,2.94,0,0,0,.56.68,16.53,16.53,0,0,0,2.09,2.6,2.92,2.92,0,0,0,2.54.76,107.14,107.14,0,0,1-11.42,5.11,38.11,38.11,0,0,0-3.67,1.7,22.86,22.86,0,0,1-2.91,1.5,6.67,6.67,0,0,1-.89.25,6.93,6.93,0,0,0-2.4-2.72,4.54,4.54,0,0,0-1.28-.52c-1.71-1.11-4.23-1.57-5.82-.11a4.31,4.31,0,0,0-3.33,3.45,6.39,6.39,0,0,0,1.11,4.67A9,9,0,0,0,99,100.47c1.48,1.48,3.51,2.43,5.5,1.8l.11,0,.09,0a4,4,0,0,0,.47-.21l.07,0,.09-.06.28-.2a3.2,3.2,0,0,0,.73-.74,4.06,4.06,0,0,0,.59-.19,3.75,3.75,0,0,0,2.1-2.26,19.69,19.69,0,0,0,5.47-2.25c4.49-2.48,9.52-3.83,14.06-6.23a89.19,89.19,0,0,0,13.35-9.24c2.66-2.1,5.33-4.21,7.88-6.44-2.93,6.14-5.73,12.35-9,18.3a74.33,74.33,0,0,1-8,11.83,108.94,108.94,0,0,1-11.24,11c-.15.14-.32.27-.48.41-1.41-2.42-3.77-3.94-6.9-3.11-4.3,1.15-5.85,6-4.21,9.75a4.72,4.72,0,0,0,0,.66c.06,5,6.64,8.6,10.45,4.88a8.73,8.73,0,0,0,2.22-6.34c1.32-1,2.59-2.14,3.83-3.26a105.43,105.43,0,0,0,10.75-10.7A94.69,94.69,0,0,0,148.34,90c-.84,6.24-1.31,12.55-1.63,18.77-1.11,21.47.4,43.27,2.08,64.67A430.86,430.86,0,0,0,157.94,236c.85,3.69,1.75,7.37,2.67,11.05a118.86,118.86,0,0,0-6.71-12,132.56,132.56,0,0,0-11.15-14.82,34,34,0,0,0-9-7.74,11.32,11.32,0,0,0-6.34-1.68,6.83,6.83,0,0,0-3.87,1.66c-.76-1-1.5-2-2.27-3a44.12,44.12,0,0,0-4.43-4.64,59.11,59.11,0,0,0-10.61-7.79c-3-1.71-6.68-3.93-10.24-3a5.44,5.44,0,0,0-2.17,1.1c-1.17-1.12-2.41-2.18-3.67-3.18a35.75,35.75,0,0,0-9.83-5.68,24.31,24.31,0,0,0-10.39-1.68A8.63,8.63,0,0,0,65,186.42a8.18,8.18,0,0,0-.81.74,12.82,12.82,0,0,0-1.43-1.78,24.18,24.18,0,0,0-4.33-3.19,72.18,72.18,0,0,0-9-5.35c-3.06-1.38-6.39-2.43-9.78-2A11.57,11.57,0,0,0,32,178.94a10.4,10.4,0,0,0-2.43,5.23,25.36,25.36,0,0,1-.41,2.59l-.12,0a13.92,13.92,0,0,0-2.58-.24,25.93,25.93,0,0,0-5.81.7,42.9,42.9,0,0,0-10.44,4.14C7.09,193,4.15,195,2.43,198.15A22.76,22.76,0,0,0,0,209.88a61.59,61.59,0,0,0,.72,6.78,9,9,0,0,0,2.11,5.21,2.65,2.65,0,0,0,3.1.4c2.93-1.24,3-5.54,5.07-7.66a17.08,17.08,0,0,1,8-4.18,17.69,17.69,0,0,1,9.22-.11,20.69,20.69,0,0,1,8.06,4.54c1.93,1.81,2.46,4.17,2.85,6.86.47,3.22.8,6.5,2.36,9.42,3.19,6,10.35,8.15,16.69,6.74,5.65-1.25,10.67-4.67,16.43-5.52a8.44,8.44,0,0,1,6.65,1.56c2.49,2,4.21,5,6.15,7.48a28.29,28.29,0,0,0,18.15,10.37,45.14,45.14,0,0,0,11.67.19,45.32,45.32,0,0,1,11.52,0,55,55,0,0,1,10.64,2.72,69.07,69.07,0,0,1,9.8,4.83,76.62,76.62,0,0,1,9.3,6.24c2.79,2.18,5.81,4.11,8.52,6.38l.17.14c2.18,8.29,4.31,16.6,6.18,25,4.66,20.79,8.25,41.91,11.21,63a491.76,491.76,0,0,1,5.16,63.66c.07,8.17-.15,16.32-.61,24.45l0,0c-2.79-5-5.56-10-8-15.11a149.17,149.17,0,0,1-9-23.58c-2.31-8.13-3.17-16.54-4.53-24.85-.4-2.45-.77-4.92-1.22-7.36a18.54,18.54,0,0,0-2.41-7c-1.89-2.83-5.19-4.23-8.43-2.76-1.68.76-2.77,2.3-3.81,3.6A12.54,12.54,0,0,1,150,373c0-1,0-2-.08-2.94-.07-3.32.11-6.62.22-9.93a72.36,72.36,0,0,0-1.74-18.5c-1.12-4.86-2.58-11.05-7.1-13.93a6.69,6.69,0,0,0-7.29.17,18.88,18.88,0,0,0-4.93,5.59,45.06,45.06,0,0,1-3.72,5.4,10,10,0,0,1-2.06,1.85,6.38,6.38,0,0,1-1,.55l-.34.09h-.09l0,0-.14-.09.09.06-.23-.15.14.09-.1-.1-.35-.37,0,0h0c-.24-.36-.46-.71-.66-1.08s-.33-.65-.47-1l-.17-.41a4.68,4.68,0,0,1-.18-.48c-.32-.88-.59-1.77-.84-2.67a80.5,80.5,0,0,1-2.68-12.75c-.69-6.35-.65-12.76-1.28-19.13-.84-8.54-2.61-17.41-7.15-24.82a27.16,27.16,0,0,0-9-9.2c-3.9-2.34-9.21-4.25-13.51-1.87-3.81,2.1-5.34,6.47-7.2,10.12a10.28,10.28,0,0,1-1.47,2.26,3.07,3.07,0,0,1-.26.25l-.4.28-.18.09-.52.15a6.49,6.49,0,0,1-2.27-.25,15.35,15.35,0,0,1-3.51-1.44c-4.53-2.49-8-6.42-11.73-9.95-4-3.83-8-7.83-12.69-10.89a23.54,23.54,0,0,0-7.16-3.3c-3.06-.74-6.67-.09-8.3,2.91-1.26,2.33-.33,5.44.52,7.76a31.32,31.32,0,0,0,4.1,7.51,43.27,43.27,0,0,0,12.88,11.59c4.44,2.68,9,5,12.69,8.51a14.74,14.74,0,0,1,1.17,1.22c-1-.18-1.9-.35-2.86-.45-2.51-.27-5.23.37-6.59,2.7-1.53,2.64-.48,5.67,1,8.07a23.73,23.73,0,0,0,5.33,6.26,88.09,88.09,0,0,0,7.9,5.19A30.51,30.51,0,0,1,73,322.26Zm169.2-133,.24-.62c.89-2.28,1.85-4.53,2.83-6.77a107.39,107.39,0,0,0,1.66,11.45,4.74,4.74,0,0,0-.68-.86,4.52,4.52,0,0,0-4.09-.79A16.09,16.09,0,0,1,242.18,189.3Zm-11.24-15.91c-2.89,1-5.8,1.9-8.68,2.92a5.11,5.11,0,0,0-.31-1.69,22.48,22.48,0,0,1,6.11-1.59,48.1,48.1,0,0,1,5.06-.4C232.39,172.88,231.67,173.15,230.94,173.39ZM183,59.38c1-.5,2.22-1.12,3.44-1.85.2.39.41.76.62,1.09a8.64,8.64,0,0,0,1.26,1.5,29.78,29.78,0,0,1-7.23,1.12q-1.26,0-2.52,0A32,32,0,0,0,183,59.38Zm-.77,18.93c1.18.61,2.39,1.15,3.61,1.66a8.51,8.51,0,0,0-1.94,5.34c-1.38-1-2.73-2.07-4-3.18s-2.45-2.13-3.63-3.25c-.47-1.49-.95-3-1.44-4.48-.14-.44-.3-.88-.45-1.32A47.06,47.06,0,0,0,182.22,78.31ZM157,75.57c-.06,1.07-.11,2.14-.12,3.21a61,61,0,0,0,.35,7.52,24.78,24.78,0,0,0,.61,3.63,3.69,3.69,0,0,0-.49.24A6.11,6.11,0,0,0,155,93a9.09,9.09,0,0,0-1,1.16,10.26,10.26,0,0,0-.89,1.47A117.65,117.65,0,0,1,157,75.57Zm-22.05,3.74a7.34,7.34,0,0,0,0-1.48.13.13,0,0,1,0-.06,28.71,28.71,0,0,0,2.89-.65C136.85,77.86,135.9,78.59,134.94,79.31Zm4.73-8.59a22.3,22.3,0,0,1-6.38,1.8,15.65,15.65,0,0,0-2-3.17q4-.54,8-1.34c2.83-.58,5.64-1.25,8.44-2A43.25,43.25,0,0,1,139.67,70.72ZM158.52,259a72.88,72.88,0,0,0-9.89-6.05,54.93,54.93,0,0,0-22.33-6.77c-4.09-.36-8.07.29-12.14.56-6.8.44-14.52-1-19.73-5.68-5-4.49-7.56-12-14.64-13.73-6.12-1.52-12.09,1.53-17.62,3.74-2.55,1-5.25,2.08-8,2.09A9.5,9.5,0,0,1,46.77,230c-1.91-2.21-2.19-5.46-2.57-8.24-.43-3.21-1-6.23-3-8.84a22.09,22.09,0,0,0-7.81-5.7,20.44,20.44,0,0,0-10.34-2.11c-6.33.41-14.13,2.84-17.51,8.68-.15-1.22-.27-2.45-.31-3.69A18.31,18.31,0,0,1,6.82,201c1.33-2.57,3.66-3.93,6.14-5.26a38.07,38.07,0,0,1,8.64-3.49,20.4,20.4,0,0,1,4.25-.64h1.21c.09,0,1.33.18.52,0,.69.13,1.37.29,2.08.36a3.5,3.5,0,0,0,3.56-1.6,2.43,2.43,0,0,0,.28-1.06,4.2,4.2,0,0,0,.3-.67,14.92,14.92,0,0,0,.38-2.68,6.21,6.21,0,0,1,1.11-3.57,7.39,7.39,0,0,1,2.55-2.2c2.13-1.1,4.61-.83,6.84-.17,3.44,1,6.48,3.08,9.45,5,1.41.93,2.92,1.79,4.26,2.82a14.54,14.54,0,0,1,3.38,4.57,2.53,2.53,0,0,0,2.74,1.11c1.48-.21,2.25-1.55,3-2.66l.06-.1.18-.18a4.22,4.22,0,0,1,.56-.47,3.5,3.5,0,0,1,1.39-.45c2.93-.41,6.12.47,8.86,1.44a28.39,28.39,0,0,1,7.88,4.53,36.13,36.13,0,0,1,5.72,5.41,5,5,0,0,0,2,2.42c2.17,1.35,5-1.39,3.57-3.58-.17-.27-.37-.54-.56-.8a7.58,7.58,0,0,1,3,.62,45.61,45.61,0,0,1,7.36,4.24,52.09,52.09,0,0,1,7.52,6.22c2.46,2.44,4.37,5.34,6.76,7.84a2.45,2.45,0,0,0,3.81-.49,11,11,0,0,1,.58-1,3.06,3.06,0,0,1,.35-.37l.11-.11.07,0a1.81,1.81,0,0,1,1.28-.39A4.88,4.88,0,0,1,130,216a11.5,11.5,0,0,1,2.2,1.09,33.87,33.87,0,0,1,8,7.22,123.32,123.32,0,0,1,17.64,26.81c-1.4-1.49-2.82-3-4.29-4.39a62.65,62.65,0,0,0-11.1-8.62c-3.83-2.35-7.47-5-11.07-7.67-7.36-5.5-14.64-11.27-23-15.16A136.27,136.27,0,0,0,94.7,210a109.28,109.28,0,0,0-14.45-3.9,179.86,179.86,0,0,0-35.43-2.9,1.37,1.37,0,0,0,0,2.74,192.1,192.1,0,0,1,31.78,2.31c9.82,1.53,19.37,4.77,28.52,8.59,8.41,3.5,15.72,9.09,22.94,14.52,3.65,2.74,7.32,5.48,11.15,8,1.93,1.24,3.92,2.37,5.78,3.71a55.24,55.24,0,0,1,5.47,4.53c3.86,3.61,7.4,7.58,10.95,11.49a3.45,3.45,0,0,1,.26.28c.53,1.18,1.05,2.35,1.57,3.53C161.68,261.54,160.13,260.26,158.52,259Zm29.1,84.79A60.45,60.45,0,0,1,189,333.78a82.68,82.68,0,0,1,3.92-12.59,44.37,44.37,0,0,1,5.71-10.67,34.89,34.89,0,0,1,4.43-4.74,10,10,0,0,1,3.79-2.31,24.68,24.68,0,0,1-1.32,7.22c-.41,1.43-.8,2.86-1.17,4.3-.06.25-.14.49-.2.74a27.08,27.08,0,0,0-1.6,4.18c-.57,2,1.84,3.08,3.27,1.91,1.16-1,1.41-2.57,1.74-4a44.88,44.88,0,0,1,3.69-6.24,78.05,78.05,0,0,1,6.12-7.89,31.24,31.24,0,0,1,7.54-6.35,18,18,0,0,1,3.9-1.76,7.62,7.62,0,0,1,2.11-.38,1.6,1.6,0,0,1,.63,0c.14,0,.18,0,.19,0s0,0,.09.13.19.36.23.48a6.48,6.48,0,0,1,.32,1.45c.13.95.17,2.16.39,3.19.47,2.19,1.68,5.12,4,5.93,3.37,1.2,5.74-2.95,7.55-5a80.35,80.35,0,0,1,7.26-7.5,72.6,72.6,0,0,1,7-5.47,16.4,16.4,0,0,1,3-1.78,3.69,3.69,0,0,1,1.21-.3h0s.27.16.27.13a1.81,1.81,0,0,1,.24.24l0,0a8.25,8.25,0,0,1,.55,1,7.34,7.34,0,0,1,.34.83c.22.55.43,1.09.66,1.63a5.57,5.57,0,0,0,3.59,3.55c3,.69,5.87-1.92,8.11-3.52,3-2.13,5.73-4.58,8.57-6.88,5.49-4.44,11.14-8.77,17.76-11.4a43.16,43.16,0,0,1,9.86-2.71c2.26-.32,5.23-.66,7.26.63a4.41,4.41,0,0,1,1.5,1.57l.15.33.12.36a1.31,1.31,0,0,1,0,.25,5,5,0,0,1,0,.55v0s0,0,0,.05-.09.34-.14.51a3.32,3.32,0,0,1-.12.32l-.08.17a7,7,0,0,1-1.33,1.85,20.32,20.32,0,0,1-4.2,3.41c-1.69,1.11-3.45,2.1-5.23,3-3.19,1.66-6.45,3.13-9.61,4.83-5.55,3-11.34,6.4-15.57,11.18-1.95,2.21-3.67,4.83-3.86,7.85a8.45,8.45,0,0,0,1.05,4.42c.67,1.3,1.69,2.4,2.3,3.74,1.11,2.45-.73,4.15-2.48,5.76a17.54,17.54,0,0,1-7.21,3.95c-5.6,1.58-11.53,1.12-17.28,1.42a42.52,42.52,0,0,0-18.54,5.27,90,90,0,0,0-15.7,11.63c-2.61,2.3-5.18,4.65-7.61,7.15s-4.4,5.38-7.19,7.23c-2.52,1.67-5.68,1.69-8.45,2.73a23,23,0,0,0-6,3.53c5-11.07,11.12-21.7,19.12-30.86a84,84,0,0,1,33.86-23.84c7.74-3.16,15.66-5.86,23.13-9.64,1.31-.66.17-2.52-1.13-1.94-13.71,6.14-28.55,9.88-41,18.52a98.06,98.06,0,0,0-27,28.92,147.31,147.31,0,0,0-10.37,20.09,1.41,1.41,0,0,0,.38,1.64l-.55.68Q189.47,355.19,187.62,343.83Zm-129.75-41a16.55,16.55,0,0,1-1.35-2.25,4,4,0,0,1-.31-.83s-.05-.22-.06-.28v-.28c.22,0,.52-.11.46-.12a9,9,0,0,1,1,0,12.73,12.73,0,0,1,1.82.28c.92.18,1.84.34,2.77.45,2,.22,4.35-.11,4.93-2.36,1-3.87-2.12-7.2-4.84-9.48-6.53-5.46-14.84-8.45-20.71-14.69A28.84,28.84,0,0,1,35,262.84c-.26-.82-.47-1.92-.64-2.59a.31.31,0,0,1,0-.09,1,1,0,0,1,.53-.35c1.42-.51,3.55.65,4.79,1.28a44.2,44.2,0,0,1,10,7.6c3,2.8,5.88,5.7,8.86,8.52a36.47,36.47,0,0,0,10.21,7.3c3.68,1.59,7.93,2.35,11.22-.46,2.58-2.2,3.56-5.7,5.17-8.57a8.54,8.54,0,0,1,2.4-3.1,7,7,0,0,0,.61-.35l.11-.06a3.68,3.68,0,0,1,.47-.15,3.93,3.93,0,0,1,1.68-.05c6.25,1.1,10.8,5.82,13.69,11.28a41.13,41.13,0,0,1,3.38,9c.44,1.65.8,3.31,1.11,5,.14.75.26,1.5.38,2.25.15,1,.17,1.2.28,2.07,1.15,9.69.56,19.57,2.81,29.13.59,2.51,1.2,5.07,2,7.53.9,2.83,2.11,6,4.61,7.75,3,2.14,6.51.61,9.06-1.48,2.85-2.34,4.6-5.73,6.63-8.73.73-1.09,1.88-2.81,3-3.27a2.16,2.16,0,0,1,.41-.13h.18l.25.08a3.79,3.79,0,0,0,.58.33,11.28,11.28,0,0,1,.78.82c2.29,2.8,3.19,7.54,3.95,11.24,1.92,9.33.84,18.72,1.07,28.15,0,2,.3,4.1,1.71,5.6a3.57,3.57,0,0,0,3.4,1.25,10.21,10.21,0,0,0,3.19-1.81,29.36,29.36,0,0,0,4.06-4.34c.18-.2.53-.59.61-.66a1.86,1.86,0,0,0,.46-.24h.49l.08,0h0a1.94,1.94,0,0,0,.24.15h0a5.06,5.06,0,0,0,.38.44,7.61,7.61,0,0,1,.74,1.34c0,.06.2.53.24.65.11.33.21.66.3,1,.2.72.37,1.45.51,2.18.62,3.13,1.07,6.33,1.57,9.48.77,4.94,1.4,9.9,2.32,14.82a104,104,0,0,0,3.94,14.71,180.34,180.34,0,0,0,8.73,21c-1.24-1.24-2.37-2.59-3.55-3.91-1.8-2-4-3.61-5.95-5.45a33.14,33.14,0,0,1-5.17-6.88c-1.65-2.63-3.22-5.3-4.76-8-3.14-5.49-6.22-11-9.31-16.53s-6.17-11.34-9.48-16.86c-3-5.06-6.62-9.74-10.08-14.5C121.77,356,115.22,345,108,334.51,100,322.8,90.9,312,82.33,300.7c-.84-1.11-2.75,0-1.9,1.11,7.61,10.09,15.78,19.75,23,30.14,7.36,10.61,13.92,21.76,21.29,32.35,3.35,4.83,7,9.48,10.2,14.4,3.51,5.34,6.44,11.05,9.55,16.62s6.32,11.29,9.49,16.93c3,5.33,5.92,10.88,9.57,15.79,1.81,2.43,4.22,4.24,6.45,6.25,2.08,1.87,3.72,4.14,5.72,6.09a35.73,35.73,0,0,0,4.8,3.65l.63,1.17.31.57c-.36-.15-.73-.3-1.09-.43-5.22-1.89-10.79-2.38-16.15-3.72a60.63,60.63,0,0,1-14.4-5.64c-3.8-2.07-7.57-4.67-9.73-8.53-2.68-4.8-.69-10.28-.11-15.36a28.34,28.34,0,0,0-2.19-15.19c-2.33-4.85-7.33-8.07-11.7-10.91a141,141,0,0,1-12.5-8.64c-4.2-3.43-8.4-7.24-11.09-12-1.06-1.88-2.31-4.49-1.76-6.47.48-1.78,2.31-3.68,3.4-5.44a2.59,2.59,0,0,0-.4-3.11c-1.72-1.57-3.61-2.94-5.42-4.4a37.87,37.87,0,0,1-4.85-4.71c-3-3.47-5.64-7.26-8.35-11s-5.07-7.68-7.91-11.3S70.4,312.47,66.36,310C63.06,308,60,305.92,57.87,302.85Z"/></g></g></svg>