<svg xmlns="http://www.w3.org/2000/svg" viewBox="0 0 314.54 675.36"><defs><style>.cls-1{fill:#3a3a3a;}</style></defs><title>Asset 4</title><g id="Layer_2" data-name="Layer 2"><g id="Layer_3" data-name="Layer 3"><path class="cls-1" d="M13.47,200.33a44.38,44.38,0,0,0,8.14,5,58.25,58.25,0,0,0-7.55,1.49c-3.71,1-7.66,2.45-10.42,5.24s-4.11,7.87-1.72,11.36,6.7,3,10.17,2.1a65.26,65.26,0,0,0,13.41-5.8c2.57-1.37,5.08-2.85,7.55-4.39,1.66-1,3.66-2,5-3.46,6.19,4.78,12.68,9.23,18.47,14.51a134.17,134.17,0,0,1,16.31,18.35c5.06,6.68,10.25,13.25,15.19,20A96.58,96.58,0,0,1,95,275c2,3.54,3.76,7.13,5.71,10.67,2.19,4,4.32,8,6.33,12.1s2.94,8.79,5,13l0,0,.6,1.76c5.51,16.29,12.19,32.3,16,49.09,1.86,8.17,3.24,16.45,4.43,24.74a249.93,249.93,0,0,1,2.83,25.75c.67,17.42-1.73,34.85-4.48,52A140.8,140.8,0,0,1,125.22,489c-2.8,7.91-6.11,15.63-9.1,23.47-6.16,16.18-12.7,32.18-19.23,48.22A441.2,441.2,0,0,0,82,602.89,141.31,141.31,0,0,0,82.52,581a190,190,0,0,0-3.76-26.2C77,546.42,74.27,538.34,72.3,530s-3.71-17-5.51-25.56a211.38,211.38,0,0,1-3.87-25.65c-1.46-17.19-1.53-34.69.81-51.81a166,166,0,0,1,5-24.7,234.73,234.73,0,0,1,8.48-23.15c.52-1.26,1-2.51,1.54-3.77A15.64,15.64,0,0,0,87.47,377a38,38,0,0,0,11.6-3c3.8-1.58,8.24-3.57,10.09-7.52a6.25,6.25,0,0,0-1.31-7.44,9.09,9.09,0,0,0-6.85-2.19c-4.16.21-8.06,1.95-11.75,3.82l1.38-2.28a48.86,48.86,0,0,0,5.91-13.87,37.57,37.57,0,0,0,1-14.08c-.62-4.2-2.69-8.74-6.76-10.58-3.88-1.75-8.32-.76-11.66,1.72-3.66,2.73-5.95,6.76-7.45,11-2.41,6.82-2.87,14.46-2.2,21.78a40.81,40.81,0,0,0-6.8-7.41c-1.61-1.35-3.34-2.56-5.07-3.76-1.52-1.05-3.38-2.26-5.3-2.23-5,.09-6.21,6.67-5.12,10.43,1.18,4.15,4.54,7.28,7.78,9.91A73.71,73.71,0,0,0,68,369.57c1.63.83,3.34,1.54,5,2.32l0,.09a2.41,2.41,0,0,0,2,1.3A230.63,230.63,0,0,0,66,394.84a138.05,138.05,0,0,0-6.18,24.09A242.67,242.67,0,0,0,57,471.21c.09,1.78.21,3.55.34,5.32-2.28-6.8-4.53-13.62-7.2-20.28a145,145,0,0,0-9-19.23,98.86,98.86,0,0,0-13-17.11C22.74,414,16.87,408.56,11,403.14a2.24,2.24,0,0,0-3.17,3.17c9.55,10.16,20.26,19.57,27.71,31.49s12.06,25.6,16.88,38.84c2.85,7.83,4.8,16,7.86,23.72a2.82,2.82,0,0,0,.46.79c1.45,7.47,3.15,14.9,4.84,22.31,1,4.26,1.93,8.53,3.11,12.74,1.14,4,2.48,8,3.58,12a182.35,182.35,0,0,1,5,25.91,131,131,0,0,1,.56,26.48c-.71,8.73-2,17.39-3,26.07-.27,2.19-.54,4.39-.78,6.58a1.73,1.73,0,0,0,.41,1.27,176.66,176.66,0,0,0-2.72,25.69c-.12,4.27-.07,8.54.1,12.8.12,3.07,4.89,3.08,4.78,0-1.28-34.54,8.7-68.62,21.24-100.49,6.3-16,13.26-31.7,19.44-47.72,2.71-7,5.4-14.08,8.16-21.1a1.76,1.76,0,0,0,.21-.3c2.74-4.58,5.39-9.22,8.33-13.68a141.54,141.54,0,0,1,9.52-12.57c3.4-4.08,6.9-8.06,10.31-12.13s6.53-8,9.82-12c6.53-7.89,13.23-15.65,20.33-23,7-7.23,14.27-14.57,22.7-20.09q2.37-1.56,4.77-3.11c.05.28.09.56.15.83a34.84,34.84,0,0,0,2.17,5.82,52.14,52.14,0,0,0,5.29,9.88c4.72,6.65,11.89,11.48,19.47,14.35a17.39,17.39,0,0,0,6.2,1.24,20,20,0,0,0,3.33-.64,3.53,3.53,0,0,0,2.85-2.14,7.33,7.33,0,0,0,0-6.35c-.39-.82-1-1.47-1.47-2.24-.57-1-1-2.07-1.55-3.09-3.4-6.61-6.92-13.8-12.8-18.58a28.5,28.5,0,0,0-4-2.71,77.72,77.72,0,0,0,7.34-2.57c7-2.89,13.63-7.08,17.94-13.5,3.57-5.32,5.43-12.59,2.12-18.5a11.79,11.79,0,0,0-8.74-6.23c-3.65-.41-7.3,1.12-10.46,2.77a83.94,83.94,0,0,0-10.61,6.4,35.83,35.83,0,0,0-8,8.11,47.37,47.37,0,0,0-2.68,4.15c-.22-5-.72-10.1-2.92-14.58-1.44-2.93-4-6.31-7.14-7.43-4.69-1.66-7.78,3.19-8.43,7.19-.71,4.39.21,8.89,1.63,13.05a136.14,136.14,0,0,0,5.92,14.43c.72,1.49,1.51,3.37,2.51,5.11-1.47.95-2.92,1.93-4.38,2.88a91.31,91.31,0,0,0-10.29,7.74c-12.72,11.13-23.91,23.87-34.6,36.92-5.42,6.61-10.75,13.3-16.25,19.86-3.89,4.64-7.71,9.33-11.22,14.25.65-2.21,1.26-4.44,1.77-6.69,1.89-8.27,3-16.73,4.16-25.12s2.15-17.05,2.53-25.63c.09-2,.13-4.05.13-6.07a1.37,1.37,0,0,0,.84-1.45c-.63-7.53-1.12-15.07-1.54-22.61a1.24,1.24,0,0,0,.51-1.44c-.26-.93-.49-1.87-.72-2.81,0-.73-.08-1.46-.11-2.18.06-.48.11-.95.2-1.42a1.47,1.47,0,0,0-.34-1.26c-.12-2.83-.24-5.67-.34-8.5,0-2.51.06-5,.16-7.53a1.78,1.78,0,0,0,.07-1.84,96.28,96.28,0,0,1,2-16.32,128.66,128.66,0,0,1,4.54-14.74q2.59-7.38,5.55-14.62c3.72-9.12,8.26-17.83,12.59-26.67a169.43,169.43,0,0,0,6.84-15.54,207.11,207.11,0,0,1,13.85-17.92A123.94,123.94,0,0,1,207,243.78c7.84-5.68,15.76-11.39,24.31-15.95,8.84-4.71,18.14-8.52,26.81-13.56a15.07,15.07,0,0,0,.63,2.25,36.63,36.63,0,0,0,5.06,9,65.65,65.65,0,0,0,6.42,7.6,40.91,40.91,0,0,0,7.9,5.68,16.2,16.2,0,0,0,4.53,1.88c1.67.4,4.11.91,5.71.1,4.94-2.5,3.61-9.13,1.91-13.22a19.81,19.81,0,0,0-4.65-7,19.12,19.12,0,0,0-1.46-1.24,39.93,39.93,0,0,0,6.28-.23c7.79-.94,16-4.11,20.95-10.52,2.09-2.73,3.81-6.68,2.9-10.17-1-3.83-5-5.3-8.52-5.61-3.87-.33-7.93.59-11.64,1.64a52.28,52.28,0,0,0-11.44,4.82c-4.51,2.55-8.85,5.35-13.47,7.7l-1.61.8a67.17,67.17,0,0,0,11.14-12.26,72.05,72.05,0,0,0,5-9.86c1.52-3.31,2.14-6.9.77-10.37a12.13,12.13,0,0,0-1.26-2.49,3.8,3.8,0,0,0-2.74-1.52,8.71,8.71,0,0,0-4.82.39,13.3,13.3,0,0,0-4.16,3,32.6,32.6,0,0,0-3.35,3.5A42.85,42.85,0,0,0,260,197c-.62,3.26-.81,6.7-1.37,9.84-.16.86-.33,1.73-.47,2.6-8.72,4.57-17.79,8.42-26.56,12.9s-16.84,10.18-24.86,16S191,250.09,184.44,257.44c-1.58,1.78-3.11,3.6-4.61,5.44A184.1,184.1,0,0,1,189.22,237a236.11,236.11,0,0,1,14.85-28.81c5.85-9.55,12.67-18.49,19.35-27.47s13.68-18.18,21.3-26.62c6.84-7.57,14.18-14.66,21.7-21.55,0,0,0,0,0,.06.71,1.94,2.51,3.14,4.27,4.05a27.31,27.31,0,0,0,12,3.48c6.46.14,15.32-1.7,18.77-7.8,1.74-3.08,1.93-7.36-.84-9.93s-6.77-2.5-10.22-2a32.32,32.32,0,0,0-5.54,1.47,34,34,0,0,0,6.26-5.77c3.71-4.61,8.35-12.48,4.17-18.16a8.92,8.92,0,0,0-10.77-3.08,21.87,21.87,0,0,0-9.23,7.76,38.55,38.55,0,0,0-3.64,6.15c-.18-1.4-.41-2.79-.73-4.18-1.14-5-2.6-10.77-7.37-13.5a2.57,2.57,0,0,0-3,.39c-4.66,4.06-4.75,10.74-3.77,16.37a53.92,53.92,0,0,0,5.52,15.77,25.3,25.3,0,0,0,3.08,4.6,273.21,273.21,0,0,0-21.22,19.88,304.25,304.25,0,0,0-22,26.63c-6.88,9.14-13.91,18.28-20.07,27.93a217.81,217.81,0,0,0-15.27,28.75,207.59,207.59,0,0,0-10.61,28.43,60.74,60.74,0,0,0-2.51-20.11c-1.54-5.19-3.2-10.35-4.69-15.56-1.43-5-2.84-10.07-4.5-15a175.49,175.49,0,0,0-7.67-19.26q.87-6.46,1.72-12.93c1-7.84,2.07-15.73,2.72-23.64a325.46,325.46,0,0,1,14-36.95A420.42,420.42,0,0,1,195.9,76.23c3.76-6.56,7.7-13,11.69-19.41.86-1.39,1.68-2.8,2.56-4.17a25.45,25.45,0,0,1,3.43-4.11,8.25,8.25,0,0,0,.89-1.1l1.1-.52a13.88,13.88,0,0,0,6.33,1.39c2.61.14,5.24.19,7.85.08a41.16,41.16,0,0,0,13.72-2.64c3.41-1.38,7.37-3.33,8.7-7a6.44,6.44,0,0,0-6.85-8.48,45.17,45.17,0,0,0-8.48,1.53,72.59,72.59,0,0,0-9,2.85c1-1,2-2,3-3,2.78-3,5.39-6.13,8-9.24,4.95-5.89,9.85-13.32,5.68-21A2.72,2.72,0,0,0,242.18,0c-4.38.1-7.94,3-10.64,6.22a93.61,93.61,0,0,0-7.71,11.11c-1.48,2.38-2.9,4.81-4.26,7.27a56.68,56.68,0,0,0,0-7,25.33,25.33,0,0,0-2.37-10.3,10.26,10.26,0,0,0-1.42-2.42,3.87,3.87,0,0,0-2.07-.92,4.07,4.07,0,0,0-2.74.4A6,6,0,0,0,209.45,6,13.27,13.27,0,0,0,207,10.06a24.42,24.42,0,0,0-1,4.4,47.09,47.09,0,0,0-.3,10.94,76,76,0,0,0,2.29,12,30.89,30.89,0,0,1,.87,4.79,10,10,0,0,0,.78,3.66c-.28.28-.56.56-.8.84a24.72,24.72,0,0,0-2.47,3.46Q202.13,57.07,198,64c-5.64,9.54-11.13,19.23-16.18,29.1S172.4,112.91,168.21,123c-2.19,5.3-4.29,10.65-6.25,16,0-3.75,0-7.51.23-11.26.26-5.35.76-10.7.74-16.06,0-11-2-21.88-3.88-32.68-.07-.37-.13-.74-.19-1.1a1.19,1.19,0,0,0,.14-.53V70.26a1.19,1.19,0,0,0-1.18-1.18,1.32,1.32,0,0,0-.49.13,115.07,115.07,0,0,0-5.17-20.13c-.67-1.79-1.4-3.55-2.13-5.31l.13-.12a66,66,0,0,1,5.35-4.53,63.92,63.92,0,0,0,5.59-4.53,94.78,94.78,0,0,0,9.22-10.09,38,38,0,0,0,4.11-6c1-1.86,2.39-4,2.33-6.21s-2-5.26-4.48-5A17.65,17.65,0,0,0,166.82,9a26.55,26.55,0,0,0-8.28,6.26A52.32,52.32,0,0,0,151.16,26a38.83,38.83,0,0,0-.87-5.77,30.17,30.17,0,0,0-3.62-9.15C144.86,8.23,142,5.17,138.42,5s-6.46,3-8.29,5.91a16,16,0,0,0-2,12,44.48,44.48,0,0,0,9.49,19l-.1,0c-2.08-.57-4.18-1.06-6.3-1.45-3-.55-6.11-1.09-9.17-1.34a17.65,17.65,0,0,0-9.18,1.28c-3.44,1.68-5.5,5.59-3.8,9.23s6,5.23,9.64,5.67a33.18,33.18,0,0,0,11.38-1.16c4-1,8-2,11.94-3.29A13.37,13.37,0,0,0,146.39,49a97.83,97.83,0,0,1,3.26,9.56c1.42,5.08,2.12,10.31,3.06,15.49,1.93,10.68,4,21.43,4.6,32.28a133.4,133.4,0,0,1-.27,16.12c-.34,5.49-.44,11-.52,16.47A323.57,323.57,0,0,1,154,171.54c-.4,3.42-.82,6.83-1.26,10.25-.14-.25-.27-.51-.41-.77-2.59-4.57-5.44-9-8.14-13.5s-5.08-8.84-8-13.07a131,131,0,0,0-9.51-12.37c-3.22-3.67-6.8-7-10.09-10.62-6.59-7.23-11.29-16-15.44-24.84q-1-2.16-2-4.32h0c7.44-5.81,16.21-11.25,20.58-20,1.87-3.75,2.91-9.43-.89-12.44-3.11-2.45-7.39-.87-10.26,1.17-4.89,3.48-8.25,8.8-10.69,14.45-.09-.72-.19-1.45-.31-2.16-1.36-8.19-5.22-16.16-12.09-21.07-3.31-2.37-8-4.39-11.91-2.2s-5.19,7.54-5.12,11.73c.08,5.06,2.31,9.68,5.19,13.73,1.55,2.18,3.26,4.23,4.9,6.34a72.46,72.46,0,0,0,5,6.15c.21.22.45.42.67.63a30,30,0,0,0-3.42-.35,32.5,32.5,0,0,0-8.1.82,27.55,27.55,0,0,0-9.16,3.53c-3.2,2.12-5.5,5.59-4.22,9.54,1.41,4.32,5.51,5.87,9.75,5.39s8.6-2.13,12.64-3.74c2.81-1.12,5.58-2.34,8.3-3.68,1.55-.76,3.56-1.42,4.76-2.73a5.88,5.88,0,0,0,.88-1.27A112.1,112.1,0,0,0,106.24,127a10.14,10.14,0,0,0-5,.45c-5.13,1.81-8.67,6.54-10.54,11.47a30,30,0,0,0-1.79,10.13,22.32,22.32,0,0,0-3.55-3.92c-3.41-3-10.53-8.48-14.91-4.35-5.2,4.92,2.51,11.65,6,14.8,3.13,2.8,6.48,5.26,9.83,7.79.65.49,1.32,1.13,2,1.71,0,.39,0,.77,0,1.15a2.25,2.25,0,0,0,1.46,2.18c-3.65,14.47-3.48,29.58-2.19,44.4a286,286,0,0,0,9.3,50.33c1.26,4.6,2.6,9.17,4,13.73l-.7-1.4a77.55,77.55,0,0,0-6.4-10.64c-4.87-7-10.14-13.72-15.3-20.51a159.51,159.51,0,0,0-16.55-19c-6.36-6.09-13.67-11.06-20.67-16.36,1.41-1.51,2.21-3.67,3.1-5.45,1.38-2.76,2.76-5.51,4.07-8.3A67.74,67.74,0,0,0,53.6,181.9c1.07-4.63,1-9.67-2.27-13.41a7.51,7.51,0,0,0-6.1-2.75,9,9,0,0,0-5.55,2.88c-3.08,3.13-5,7.45-6.1,11.63-.35,1.29-.63,2.59-.86,3.9A55.43,55.43,0,0,0,30,178.91,35.94,35.94,0,0,0,20.44,168c-3.54-2.56-8.46-4.41-12.85-3.19C3.4,165.94,1,169.83.28,173.93a23.35,23.35,0,0,0,2.78,15A37.4,37.4,0,0,0,13.47,200.33ZM63.9,361.27c-3.76-2.26-7.91-5-10.55-8.59a6.69,6.69,0,0,1-1.62-4.83,11,11,0,0,1,.68-1.76l.13,0c.09.05.19.08.44.23,7.2,4.24,12.36,10.65,16.3,17.87C67.46,363.29,65.65,362.33,63.9,361.27Zm28.57,3.87a33.76,33.76,0,0,1,5.65-2.29c1.72-.49,3.91-1,5.53-.23a2.18,2.18,0,0,1,.79.91s-.13.5-.14.52a4.71,4.71,0,0,1-.58.87A12.87,12.87,0,0,1,99.26,368a36.37,36.37,0,0,1-4.32,1.78,38.58,38.58,0,0,1-5.47,1.52,17.67,17.67,0,0,1-5.13.26s-.5-.08-.9-.17-.55-.15-.81-.23c.31-.29.65-.58,1-.82a28.66,28.66,0,0,1,2.91-2C88.43,367.18,90.45,366.15,92.47,365.14ZM74.76,346.59a42.25,42.25,0,0,1,2.12-12.37c1.19-3.4,3.21-6.92,6.14-8.67a6.64,6.64,0,0,1,4-1.11l.25,0a2.87,2.87,0,0,1,.38.08c.08,0,.79.27.73.22a4.36,4.36,0,0,1,1.82,1.46c2.26,2.83,2.38,7.18,2.1,10.82a39.73,39.73,0,0,1-2.88,12c-2,4.69-5,8.88-7.61,13.19a33.82,33.82,0,0,1-3.11,4.34,2.42,2.42,0,0,0-.69.22A26.83,26.83,0,0,1,75.55,359,58.6,58.6,0,0,1,74.76,346.59Zm143.8,48.54a58.37,58.37,0,0,1,5.08-10.08,31.18,31.18,0,0,1,11.6-11.29c2.45-1.5,5-3,7.54-4.25,2-1,4.34-1.95,6.57-1.67,1.74.23,3.38,1.88,4.28,3.42a8.59,8.59,0,0,1,1,5.33c-.31,4-3,8.19-6,11.19-4.23,4.24-9.7,6.94-15.3,8.88a84.73,84.73,0,0,1-9.24,2.66c-2.1.48-4.2.93-6.28,1.47A14.75,14.75,0,0,0,218.56,395.13Zm-1.43,11.58q.6-.19,1.2-.36l.69-.11a19.46,19.46,0,0,1,3.66-.12,13.19,13.19,0,0,1,5.84,1.91,26.18,26.18,0,0,1,8.62,8.61,128.57,128.57,0,0,1,7.07,12.87,9.47,9.47,0,0,0,1,1.8,4,4,0,0,1,.76,1.1,1.5,1.5,0,0,1,.09.74,7.06,7.06,0,0,1-2.45.25,14.38,14.38,0,0,1-4.27-1.2,57.19,57.19,0,0,1-8-4.32,31.74,31.74,0,0,1-10.65-12.14,67.48,67.48,0,0,1-3.27-7.32,12.84,12.84,0,0,1-.48-1.53Zm-11.3-27.87c-.89-3-1.64-6.51-.81-9.6a5.91,5.91,0,0,1,.73-1.76,4.93,4.93,0,0,1,.42-.51h0l.21.11c.07.05.45.31.5.33a8.51,8.51,0,0,1,.76.71,14.83,14.83,0,0,1,3.59,6.4,46.43,46.43,0,0,1,1.25,9.61c.14,2.72.24,5.43.45,8.14.05.7.1,1.4.13,2.1-.15.38-.29.77-.42,1.16q-1.41-2.82-2.66-5.71A93.8,93.8,0,0,1,205.83,378.84ZM272,211.76c3.72-1.89,7.29-4,10.86-6.17,5.95-3.57,12.44-6.52,19.43-7.18a22.32,22.32,0,0,1,2.31-.11,11,11,0,0,1,1.87.16,7.54,7.54,0,0,1,1.76.58c.09.06.4.28.43.29l.19.18a.9.9,0,0,0,.05.09.31.31,0,0,0,.08.11,1.69,1.69,0,0,0,0,.22s0,.06,0,.08,0,.11,0,.16,0,.6,0,.62a9.7,9.7,0,0,1-.23,1.07,9.87,9.87,0,0,1-1.71,3.45c-3.71,5-10.55,7.54-16.53,8.34a42.44,42.44,0,0,1-14-.68c-1.63-.33-3.26-.71-4.89-1.05Zm1.89,8.33a21.26,21.26,0,0,1,8.12,4.68,12.8,12.8,0,0,1,2.28,2.95c.28.49.52,1,.75,1.5a.89.89,0,0,0,.09.17,1.27,1.27,0,0,0,.06.16q.21.52.39,1a10.41,10.41,0,0,1,.77,3.9c0,.12,0,.25,0,.38a.13.13,0,0,0,0,.07l0,.05c0,.11-.15.5-.17.6l0,.06h0a.18.18,0,0,1-.06.08c-.15.16,0,0,0-.08a12.17,12.17,0,0,1-6.06-2.13,34.9,34.9,0,0,1-6-4.4,49.49,49.49,0,0,1-8.46-11l.73.11A44.72,44.72,0,0,1,273.88,220.09Zm-9.2-17.91a45.1,45.1,0,0,1,4.65-15.65,28,28,0,0,1,5.09-7,13.79,13.79,0,0,1,3-2.59,2.9,2.9,0,0,1,1.74-.29,7.52,7.52,0,0,1-.29,6.7,74.78,74.78,0,0,1-4.83,9.43,57.43,57.43,0,0,1-9.47,10.43C264.59,202.87,264.63,202.53,264.68,202.18Zm20.52-74.66a24.26,24.26,0,0,1,8.94-2,4.79,4.79,0,0,1,2.75.78l.09.09a2.61,2.61,0,0,1,.17.28s.14.38.16.47,0,.08,0,.13a2.67,2.67,0,0,1,0,.4c0,.53,0,.17-.07.56a5.36,5.36,0,0,1-1.84,2.89A12,12,0,0,1,292.2,133a24.72,24.72,0,0,1-8.64,1.62,20.17,20.17,0,0,1-9.15-2.27,15.37,15.37,0,0,0,3.48-1.37A69.79,69.79,0,0,1,285.2,127.52Zm-12.81-4.06A60.89,60.89,0,0,1,276,112.58a32.18,32.18,0,0,1,5.29-8.69,16.66,16.66,0,0,1,3.85-3.25,5.7,5.7,0,0,1,3.56-1,3.75,3.75,0,0,1,2.44,2s.15.5.18.61.05.22.07.33v.23c0,.29,0,.59,0,.88a3.4,3.4,0,0,1-.13.79,20,20,0,0,1-3.71,7.37l-.19.27h0c-.21.26-.42.52-.64.77a25.31,25.31,0,0,1-2,2,50.84,50.84,0,0,1-4.3,3.46c-1.53,1.12-3.07,2.21-4.57,3.37a21.79,21.79,0,0,1-3.72,2.77C272.21,124.17,272.31,123.81,272.39,123.46Zm-7.09-5.53c-.55-1.21-.85-1.94-1.39-3.36a46.86,46.86,0,0,1-2.5-9c-.4-2.56-.5-5.58.49-7.87a5.93,5.93,0,0,1,.61-1.08,9,9,0,0,1,1.69,3,52.51,52.51,0,0,1,1.94,7.21,55.33,55.33,0,0,1,.65,14C266.26,119.93,265.75,118.94,265.3,117.93ZM239,36.86q1.69-.4,3.42-.72c.86-.17,2-.38,2.61-.43a10.1,10.1,0,0,1,1.1,0l.53.09c-.07,0,.28.26.06,0a4.23,4.23,0,0,1,.25.42,1.66,1.66,0,0,0,.09.28.41.41,0,0,0,0,.07.17.17,0,0,1,0,.08s0,0,0-.08,0,0,0-.07,0,.2,0,.2h0c0,.06-.12.38-.06.32a5,5,0,0,1-.33.55c0-.09-.49.5-.58.58l-.47.39c-.27.2-.55.39-.83.56a22,22,0,0,1-2,1.06c-.08,0-.65.29-.67.31l-.7.27c-.7.27-1.41.51-2.13.73A33.58,33.58,0,0,1,233,42.68a61.77,61.77,0,0,1-6.8.3c-1.05,0-2.16,0-3.25,0q1.27-.7,2.58-1.38A60.38,60.38,0,0,1,239,36.86ZM227.11,22.48a126.34,126.34,0,0,1,7.36-11.2,24,24,0,0,1,3.91-4.16,10.05,10.05,0,0,1,2.07-1.27h0c1.29,5.08-3.4,10.29-6.64,14.05-2.47,2.86-4.86,5.79-7.47,8.52a55,55,0,0,1-4.58,4.32l-.47.39Q224,27.69,227.11,22.48Zm-15.84-7.81a15,15,0,0,1,1-3.8,3.74,3.74,0,0,1,.45-.74,7.47,7.47,0,0,1,.39.92,22.9,22.9,0,0,1,.94,3.84,41.49,41.49,0,0,1,.39,7A67.15,67.15,0,0,1,213,35l-.09-.33A58.19,58.19,0,0,1,211,24,39.53,39.53,0,0,1,211.27,14.67Zm-39.56-2.11a12.7,12.7,0,0,1-.94,2,34.51,34.51,0,0,1-3.12,5.14,77.83,77.83,0,0,1-7.8,8.93,80,80,0,0,1-7.49,6.3C156.6,25.64,161.92,15.54,171.71,12.56ZM127.58,49.23c-3.57.81-8,1.68-11.43.08-1.12-.52-2.83-1.64-2.32-2.81a2.29,2.29,0,0,1,1-1c.15-.1.59-.33.72-.4l.37-.14.68-.2c2.61-.69,6.26-.25,8.89.17A65.25,65.25,0,0,1,136,47.05C133.23,47.86,130.4,48.59,127.58,49.23Zm17.53-13.4c-.34,1.67-.81,3.31-1.25,5a48.75,48.75,0,0,1-5.22-6.59,39.42,39.42,0,0,1-5.16-12.08,11,11,0,0,1,2.82-10.48c1.08-1.12,1.61-1.56,2.85-.79A10.28,10.28,0,0,1,142,14a27.52,27.52,0,0,1,3.4,9.77,19.6,19.6,0,0,1,.27,2c.1,1,.13,2.05.13,3.08A36,36,0,0,1,145.11,35.83ZM109.55,77c.35-.35.71-.69,1.08-1l.26-.22c.12-.08.34-.25.32-.24a13.46,13.46,0,0,1,2.17-1.26l.76-.27a5.3,5.3,0,0,0,.75-.16h.45l0,0,.14,0,.08,0a1.72,1.72,0,0,1,.28.36,5.25,5.25,0,0,1,.31,1.17,6.14,6.14,0,0,1-.3,2.51,17.25,17.25,0,0,1-3.11,5.54,50.63,50.63,0,0,1-10,9.38l-3.1,2.3C101.76,88.5,104.62,81.91,109.55,77ZM86.3,106c-2.44,1.19-4.92,2.29-7.45,3.27-2.13.82-4.29,1.6-6.49,2.26a19.64,19.64,0,0,1-4.62.92q-.6,0-1.2,0h-.09l-.11,0-.49-.11-.33-.11-.18-.09s-.19-.13-.32-.2a1.65,1.65,0,0,0-.31-.28,3.89,3.89,0,0,1-.55-1.39,2.23,2.23,0,0,0,0-.59,3.62,3.62,0,0,0,.17-.54,6,6,0,0,0,.33-.54,7.27,7.27,0,0,1,.54-.57q.23-.21.45-.39l0,0,.12-.07c.35-.24.71-.46,1.07-.67a18,18,0,0,1,4.2-1.69,29.7,29.7,0,0,1,12.39-1.19c1.7.23,3.41.63,5.13.91Zm6.41-11.3a30.8,30.8,0,0,1-.47,3.77,20.92,20.92,0,0,0-3-2.61,32.88,32.88,0,0,1-5.12-5.55c-2.92-3.77-6.2-7.42-8.42-11.67-1.9-3.63-2.61-8-1-11.94l.16-.35c.11-.2.22-.4.34-.59l.2-.3.15-.16c.14-.14.27-.27.42-.4l.14-.07.22-.12.43-.14.17,0h.46c.07,0,.27,0,.36,0l.43.09a9.59,9.59,0,0,1,2.64,1.12,20.55,20.55,0,0,1,7.3,7.17,31,31,0,0,1,4,10.45A42,42,0,0,1,92.71,94.69ZM86,156.59c-1.92-1.39-3.75-2.86-5.53-4.42-1.23-1.07-2.45-2.14-3.6-3.3a22.56,22.56,0,0,1-1.91-2.12l-.42-.61c-.14-.21-.27-.44-.4-.65s-.16-.32-.2-.4l-.15-.55,0,0,0,0,.09,0c.09,0,.39,0,.59,0,0,0,.68.17.83.22a4.49,4.49,0,0,1,.81.3c.4.18.79.39,1.18.6.76.43,1.5.9,2.22,1.4l.79.57.34.27a3.92,3.92,0,0,1,.32.25,19.67,19.67,0,0,1,3.71,3.75,17.76,17.76,0,0,1,2.68,5.8Zm68,53c.53-3.13,1-6.28,1.48-9.42.45,1.09.88,2.18,1.3,3.29,3.71,9.77,6.3,19.86,9.31,29.85,1.5,5,3.25,9.86,4.13,15a52.91,52.91,0,0,1,.53,14.27c-.79,7.76-3.34,15.28-6.41,22.45a117.58,117.58,0,0,0-7.33,13.16c-1.85,4-3.3,8.22-4.8,12.39-.81,1.77-1.62,3.55-2.38,5.34-3.54,8.28-6.73,16.75-9.46,25.34,0-.73-.08-1.46-.11-2.2a284.7,284.7,0,0,1,.26-32.53c.78-10.94,2.07-21.88,3.11-32.81s2.35-21.89,4.16-32.74C149.46,230.46,152.16,220.13,153.92,209.6ZM95,143.53a17.16,17.16,0,0,1,3.86-7.93,10.49,10.49,0,0,1,3.61-2.78,4.71,4.71,0,0,1,3.3-.28s.45.23.63.33a4.36,4.36,0,0,0,.42.38,3.16,3.16,0,0,1,.78,1.77,1.69,1.69,0,0,1,.07.62c0,.42,0,.84,0,1.27a13,13,0,0,1-.4,2.43c-1.84,7.5-6.7,13.46-11.66,19.27l-.26.3a43.25,43.25,0,0,1-.88-5.73A31.82,31.82,0,0,1,95,143.53Zm19.51,28.36s-.07.07,0,.1l0,0h0l-.7.17h-.65c-.35,0-.7,0-1,0l-.52,0h-.09l-.07,0a27.94,27.94,0,0,1-9.09-2.73,12.71,12.71,0,0,1-4.56-3.92,3.2,3.2,0,0,0,.39-.86c.33-.08.66-.15,1-.2a16.8,16.8,0,0,1,6.24.19c.62.15,1.24.35,1.85.56a11.79,11.79,0,0,1,1.68.72,21.05,21.05,0,0,1,2,1.08,11.94,11.94,0,0,1,1.74,1.27,9.69,9.69,0,0,1,.73.7,6.26,6.26,0,0,1,.46.53,3.22,3.22,0,0,1,.77,1.61s0,.06,0,.11,0,.28,0,.32v.38h0v-.06C114.55,171.63,114.38,171.92,114.51,171.89Zm-19.73,55.5c-2.51-16.56-3.89-33.86-1.83-50.54.3-2.37.7-4.72,1.16-7.06,3.26,3.76,8,6,12.86,7,4.23.94,10.84,2.12,12.71-3.16,2.06-5.85-4-10.68-8.59-12.79a22.33,22.33,0,0,0-8.53-2.11l.48-.59a48.3,48.3,0,0,0,5.71-8c2.29-4.27,4.66-9.46,4.4-14.45,4.48,4.94,9.32,9.56,13.45,14.82,6.31,8,11.12,17,16.45,25.67,3,5,5.87,10,8.41,15.21q-.86,6.42-1.78,12.83c-1.55,10.65-4.07,21.09-6,31.67-3.94,21.66-5.77,43.73-7.94,65.62a268.57,268.57,0,0,0-.82,32.72c.13,5.47.71,10.91.91,16.37a70.31,70.31,0,0,1-.15,8.21c-.17,2.16-.57,4.33-.58,6.51a4.87,4.87,0,0,0,0,.54c-1-5-2.16-10-3.54-14.9-2.33-8.27-5.48-16.27-8.33-24.37Q114.6,302,106.73,277.12A331.83,331.83,0,0,1,94.78,227.39Zm-52.73-53a10.27,10.27,0,0,1,1.41-1.8q.3-.31.63-.6l.19-.17.45-.3c.1-.06.6-.26.55-.26l.19-.06a1.1,1.1,0,0,1,.25,0h.13l.24.07A4.21,4.21,0,0,1,47.88,173a6.77,6.77,0,0,1,.83,2.49,15.56,15.56,0,0,1-.05,3.1A29.72,29.72,0,0,1,47,184.75a151,151,0,0,1-6.83,14.91c-.56,1.12-1.12,2.24-1.67,3.36-.08-.28-.15-.55-.21-.83-.33-1.48-.65-3-1-4.43C37.17,189.6,37.61,181.14,42.05,174.41Zm-14.2,37.67c-2.45,1.47-5,2.87-7.51,4.16a46.18,46.18,0,0,1-11.13,4.34l-.35.06-.34.05c-.33,0-.67,0-1,0l-.4,0h0a2.36,2.36,0,0,0-.38-.1c-.6-.08.46,0-.07,0l-.08,0h0l-.08-.06v0l-.07-.06.07.06a.13.13,0,0,0-.09-.13l0-.06c0-.19-.11-.37-.15-.57v-.09a6.45,6.45,0,0,1,0-.76c0-.16,0-.31,0-.46a5.57,5.57,0,0,1,.27-1s0,0,0,0c.11-.22.24-.43.36-.64l.18-.26.14-.16a10.78,10.78,0,0,1,1-1l.58-.43c.38-.25.77-.48,1.17-.7a13.59,13.59,0,0,1,2.18-1,46.88,46.88,0,0,1,10.33-2.48,55.78,55.78,0,0,1,8.57-.49ZM5.75,174.49a6.17,6.17,0,0,1,2-3.78l0,0,.1,0,.42-.26.27-.13.48-.16a4.9,4.9,0,0,1,2.22-.13,13.14,13.14,0,0,1,5.29,2c3.46,2.17,6.17,5.61,8.33,9.12a54.43,54.43,0,0,1,5.61,12.56c.49,1.58.93,3.17,1.34,4.77,0,1.4,0,2.8.06,4.21l-.86-.12a25.82,25.82,0,0,1-6.89-2.07A40.89,40.89,0,0,1,12,191.79a22.63,22.63,0,0,1-6.3-11.43A15.8,15.8,0,0,1,5.75,174.49Z"/></g></g></svg>