<svg xmlns="http://www.w3.org/2000/svg" viewBox="0 0 259.74 559.75"><defs><style>.cls-1{fill:#3a3a3a;}</style></defs><title>Asset 3</title><g id="Layer_2" data-name="Layer 2"><g id="Layer_3" data-name="Layer 3"><path class="cls-1" d="M257,169.37a10.81,10.81,0,0,0-8-2.07,37.13,37.13,0,0,0-10.69,2.82,65.63,65.63,0,0,0-10.75,5.58,142.34,142.34,0,0,0-20.37,15.81A127.3,127.3,0,0,0,191,210.4a112.78,112.78,0,0,0-6.68,10.13c-.8,1.4-1.54,2.82-2.26,4.26,2.59-14.45,3.92-29.13,5.84-43.68,1-7.83,2.23-15.61,3.26-23.41a1,1,0,0,0,.1-.17,19.68,19.68,0,0,0,1-2.7,11.65,11.65,0,0,1,1.08-2.32,54.75,54.75,0,0,1,3.18-4.95,51.48,51.48,0,0,1,7.08-7.46c2.45-2.29,4.71-4.76,7.09-7.12s4.67-4.39,7.14-6.45c9.81-8.16,20.73-15.2,29-25,3.47-4.11,7.28-9,8.11-14.53.48-3.13-.52-6.28-3.88-7.21a11.21,11.21,0,0,0-4.32-.13,32,32,0,0,0-5,1c-7,2.11-13.29,6.37-19,10.92A81.68,81.68,0,0,0,208,106.8a104.66,104.66,0,0,0-10.77,18.41c-1.3,2.81-2.58,5.65-3.77,8.51.19-4.42.24-8.86.07-13.33a86.5,86.5,0,0,0-.9-9.28,1.28,1.28,0,0,0,.22-.62q0-.57.09-1.14l0-.26c0-.07,0-.1,0-.08l0-.11v0l0-.16a2.34,2.34,0,0,0,0-.26,21.56,21.56,0,0,1,.47-2.23,1.66,1.66,0,0,0,0-.32l0-.08c.09-.25.19-.49.28-.73,0,0,.11-.25.08-.19,0-.11.1-.22.14-.33a1.45,1.45,0,0,0,.13-1,1.16,1.16,0,0,0-.47-.66,38.07,38.07,0,0,0,2.61-11.17,68.61,68.61,0,0,1,1.23-9q1.18-4.74,2.58-9.44c3.68-12.43,4.76-25.35,7.93-37.89A141.59,141.59,0,0,0,212,16.77c.58-5.19,1.15-13.58-4.47-16.38-2-1-3.17.07-4.76,1.29a45.45,45.45,0,0,0-6,5.53A66.7,66.7,0,0,0,188,19.65c-5.18,9.29-9.49,19.68-10.39,30.35-1,12.2,1.82,24.46,5,36.16,1.63,6.08,3.42,12.12,4.71,18.29a102,102,0,0,1,2,19.18c.09,4.79,0,9.57-.31,14.35a68.77,68.77,0,0,0-4.65-11.26c-4.27-8.32-10.39-16.12-18.64-20.78a20,20,0,0,0-13.7-2.65c-3.76.72-8.5,2.81-8.72,7.22-.12,2.36,1.29,4.42,2.64,6.22,1.55,2.08,3.13,4.13,4.85,6.07A102.68,102.68,0,0,0,162,133.58c4.46,3.73,9.22,7,14,10.33a39.82,39.82,0,0,1,6.25,5.18c1.54,1.64,2.94,3.64,2.95,6a2,2,0,0,0,.3,1.1c.27,2,.46,4,.57,6.07,0,.8,0,1.59.05,2.39q-2.67,18.31-4.91,36.68c-1.53,12.67-3.33,25.34-6.57,37.71-.12-2.78-.34-5.55-.68-8.31a67.79,67.79,0,0,0-5.75-20.21,101.12,101.12,0,0,0-10.23-16.84c-3.53-4.86-7.28-9.61-12.15-13.19-4.29-3.17-10.24-5.49-15.6-3.92a7.91,7.91,0,0,0-5.68,6.06c-.56,3,.45,6,1.83,8.64a69.62,69.62,0,0,0,4.76,7.37c2.11,3,4.28,6,6.46,9,4.36,5.94,8.8,11.83,12.93,17.93,2,3,4,6.06,5.87,9.19a48.22,48.22,0,0,1,2.63,4.84,41.93,41.93,0,0,1,1.67,4.76c1.06,3.42,2.55,6.71,3.51,10.15a44.68,44.68,0,0,1,1.24,10.75c0,.77.12,1.65.09,2.5q-1.26,3.45-2.59,6.89c-9.06,23.42-20.69,45.57-33.9,66.9l-1.71,2.75a82.7,82.7,0,0,0,3.34-20.59,91.18,91.18,0,0,0-2.11-23.24,95.26,95.26,0,0,0-3.26-11.34c-1.16-3.26-2.09-6.43-4.4-9.11a46.49,46.49,0,0,0-3.41-3.18,11,11,0,0,0-4.12-2.49,15,15,0,0,0-10.09.6,10.93,10.93,0,0,0-4.36,2.87,10.67,10.67,0,0,0-2.22,4,18.46,18.46,0,0,0-.39,4.92q-.08,3.12.15,6.22a55.37,55.37,0,0,0,2,11.85,93.79,93.79,0,0,0,4.19,10.8c1.51,3.42,3.11,6.81,4.3,10.37a47.64,47.64,0,0,1,2.36,11.31c.32,4,.24,8.06.16,12.08a45,45,0,0,1-1.77,11.17c-1,3.8-2.39,7.52-3.79,11.2q-1.05,2.73-2.12,5.45A43.2,43.2,0,0,1,99.86,382a6.42,6.42,0,0,1-1.36,1.49,3.2,3.2,0,0,0-.63.92,2.89,2.89,0,0,0-.22.43,1.66,1.66,0,0,1,.63-.15,1.83,1.83,0,0,0-.64.17.47.47,0,0,0,0,.17c0,.16-.22,0,0-.16a1.67,1.67,0,0,0-.77,2.22l-1.47,1.76A169.69,169.69,0,0,0,84.5,404C77.63,414.18,71.29,424.78,65,435.37s-12.28,21.56-17.5,32.8q-3.27,7.06-6.22,14.28c.83-4.27,1.57-8.57,2.18-12.89a153.23,153.23,0,0,0,1-33.09,266.87,266.87,0,0,0-4.6-32.7,121.25,121.25,0,0,0-3.9-15.1,52.78,52.78,0,0,0-5.7-12.79,18.77,18.77,0,0,0-9.14-7.45A14,14,0,0,0,8.71,369.8a17.45,17.45,0,0,0-7.48,10.09A41.17,41.17,0,0,0,.05,387.7a65.71,65.71,0,0,0,.24,8.06,161.69,161.69,0,0,0,5.35,32.12c1.42,5.25,3,10.44,4.62,15.64s3.06,10.37,4.6,15.55C18,469.49,21.51,479.7,25.4,489.84a28.35,28.35,0,0,1,2,7.16,53.55,53.55,0,0,1,.15,8.11c-.14,2.64-.43,5.28-.78,7.9a40.34,40.34,0,0,0-.62,8.13,9.45,9.45,0,0,1-.1,3.14,22.06,22.06,0,0,0-.75,3.7,1.27,1.27,0,0,0,.09.58q-1.52,5.19-2.95,10.4c-1.67,6.06-3.24,12.15-4.75,18.25-.63,2.56,3.32,3.64,3.95,1.08,6.53-26.32,14.43-52.35,25-77.27,1.71-1.51,3.64-2.76,5.35-4.27s3.63-3.32,5.56-4.84c3.82-3,8.36-5.15,12.69-7.31a60,60,0,0,1,6.57-2.88c2.38-.84,4.8-1.56,7.2-2.35,5-1.62,9.82-3.62,14.75-5.39,9.93-3.55,20.12-6.51,30.22-9.56,8.55-2.59,17.13-5.17,25.22-9a65,65,0,0,0,11.38-6.78c3.22-2.43,6.54-5.18,8.49-8.78a9.17,9.17,0,0,0,1.21-6,8.23,8.23,0,0,0-3.79-5.11c-3.44-2.33-7.78-3-11.85-3.24-9.68-.49-19.25,1.71-28.47,4.43a167.47,167.47,0,0,0-28.36,11.38,165.34,165.34,0,0,0-25.11,15.81,149.37,149.37,0,0,0-17,14.51c1-1.78,1.93-3.56,2.92-5.32A533.65,533.65,0,0,1,94.65,396.8c5.91-8.22,12.72-15.78,18.74-23.94,5.65-7.67,10.82-15.72,15.9-23.79a1.62,1.62,0,0,0,1.17-1.55c0,.34.2-.56.07-.27a1.81,1.81,0,0,1,.32-.52,5.85,5.85,0,0,1,1.32-1.16l.69-.43a.85.85,0,0,0,1.09-.28c.15-.19.31-.36.46-.55l1.76-.82c3.26-1.45,6.38-3.19,9.66-4.59,9-3.85,18.66-5.69,28.13-7.89,19-4.4,37.85-9.68,55.8-17.35a56.26,56.26,0,0,0,10.53-5.54,25.85,25.85,0,0,0,4.54-3.94c.77-.87,1.42-1.84,2.1-2.78a31.66,31.66,0,0,0,2.24-3.16,7.79,7.79,0,0,0,1-3.3,9.79,9.79,0,0,0-.71-3.35,6.74,6.74,0,0,0-3.05-4.24,11.82,11.82,0,0,0-2.4-.93c-1.22-.39-2.39-.86-3.64-1.17a42.93,42.93,0,0,0-7-.9,54.64,54.64,0,0,0-14.54,1.16,108.58,108.58,0,0,0-14.14,3.83,215.61,215.61,0,0,0-26.64,11.52,147.1,147.1,0,0,0-23.89,14.78A107.19,107.19,0,0,0,143.61,325a380.84,380.84,0,0,0,32.1-74.26c.53-1.31,1-2.65,1.49-4a35.05,35.05,0,0,1,2.28-5,19.22,19.22,0,0,1,3.77-4.47c3.06-2.84,6-5.88,9.15-8.6a77.92,77.92,0,0,1,10.2-6.84c7.46-4.6,15-9.05,22.22-14.06a121.63,121.63,0,0,1,11.1-6.9c3.46-1.9,7-3.7,10.33-5.76,6.42-4,12.52-9.05,13.4-17C260,175,259.49,171.49,257,169.37Zm-58.86-36.63A133.41,133.41,0,0,1,208,114a81,81,0,0,1,13-15.5,71.53,71.53,0,0,1,16.61-11.7,30.65,30.65,0,0,1,9-2.9,8.39,8.39,0,0,1,3.53,0,2,2,0,0,1,.42.21l.09.09a.66.66,0,0,0,.06.12.31.31,0,0,0,.06.09s0,.08,0,.2a1.13,1.13,0,0,1,0,.2c0,.11,0,.35,0,.34a3.81,3.81,0,0,1-.13,1.35,15.1,15.1,0,0,1-.52,1.86,17.46,17.46,0,0,1-1.25,2.81,42.58,42.58,0,0,1-4.55,6.58c-7.8,9.54-18.14,16.45-27.64,24.13-2.42,2-4.79,4-7.07,6.09s-4.38,4.52-6.64,6.73c-1.15,1.12-2.33,2.21-3.5,3.31,1.75-2.65,3.56-5.26,5.48-7.79a89.37,89.37,0,0,1,14.38-14.84c3-2.47,6.06-4.85,9.06-7.31.77-.63-.28-2-1.08-1.38-5.54,4.19-11.2,8.29-16.18,13.16a102.27,102.27,0,0,0-13.05,16.34q-1.84,2.78-3.64,5.6C195.57,138.74,196.81,135.72,198.14,132.74Zm-16-70.21a58.61,58.61,0,0,1,3.68-28c3.08-7.9,6.95-15.76,12.36-22.34a44.47,44.47,0,0,1,7.94-7.63c2.59,1.92,1.94,7.89,1.74,10.4a88.87,88.87,0,0,1-2.74,14.73c-1.7,6.69-3.13,13.38-4.28,20.2-1.57,9.27-3.79,18.16-6.26,27.22-.63,2.32-1.3,4.65-1.76,7s-.46,4.77-.72,7.16a48.58,48.58,0,0,1-1,6.12c-.61-6.28-1.17-12.57-1.2-18.89a181.11,181.11,0,0,1,1.64-22.79c.53-4.32,1.25-8.62,2.1-12.89.22-1.09-1.4-1.55-1.67-.46a138.07,138.07,0,0,0-3.56,22.69,149.86,149.86,0,0,0-.26,23.4c.08,1.07.17,2.14.26,3.21C185.87,82.06,183.17,72.48,182.15,62.53Zm.58,81.16c-3.81-3.2-8.09-5.78-12.09-8.73a98.89,98.89,0,0,1-20.79-20.06c-.87-1.17-2.64-3-2.26-4.54.26-1,1.78-1.81,3-2.24a17.64,17.64,0,0,1,2.37-.64c.12,0,.81-.13.8-.14a14.66,14.66,0,0,1,1.62-.09,14.84,14.84,0,0,1,6.14,1.39c7.89,3.58,13.77,10.63,17.93,18a61.52,61.52,0,0,1,5.78,13.72,2,2,0,0,1,.07.26,55,55,0,0,0-6.75-8.31A106,106,0,0,0,164,120.93c-1.15-.79-2.23,1.09-1.09,1.87A101.16,101.16,0,0,1,177.13,134c3.69,3.68,6.34,8.09,9.3,12.31.06.44.13.88.18,1.32A26.38,26.38,0,0,0,182.73,143.69ZM31.64,507.06a.8.8,0,0,0,.48.11c-.24.73-.5,1.45-.74,2.17C31.48,508.59,31.56,507.83,31.64,507.06Zm8.74-45a189.56,189.56,0,0,1-2.7,19.08c0-2.37-.11-4.73-.28-7.09-.95-12.83-4-25.39-7.54-37.71-2-7-4.23-13.93-6.35-20.9a1.09,1.09,0,0,0-2.09.59c3.65,12,7.55,23.86,10.34,36.06a153.1,153.1,0,0,1,3.17,18.52,144.71,144.71,0,0,1,.59,18.62,37.16,37.16,0,0,1-.35,4l0,.07q-.87,3.87-1.83,7.73a1.87,1.87,0,0,0,0,.7,11.75,11.75,0,0,1-1.49,3.47,47.64,47.64,0,0,0,0-7.46c-.46-5.17-2.6-9.73-4.4-14.53-1.87-5-3.6-10-5.24-15-3.29-10.07-6.14-20.29-9.26-30.41s-6-20.17-7.42-30.61C4.73,402,4.27,396.85,4,391.67a36.64,36.64,0,0,1,.31-7.4A18,18,0,0,1,6.15,378a12.58,12.58,0,0,1,8.46-6.36c3.49-.61,7.16,1,9.63,3.38A26,26,0,0,1,30,384.37,110.11,110.11,0,0,1,34.57,399a251.14,251.14,0,0,1,5.2,31.07A167.64,167.64,0,0,1,40.38,462.05Zm12.33,5.36c.19-.42.38-.84.58-1.25a2,2,0,0,0,.53-.33C53.44,466.35,53.07,466.88,52.71,467.41ZM63.2,454.27a115,115,0,0,1,11.06-9.74A173,173,0,0,1,98.13,428.2a163.71,163.71,0,0,1,26.72-12c9.05-3.07,18.6-5.86,28.18-6.52a39.24,39.24,0,0,1,11.65.54,13.13,13.13,0,0,1,5,2.14,4.36,4.36,0,0,1,1.49,1.78,3.14,3.14,0,0,1,.11,1.66c-.66,3.4-4,6.13-6.54,8.24a57.84,57.84,0,0,1-10.58,6.74c-7.62,3.86-15.82,6.38-24,8.83-9.59,2.88-19.21,5.75-28.72,8.9-4.86,1.62-9.63,3.47-14.43,5.25-4.59,1.7-9.35,2.91-13.89,4.75a105.57,105.57,0,0,0-13.35,6.73,44.58,44.58,0,0,0-5.81,4.1,53.64,53.64,0,0,1,4.54-6,47.6,47.6,0,0,1,10.37-8.26c4-2.5,8.11-4.79,12.08-7.33a55.14,55.14,0,0,1,11.75-5.93c5.25-1.8,10.83-2.4,16.07-4.28,1.11-.4.66-2.13-.5-1.79-4.91,1.43-10,2.07-14.89,3.58A52.45,52.45,0,0,0,81.33,445c-4.19,2.59-8.43,5.09-12.62,7.68a54,54,0,0,0-10.78,8.16,44.4,44.4,0,0,0-3,3.46A83.47,83.47,0,0,1,63.2,454.27Zm53.13-93.36c-.3.55-.61,1.1-.91,1.66l-.11.16a174.87,174.87,0,0,0,4.57-19.81,70.47,70.47,0,0,0-.28-24.58,46.52,46.52,0,0,0-1.73-6.48,18.11,18.11,0,0,1-1.48-6.55c0-1-1.63-1.27-1.81-.24-.67,3.82,1.39,7.41,2.31,11a61.52,61.52,0,0,1,1.76,12.3c.36,8.43-1.1,16.78-3.1,24.94-1.12,4.59-2.41,9.13-3.67,13.68a1,1,0,0,0,0,.63c-1.34,1.89-2.69,3.76-4.08,5.62l-.3.39c.35-.87.7-1.73,1-2.59,2.86-7.15,5.06-14.59,5.12-22.35a115.17,115.17,0,0,0-.27-11.9A51.19,51.19,0,0,0,111,325.46c-2.35-7.08-6.23-13.53-8.65-20.58A49.39,49.39,0,0,1,100,293.6c-.18-1.94-.29-3.89-.31-5.84a20.1,20.1,0,0,1,.1-4.78,7.08,7.08,0,0,1,1.9-3.43,9.54,9.54,0,0,1,4.23-2.16c2.85-.76,6.25-.71,8.65,1.2.58.45,1,1.06,1.6,1.5a15.21,15.21,0,0,1,1.71,1.49,13.16,13.16,0,0,1,2.45,3.55,47.77,47.77,0,0,1,1.66,4.66q1,2.74,1.76,5.54a88.56,88.56,0,0,1,3.45,22.46A86.18,86.18,0,0,1,124.87,340,87.11,87.11,0,0,1,116.33,360.91Zm34.59-38.16a124.89,124.89,0,0,1,22.41-15.45,221.75,221.75,0,0,1,25.14-11.87c8.73-3.48,18-6.46,27.39-7.29a40.9,40.9,0,0,1,13.82.85c1.07.29,2.09.69,3.14,1.05a6.56,6.56,0,0,1,1.9.81,2.26,2.26,0,0,1,.84,1.32,8.15,8.15,0,0,1,.63,2.64,4.88,4.88,0,0,1-1.22,2.48l-2.2,3a18.69,18.69,0,0,1-3.84,3.8,51.29,51.29,0,0,1-10.22,5.55c-17.32,7.52-35.69,12.59-54.05,16.86-9.39,2.19-18.94,4-27.93,7.52-1.19.47-2.37,1-3.53,1.49,10.1-8.22,22.62-13.52,34.72-18,4.55-1.7,9.14-3.3,13.66-5.09,1.07-.42.65-2.14-.5-1.77-8.44,2.72-16.81,5.73-25,9.23A104.09,104.09,0,0,0,143,332.92a64.92,64.92,0,0,0-7,6.33l-.83.39A147.63,147.63,0,0,1,150.92,322.75Zm19.42-75.29c-.15,1.76-.32,3.51-.3,5.27a2,2,0,0,0,.25,1c-.41,1.3-.83,2.6-1.26,3.89a33.1,33.1,0,0,0-1.08-5.4,111.07,111.07,0,0,0-3.31-18,112.26,112.26,0,0,0-3.73-12.59,74.85,74.85,0,0,0-5.73-11.47C152.7,206,150,202,147.26,198c-.73-1.09-2.5-.06-1.76,1,4.68,7,9.61,14,12.85,21.82a86.84,86.84,0,0,1,3.79,12.19c.66,2.59,1.33,5.17,1.91,7.78a48.39,48.39,0,0,0-4.57-9.27c-7.33-12.18-16.37-23.21-24.53-34.82a74.88,74.88,0,0,1-4.79-7.28c-1.11-2-2.16-4.52-1.39-6.65s2.84-2.51,4.85-2.5a14.94,14.94,0,0,1,6.49,1.65c4.9,2.46,8.72,6.71,12,11a117.56,117.56,0,0,1,10.14,15.27,63.32,63.32,0,0,1,6.76,18.3A85.27,85.27,0,0,1,170.31,237,69.31,69.31,0,0,1,170.34,247.46Zm75.15-56.88c-6.68,4.29-14.12,7.35-20.63,11.93-6.84,4.81-14,9.17-21.1,13.55-3.43,2.11-6.93,4.13-10.26,6.41a63.2,63.2,0,0,0-7.56,6.29,86.39,86.39,0,0,1,6.55-7.5,197.17,197.17,0,0,1,16.71-14.93c3.31-2.69,6.63-5.36,9.9-8.08.78-.65-.28-2-1.1-1.42-6.21,4.67-12.32,9.47-18.16,14.59a122.43,122.43,0,0,0-14.09,14.17,83.65,83.65,0,0,1,4.85-8.2,145.9,145.9,0,0,1,14.6-18.52,123.81,123.81,0,0,1,18.3-15.68c6.33-4.53,13-8.68,20.58-10.8q1.32-.37,2.67-.66a17.23,17.23,0,0,1,1.81-.31,16,16,0,0,1,1.83-.09c.3,0,.59,0,.89,0l.27,0,.36.06a7.13,7.13,0,0,1,.91.23,3.3,3.3,0,0,1,.45.16,6.66,6.66,0,0,1,.69.38l.17.12.25.23a2.72,2.72,0,0,1,.73,1,6.73,6.73,0,0,1,.41,1.56C256.28,182.17,250.85,187.14,245.49,190.58Z"/></g></g></svg>